<?xml version="1.0" encoding="iso-8859-1"?>
<!-- Generator: Adobe Illustrator 18.0.0, SVG Export Plug-In . SVG Version: 6.00 Build 0)  -->
<!DOCTYPE svg PUBLIC "-//W3C//DTD SVG 1.1//EN" "http://www.w3.org/Graphics/SVG/1.1/DTD/svg11.dtd">
<svg version="1.1" id="Layer_1" xmlns="http://www.w3.org/2000/svg" xmlns:xlink="http://www.w3.org/1999/xlink" x="0px" y="0px"
	 viewBox="0 0 960 960" style="enable-background:new 0 0 960 960;" xml:space="preserve">
<g>
	<path style="fill-rule:evenodd;clip-rule:evenodd;fill:#FFFFFF;" d="M436.963,15.052c-46.403,5.058-84.461,14.161-125.807,30.345
		c-78.772,30.725-148.06,82.944-200.533,151.095C4.288,334.69-15.437,522.832,59.668,681.386
		c15.931,33.633,36.667,65.748,64.863,100.519c17.575,21.621,58.794,60.059,81.174,75.864
		c70.3,49.438,137.692,76.243,218.487,86.737c20.736,2.655,72.703,3.793,94.956,1.897c107.6-8.977,205.084-52.346,283.983-126.566
		c16.816-15.678,38.564-39.955,38.311-42.484c-0.126-1.011,0.253-1.517,0.759-1.138c1.391,0.885,8.598-7.966,21.748-26.552
		c38.058-53.863,63.978-114.554,76.749-180.176c6.322-32.495,7.081-41.346,7.081-88.507c0-49.058-0.885-59.679-8.345-95.841
		c-30.598-148.313-132.888-273.741-272.35-333.8c-41.093-17.701-83.071-29.081-129.6-35.15
		C515.355,13.408,458.584,12.776,436.963,15.052z M518.137,23.397c129.474,10.621,243.901,72.197,325.455,174.992
		c50.955,64.105,83.576,144.773,94.197,232.016c3.035,25.035,3.035,74.726,0,99.634c-9.23,77.001-33.38,143.256-74.473,205.084
		c-7.46,11.253-23.771,33.254-26.173,35.403c-0.379,0.379-3.161,3.793-6.196,7.586c-9.989,12.391-45.897,47.162-61.449,59.426
		c-20.483,16.184-26.805,20.736-42.357,30.598c-74.473,46.783-156.658,70.427-244.786,70.553
		c-113.416,0.126-219.625-39.828-303.707-114.175C66.243,725.261,9.977,579.476,26.035,430.404
		c9.862-90.91,45.897-174.739,105.577-245.924c53.737-64.231,128.083-114.301,208.119-140.095
		C396.629,25.925,459.722,18.465,518.137,23.397z"/>
	<path style="fill-rule:evenodd;clip-rule:evenodd;fill:#FFFFFF;" d="M448.974,34.144c-59.174,5.31-107.726,18.207-159.187,42.484
		c-43.116,20.23-84.209,48.932-119.485,83.197C56.634,270.332,10.357,429.519,46.898,584.534
		c17.449,74.473,55.76,145.532,108.232,201.165c4.931,5.184,11.127,12.012,13.908,15.046c15.299,17.322,60.059,51.081,90.91,68.656
		c58.415,33.254,129.727,54.369,192.82,57.277c8.724,0.379,18.839,1.012,22.506,1.264l6.575,0.632v-10.747V907.08h-12.265
		c-6.828,0-20.357-0.885-30.093-1.897c-78.772-8.345-150.842-36.035-213.05-81.933c-13.908-10.115-32.242-25.414-40.334-33.38
		l-5.437-5.437l5.437-4.425c3.035-2.402,6.069-4.425,6.575-4.425c0.632,0,6.069,4.552,12.012,9.989
		c69.415,63.346,162.854,101.404,259.833,105.956l17.322,0.759v-10.115v-10.115l4.805-0.885c2.529-0.379,7.333-0.759,10.621-0.759
		c12.517,0,56.518-6.575,73.714-10.874c39.07-9.862,78.772-25.92,104.312-41.978c4.552-2.908,11.885-7.46,16.437-10.242
		c17.069-10.368,42.484-29.966,54.748-42.104c4.299-4.299,7.966-6.954,8.851-6.448c3.287,1.897,42.736,34.265,43.874,35.909
		c0.379,0.506,6.196-5.31,13.023-12.77c54.242-59.806,90.531-130.612,107.094-208.625c13.023-60.944,12.897-124.796-0.126-186.371
		c-15.426-73.082-50.07-142.623-100.013-200.153c-7.333-8.471-38.058-38.817-47.162-46.656
		C705.899,83.582,627.254,48.811,537.482,36.546C523.574,34.65,462.377,33.006,448.974,34.144z M467.435,47.041
		c0.885,0.506,1.012,2.276,0.379,4.678c-1.012,3.667-1.391,3.793-7.713,3.793c-5.31,0-6.701,0.379-7.081,2.276
		c-0.379,1.644,1.644,3.035,7.713,5.816c9.104,4.046,11,6.448,11,13.403c0,9.104-10.242,14.793-22.885,12.644
		c-4.805-0.885-5.058-1.138-4.678-4.805l0.379-4.046l7.081,0.379c5.31,0.379,7.333,0,8.724-1.644
		c2.529-3.035,0.379-5.563-7.081-8.345c-7.713-2.908-10.494-5.563-10.747-10.621c-0.506-7.207,2.782-11.885,9.609-13.655
		C456.182,45.903,465.917,46.029,467.435,47.041z M512.068,61.455c2.276,8.598,4.931,18.207,5.816,21.495l1.77,6.069h-5.437
		c-5.437,0-5.563,0-7.081-5.69l-1.644-5.816l-5.816,0.379c-5.437,0.379-5.816,0.632-6.828,5.058
		c-1.138,4.678-1.264,4.805-6.701,4.805h-5.437l7.081-20.862l7.207-20.862h6.575h6.448L512.068,61.455z M544.689,50.328
		c0.379,0.379-0.253,7.081-1.391,14.92c-2.782,19.851-3.287,18.334,5.563,19.345l7.586,0.885v4.425v4.552l-5.184-0.885
		c-2.782-0.506-8.471-1.138-12.644-1.644c-4.172-0.379-7.839-1.264-8.219-1.897s0.506-10.242,2.149-21.495l2.782-20.23l4.425,0.759
		C542.16,49.443,544.436,49.949,544.689,50.328z M579.839,56.144c1.644,0,3.287,0.506,3.667,1.012
		c0.379,0.632-0.759,6.448-2.402,13.023c-3.667,14.035-3.92,17.954-1.138,20.61c5.184,5.31,10.621,0.759,13.655-11.38
		c5.058-20.23,4.172-18.587,9.357-17.575c2.529,0.506,4.805,1.012,4.931,1.138c0.759,0.759-7.46,29.46-9.23,32.116
		c-5.184,7.839-19.219,8.345-26.679,0.885c-5.058-5.058-5.437-9.609-1.644-25.794c2.908-12.265,5.058-17.954,5.943-15.678
		C576.678,55.386,578.195,56.144,579.839,56.144z M387.904,58.167c-0.379,0.379-0.253,2.149,0.379,3.793
		c1.264,3.161,1.264,3.161-11.759,6.322c-2.782,0.632-3.287,1.264-2.655,3.54c1.391,4.552,2.529,4.931,9.483,2.908
		c3.667-1.138,6.828-1.897,6.954-1.77s0.632,2.023,1.012,4.299c0.885,3.92,0.885,3.92-6.196,5.563l-7.207,1.644l0.759,4.299
		c0.379,2.402,0.759,4.552,1.012,4.678c0.253,0.253,3.92-0.506,8.219-1.644c4.299-1.138,8.092-1.77,8.345-1.517
		c0.253,0.379,0.885,2.149,1.264,3.92c0.885,3.287,0.632,3.414-11.759,6.828c-7.081,1.897-13.023,3.161-13.403,2.908
		c-0.632-0.759-10.494-37.552-10.621-39.575c0-0.759,4.678-2.529,10.494-3.92C382.594,57.662,389.422,56.777,387.904,58.167z
		 M637.243,72.961c12.391,4.552,19.219,14.161,16.943,23.644c-4.299,18.207-17.701,23.012-38.943,13.908l-5.563-2.402l6.954-18.081
		c3.793-9.989,7.207-18.839,7.46-19.725C624.725,68.535,625.863,68.662,637.243,72.961z M346.306,76.375
		c5.184,3.161,8.977,11.253,9.104,19.345c0,9.736-4.425,15.426-15.805,20.483c-13.276,5.943-12.012,6.954-20.23-14.667
		c-4.678-12.391-6.828-19.472-6.069-20.23c0.759-0.759,4.678-2.655,8.724-4.299C331.386,73.087,340.616,72.961,346.306,76.375z
		 M696.29,102.927c-0.379,1.77-1.012,5.943-1.391,9.23l-0.759,6.196l6.828-5.184c3.667-2.908,7.46-5.184,8.345-5.184
		c1.897,0,8.977,4.046,8.977,5.058c0,0.379-5.31,3.667-11.885,7.46c-10.747,6.196-12.265,7.586-16.058,14.288
		c-2.276,4.046-4.552,7.333-5.058,7.333c-0.506,0-2.655-1.012-4.678-2.149l-3.667-2.149l4.172-7.713
		c3.54-6.322,4.299-9.23,4.299-15.299c0-4.046,0.379-10.368,0.759-14.035l0.885-6.575l4.805,2.782
		C695.91,99.26,696.669,100.272,696.29,102.927z M521.424,99.766c85.979,9.104,165.003,45.645,225.315,104.312
		c19.092,18.587,26.173,26.679,42.484,48.047c39.196,51.587,64.737,116.324,73.335,185.866c2.149,17.449,2.149,66.381,0,84.082
		c-9.23,76.369-35.656,139.968-82.944,199.142c-9.736,12.265-37.805,40.966-50.196,51.461c-5.437,4.552-9.483,8.851-8.977,9.609
		c0.379,0.759,0.126,0.885-0.632,0.379c-0.759-0.379-6.954,3.287-13.782,8.219c-49.058,35.529-106.209,58.921-167.279,68.277
		c-21.495,3.287-70.806,4.678-92.553,2.529c-38.564-3.793-80.921-14.288-112.531-28.07c-6.196-2.529-11.127-4.299-11.127-3.92
		c0,0.506-0.506,0.253-1.012-0.506c-0.506-0.759-7.081-4.425-14.793-8.219c-82.312-41.219-151.854-119.485-183.843-206.855
		c-16.69-45.645-23.391-84.461-23.391-134.405c0.126-33.254,1.644-49.438,7.586-77.634
		c22.633-106.968,88.381-198.004,183.21-253.258c45.139-26.299,100.266-44.001,154.256-49.564
		C461.492,97.49,502.838,97.743,521.424,99.766z M263.867,115.571c10.621,5.184,16.437,20.483,11.38,30.093
		c-5.184,9.989-17.449,14.161-27.058,9.23c-10.368-5.31-16.058-20.736-11.127-30.219
		C242.246,114.559,253.626,110.64,263.867,115.571z M761.532,144.399c8.345,9.23,8.598,18.587,0.759,27.564
		c-9.989,11.38-22.38,10.747-36.667-1.897l-5.31-4.805l3.667-4.931c2.023-2.782,7.839-10.242,13.023-16.564l9.357-11.759l5.31,3.667
		C754.578,137.698,759.004,141.617,761.532,144.399z M241.614,171.33c0,0.379-1.644,1.897-3.667,3.414l-3.793,2.782l-3.793-4.805
		c-11.127-13.655-19.851-24.656-20.989-26.299c-0.885-1.264-0.253-2.655,2.529-5.184l3.793-3.54l12.897,16.437
		C235.798,163.112,241.614,170.951,241.614,171.33z M203.935,162.353c3.161,3.161,3.667,4.678,3.287,8.219
		c-0.506,4.046-0.253,4.425,2.655,4.425c2.908,0,15.299,6.954,15.299,8.598c0,1.138-5.437,6.575-6.575,6.575
		c-0.632,0-3.161-1.264-5.816-2.908c-2.529-1.644-5.563-3.287-6.701-3.667c-2.402-0.885-8.345,2.655-6.701,3.92
		c0.632,0.506,3.287,3.161,5.943,5.943l4.678,5.058l-3.54,3.414l-3.667,3.54l-7.46-7.966c-4.046-4.299-10.494-11-14.035-14.793
		c-3.667-3.92-6.701-7.333-6.701-7.839c0-1.391,10.494-11.506,14.541-13.908C194.705,157.422,199.383,157.928,203.935,162.353z
		 M796.43,175.377l9.23,9.23l-3.161,2.908l-3.161,2.908l-4.931-5.184c-5.563-5.816-6.575-6.196-9.483-2.908
		c-2.023,2.149-1.77,2.655,3.035,7.713l5.184,5.31l-2.908,3.161l-2.908,3.035l-5.437-5.31l-5.437-5.31l-3.161,3.035l-3.161,3.035
		l5.943,6.069l5.943,6.069l-3.034,3.161l-3.035,3.287l-9.23-9.23c-5.058-5.058-9.23-9.609-9.23-10.242
		c0-1.138,27.943-29.966,29.081-29.966C786.947,166.146,791.372,170.319,796.43,175.377z M166.003,188.526
		c3.161,2.782,2.908,3.793-2.149,9.357c-5.058,5.69-5.31,6.322-2.023,9.23c2.276,2.023,2.529,1.897,7.586-3.793
		c5.058-5.816,5.31-5.943,7.713-3.667c3.414,3.035,3.287,3.92-1.897,10.242l-4.425,5.31l3.414,2.782l3.414,2.655l5.816-6.448
		l5.69-6.575l2.402,2.655c1.264,1.391,2.908,2.276,3.414,1.897c2.529-1.517,0.759,1.138-4.805,7.333
		c-3.414,3.667-7.333,8.345-8.977,10.494c-3.667,4.552-3.414,4.678-22-11.759c-15.173-13.276-14.667-11.506-5.563-21.368
		c2.655-2.908,5.69-6.575,6.701-7.966C162.463,185.871,162.969,185.745,166.003,188.526z M828.924,212.55
		c3.667,7.46,1.644,13.655-5.69,17.449c-6.196,3.161-10.494,2.402-16.564-3.035l-5.563-4.931l-5.058,4.299
		c-5.563,4.931-6.448,4.931-9.989,0.126c-2.529-3.414-2.529-3.414,0-5.184c1.391-1.012,8.724-6.954,16.311-13.403l13.908-11.506
		l5.31,6.069C824.625,205.722,827.786,210.274,828.924,212.55z M141.854,220.262c2.149,1.77,2.023,2.149-0.885,5.943
		c-1.644,2.276-3.035,4.299-3.035,4.805c0,0.759,18.839,14.288,23.644,17.069c3.667,2.023,3.667,2.529-0.126,7.207l-2.908,3.667
		l-13.655-9.862c-10.747-7.839-13.908-9.483-14.667-8.092c-0.632,1.012-2.149,3.287-3.54,4.931
		c-2.402,2.908-2.402,3.035-5.058,0.632c-1.517-1.391-2.655-2.908-2.655-3.54c0-2.655,17.954-26.299,19.345-25.414
		C139.072,218.113,140.716,219.251,141.854,220.262z M850.798,242.769c7.333,5.69,9.989,16.69,6.069,24.403
		c-2.782,5.31-10.242,11.253-16.184,12.897c-6.954,1.77-14.035-0.253-19.472-5.69c-10.494-10.494-6.828-26.299,7.586-33.254
		C836.764,237.332,844.35,237.964,850.798,242.769z M114.669,264.643c-7.081,7.713-4.552,13.655,3.54,8.219
		c7.586-5.184,12.138-6.701,16.437-5.437c10.874,3.035,11.253,18.207,0.759,28.322c-3.667,3.54-3.793,3.54-6.322,1.264
		c-3.287-3.035-3.161-3.92,1.264-9.104c4.046-4.552,4.931-8.851,1.897-9.989c-1.012-0.379-5.058,1.264-9.104,3.793
		c-8.219,5.058-10.242,5.437-15.552,2.655c-4.172-2.149-6.828-8.851-5.563-14.035c1.138-4.552,6.196-12.644,8.345-13.529
		c0.885-0.253,2.908,0.632,4.552,2.023l2.782,2.655L114.669,264.643z M878.489,289.425c3.54,7.586,4.299,10.368,3.667,13.908
		c-1.391,7.333-9.609,11.632-15.931,8.219c-1.897-1.012-2.529-0.759-3.161,1.264c-0.379,1.391-3.667,5.058-7.333,8.219l-6.575,5.69
		l-2.276-4.678l-2.402-4.552l5.816-5.437c5.943-5.437,6.701-7.207,4.552-10.621c-1.012-1.644-2.149-1.391-7.586,1.517
		c-3.414,2.023-6.828,3.54-7.46,3.54c-1.644,0-4.552-9.23-3.161-9.736c0.632-0.253,8.598-4.046,17.575-8.598
		c9.104-4.425,17.196-8.092,18.081-8.092C873.178,279.942,875.96,284.241,878.489,289.425z M104.68,299.034
		c7.46,3.54,16.058,7.586,19.092,8.851l5.31,2.276l-2.149,4.552c-1.138,2.402-2.529,4.425-3.035,4.425
		c-0.506,0-9.23-3.92-19.345-8.851l-18.46-8.724l2.149-4.552c1.138-2.402,2.276-4.425,2.402-4.425
		C90.772,292.586,97.094,295.494,104.68,299.034z M99.496,323.69l19.219,7.081l-1.264,4.046c-0.759,2.149-1.77,4.425-2.402,5.058
		c-1.138,1.264-19.851,4.425-26.046,4.552c-6.448,0-4.931,1.644,4.425,4.931c16.943,5.816,16.69,5.69,15.046,10.115
		c-0.759,2.149-2.023,3.92-2.655,3.92c-0.632,0-8.851-2.908-18.081-6.322c-9.23-3.54-17.828-6.322-18.839-6.322
		c-1.517,0-1.897-0.759-1.264-3.161c2.276-9.23,1.897-8.977,17.954-11.38l14.793-2.276l-9.989-3.54
		c-5.437-2.023-10.494-3.667-11.38-3.667c-0.885,0-1.897-0.506-2.276-1.138c-0.759-1.264,1.644-8.977,2.782-8.977
		C79.898,316.609,88.876,319.77,99.496,323.69z M897.581,334.437c4.552,13.15,4.931,14.92,3.035,15.426
		c-1.138,0.379-3.035,1.012-4.172,1.391c-1.517,0.632-2.276-0.379-3.54-4.299c-0.759-2.782-1.897-5.058-2.402-5.058
		c-0.632,0-5.816,1.77-11.632,3.92c-21.368,7.713-21.368,7.713-21.874,0.506c-0.253-3.414,0.253-3.667,14.288-8.851
		c15.426-5.69,15.426-5.69,13.403-13.403c-0.885-2.908-0.506-3.54,2.655-4.678c1.897-0.632,3.92-0.885,4.299-0.379
		C892.018,319.391,894.799,326.345,897.581,334.437z M909.972,374.139c1.644,6.196,2.782,12.138,2.402,12.897
		c-0.253,0.885-2.149,1.644-4.172,1.644c-3.54,0-3.793-0.379-5.31-7.586c-1.517-6.828-1.897-7.586-4.299-6.828
		c-4.425,1.391-4.931,2.529-3.287,9.357c0.885,3.54,1.391,6.701,1.138,6.954c-0.253,0.253-2.023,0.759-3.92,1.264
		c-3.161,0.759-3.414,0.506-4.805-4.678c-2.276-9.104-2.276-8.977-6.575-8.092c-2.149,0.379-4.172,1.012-4.425,1.264
		c-0.253,0.253,0.506,3.92,1.644,8.219c1.264,4.172,1.897,7.966,1.644,8.219c-0.253,0.379-2.149,0.759-4.172,1.012
		c-3.667,0.379-3.793,0.379-6.828-12.012c-1.644-6.828-2.782-12.644-2.402-13.023c1.012-1.012,36.794-10.494,38.69-10.242
		C906.305,362.633,908.202,367.185,909.972,374.139z M82.806,370.978c10.368,2.655,19.092,5.184,19.345,5.563
		c0.885,0.885-0.759,9.609-1.897,9.609c-2.023,0-38.943-10.368-39.575-11.127c-1.012-1.138,1.138-9.104,2.402-9.104
		C63.588,365.92,72.438,368.196,82.806,370.978z M84.45,396.266l12.77,1.517l-0.632,4.678c-0.379,2.529-0.759,4.678-0.885,4.805
		c-0.126,0.126-5.943-0.506-12.77-1.517c-6.954-1.012-13.529-1.77-14.541-1.77s4.046,2.908,11.38,6.575
		c12.77,6.448,13.276,6.828,12.897,10.494c-0.253,2.023-0.632,3.793-0.885,4.046c-0.126,0.126-6.954,1.012-15.046,1.77
		l-14.667,1.517l14.161,2.908c7.713,1.644,14.288,3.161,14.667,3.414c1.391,1.391-1.391,8.345-3.287,8.345
		c-2.402,0-38.058-8.345-38.817-8.977c-0.253-0.253-0.126-3.161,0.253-6.448c0.759-6.828,0.379-6.701,18.713-8.345l10.115-1.012
		l-12.517-6.069l-12.391-6.069l0.759-5.69c0.379-3.035,1.012-6.069,1.264-6.575c0.379-0.506,4.172-0.506,8.598,0
		C68.013,394.369,77.37,395.507,84.45,396.266z M910.984,405.117c5.69,2.149,10.621,13.782,8.851,20.989
		c-0.632,2.655-1.391,3.161-4.805,2.782c-3.667-0.379-3.92-0.632-3.54-5.058c0.506-5.31-1.517-9.862-4.299-9.862
		c-2.023,0-3.54,2.908-5.563,11c-2.529,10.242-13.403,13.655-20.862,6.701c-5.943-5.563-7.46-24.023-1.897-24.023
		c5.058,0,5.943,1.138,5.437,7.333c-0.379,4.046,0,6.701,1.391,8.471c2.782,3.667,5.943,1.138,8.345-6.448
		c2.276-7.586,3.667-9.736,6.954-11.632C904.156,403.599,906.811,403.473,910.984,405.117z"/>
	<path style="fill-rule:evenodd;clip-rule:evenodd;fill:#FFFFFF;" d="M498.412,62.972c-1.897,7.46-2.023,7.081,2.529,7.081
		c3.287,0,3.793-0.379,3.035-2.276c-0.506-1.138-1.138-4.046-1.517-6.322C501.447,55.891,500.056,56.397,498.412,62.972z"/>
	<path style="fill-rule:evenodd;clip-rule:evenodd;fill:#FFFFFF;" d="M626.748,92.306c-2.655,6.575-4.552,12.265-4.172,12.644
		c1.517,1.644,10.874,1.897,13.403,0.506c3.92-2.023,7.713-8.724,7.713-13.655c0-3.161-1.011-5.31-3.92-7.966
		C633.323,77.892,632.059,78.777,626.748,92.306z"/>
	<path style="fill-rule:evenodd;clip-rule:evenodd;fill:#FFFFFF;" d="M325.949,83.582c-1.644,0.379-2.023,1.264-1.517,2.655
		c0.506,1.264,2.655,6.828,4.805,12.517c4.425,11.759,5.69,12.517,12.012,6.828c4.299-4.046,5.184-8.345,2.782-14.793
		C341.375,83.835,334.926,81.306,325.949,83.582z"/>
	<path style="fill-rule:evenodd;clip-rule:evenodd;fill:#FFFFFF;" d="M302.937,258.953c-10.368,4.931-15.805,13.023-15.805,23.771
		c0,10.874,7.713,19.092,24.403,25.667c11.506,4.678,14.793,7.46,14.793,12.391c0,2.276-0.506,4.678-1.012,5.437
		c-3.161,4.805-15.678,5.943-27.564,2.402c-3.92-1.138-7.333-1.77-7.713-1.517c-1.012,1.012-4.046,13.908-3.54,14.793
		c1.391,2.149,16.69,5.184,26.046,5.184c8.219,0,11.506-0.632,17.322-3.287c3.92-1.77,8.219-4.299,9.609-5.437
		c6.322-5.69,9.23-21.621,5.184-29.207c-2.908-5.69-11.506-12.265-20.736-15.931c-12.644-5.058-16.184-7.586-16.816-12.138
		c-1.138-7.333,8.219-11.38,20.61-8.724c11.632,2.402,11.38,2.529,13.276-3.793c1.012-3.161,1.77-6.575,1.77-7.713
		c0-3.035-8.977-4.931-22.38-4.931C311.282,255.918,308.121,256.551,302.937,258.953z"/>
	<path style="fill-rule:evenodd;clip-rule:evenodd;fill:#FFFFFF;" d="M387.146,258.447c-20.104,7.207-29.587,21.368-29.587,44.254
		c0,10.242,0.379,13.023,3.161,19.092c4.552,9.989,11,16.564,20.23,20.862c7.333,3.414,9.104,3.667,23.138,3.667
		c16.564,0,22.127-1.012,22.127-3.793c0-1.012-0.632-4.552-1.391-8.092l-1.264-6.196l-4.678,1.264
		c-2.529,0.759-8.977,1.012-14.161,0.759c-7.586-0.506-10.621-1.264-14.92-4.046c-7.333-4.552-11.632-13.529-11.632-24.276
		c0-19.598,10.621-30.345,29.713-29.966c4.931,0,10.368,0.632,12.265,1.391c3.287,1.391,3.54,1.264,4.678-3.287
		c3.161-11.885,3.287-11-2.149-12.644C414.709,255.033,395.111,255.539,387.146,258.447z"/>
	<polygon style="fill-rule:evenodd;clip-rule:evenodd;fill:#FFFFFF;" points="218.855,301.436 218.855,345.69 246.672,345.69 
		274.488,345.69 274.488,338.104 274.488,330.644 256.534,330.265 238.453,329.885 238.074,318.759 237.695,307.758 
		254.258,307.758 270.695,307.758 270.695,299.793 270.695,291.954 254.637,291.954 238.453,291.954 238.453,282.471 
		238.453,272.988 255.902,272.608 273.224,272.229 273.224,264.769 273.224,257.183 246.039,257.183 218.855,257.183 	"/>
	<path style="fill-rule:evenodd;clip-rule:evenodd;fill:#FFFFFF;" d="M440.377,289.045c0.379,27.817,0.759,32.748,2.908,37.679
		c3.54,8.598,8.092,13.655,15.426,17.196c6.195,3.035,7.713,3.287,18.966,2.782c14.288-0.632,20.483-3.035,26.805-10.747
		c7.333-8.851,8.092-13.023,8.724-47.541l0.506-31.23h-10.115h-10.242l-0.379,31.23c-0.379,34.391-0.885,36.667-8.598,41.346
		c-7.207,4.172-15.173,2.149-20.23-5.184c-3.161-4.552-3.161-4.931-3.54-36.035l-0.379-31.357h-10.242h-10.115L440.377,289.045z"/>
	<polygon style="fill-rule:evenodd;clip-rule:evenodd;fill:#FFFFFF;" points="531.16,301.436 531.16,345.69 559.609,345.69 
		588.058,345.69 588.058,338.104 588.058,330.517 569.724,330.517 551.39,330.517 551.39,319.138 551.39,307.758 567.827,307.758 
		584.264,307.758 584.264,300.172 584.264,292.712 568.207,292.333 552.022,291.954 551.643,282.091 551.264,272.355 
		568.46,272.355 585.529,272.355 585.529,264.769 585.529,257.183 558.344,257.183 531.16,257.183 	"/>
	<polygon style="fill-rule:evenodd;clip-rule:evenodd;fill:#FFFFFF;" points="601.966,301.436 601.966,345.69 629.783,345.69 
		657.599,345.69 657.599,337.472 657.599,329.253 639.898,329.253 622.196,329.253 622.196,293.218 622.196,257.183 
		612.081,257.183 601.966,257.183 	"/>
	<path style="fill-rule:evenodd;clip-rule:evenodd;fill:#FFFFFF;" d="M687.818,270.08c-2.149,7.207-6.069,20.104-8.724,28.828
		c-7.713,24.909-13.908,45.392-13.908,46.15c0,0.379,4.552,0.632,9.989,0.632h10.115l1.897-6.701c1.012-3.54,2.402-8.598,2.908-11
		l1.138-4.425l13.276-0.379l13.15-0.379l3.161,11c1.77,5.943,3.793,11.127,4.552,11.506c0.759,0.253,5.69,0.379,10.874,0.126
		l9.483-0.379l-13.655-43.622l-13.529-43.622l-13.403-0.379l-13.276-0.379L687.818,270.08z M709.313,288.919
		c2.149,8.092,4.172,15.552,4.678,16.69c0.632,1.897-0.506,2.149-9.357,2.149h-10.242l2.529-8.598
		c1.391-4.678,3.414-12.644,4.552-17.702c1.138-5.058,2.529-8.724,3.035-8.219C705.014,273.746,707.163,280.827,709.313,288.919z"/>
	<path style="fill-rule:evenodd;clip-rule:evenodd;fill:#FFFFFF;" d="M402.824,363.392c-14.92,3.161-27.058,12.644-33.001,25.667
		c-3.161,6.954-3.667,9.23-3.667,20.483c0,11.885,0.253,13.276,4.173,21.115c7.839,15.931,22.127,23.771,43.242,23.771
		c8.092,0,19.851-2.149,20.862-3.793c0.379-0.506,0-4.172-0.759-7.966c-1.517-7.081-1.517-7.081-5.437-6.196
		c-2.149,0.506-8.219,0.885-13.403,0.885c-8.092,0-10.368-0.506-15.426-3.414c-8.219-4.931-12.391-13.403-12.391-25.541
		c0.126-23.265,16.564-34.139,41.978-27.943c3.161,0.885,3.414,0.506,4.805-4.552c0.759-3.035,1.644-6.448,2.023-7.586
		c0.379-1.517-0.632-2.529-3.54-3.54C426.721,362.759,409.146,362.001,402.824,363.392z"/>
	<path style="fill-rule:evenodd;clip-rule:evenodd;fill:#FFFFFF;" d="M617.644,363.392c-13.15,2.782-26.426,13.023-32.242,24.656
		c-2.655,5.69-3.035,7.966-3.035,21.495c0,13.15,0.379,15.931,2.782,20.862c6.196,12.265,16.437,19.851,30.472,22.885
		c8.219,1.644,27.69,0.885,31.863-1.391c2.402-1.264,2.655-2.149,1.897-7.966c-0.506-3.667-1.264-6.954-1.77-7.46
		c-0.506-0.506-2.782-0.379-5.184,0.253c-11.253,3.287-25.288,0.379-32.495-6.575c-9.609-9.357-10.621-29.84-2.023-41.219
		c5.31-7.081,12.138-9.736,23.771-9.483c5.563,0.126,11.506,0.379,13.15,0.632c2.529,0.379,3.161-0.379,4.678-5.31
		c2.276-7.713,2.276-8.219-1.391-9.862C643.944,363.012,624.093,362.001,617.644,363.392z"/>
	<polygon style="fill-rule:evenodd;clip-rule:evenodd;fill:#FFFFFF;" points="215.062,371.61 215.062,379.702 226.821,380.082 
		238.453,380.461 238.832,416.749 239.085,453.164 248.568,453.164 258.051,453.164 258.304,416.749 258.683,380.461 
		271.074,380.082 283.339,379.702 283.339,371.61 283.339,363.392 249.2,363.392 215.062,363.392 	"/>
	<polygon style="fill-rule:evenodd;clip-rule:evenodd;fill:#FFFFFF;" points="297.247,408.278 297.247,453.164 325.064,453.164 
		352.881,453.164 352.881,444.945 352.881,436.726 334.547,436.726 316.213,436.726 316.213,425.979 316.213,415.232 
		332.65,415.232 349.087,415.232 349.087,407.013 349.087,398.795 332.65,398.795 316.213,398.795 316.213,389.312 316.213,379.829 
		333.915,379.829 351.616,379.829 351.616,371.61 351.616,363.392 324.432,363.392 297.247,363.392 	"/>
	<path style="fill-rule:evenodd;clip-rule:evenodd;fill:#FFFFFF;" d="M451.503,408.278v44.886h8.851h8.977l-0.379-32.874
		c-0.253-18.081,0-32.874,0.632-32.874c0.506,0,0.885,0.759,1.012,1.517c0,2.529,8.219,18.839,21.368,42.484l12.012,21.748h10.494
		h10.368v-44.886v-44.886h-8.977h-8.977l0.506,31.61c0.126,17.322,0,31.104-0.379,30.598c-0.379-0.506-2.023-4.046-3.54-7.839
		s-8.598-17.449-15.805-30.345l-13.023-23.391l-11.506-0.379l-11.632-0.379V408.278z"/>
	<polygon style="fill-rule:evenodd;clip-rule:evenodd;fill:#FFFFFF;" points="545.068,408.278 545.068,453.164 555.183,453.164 
		565.299,453.164 565.299,408.278 565.299,363.392 555.183,363.392 545.068,363.392 	"/>
	<path style="fill-rule:evenodd;clip-rule:evenodd;fill:#FFFFFF;" d="M681.623,386.404c-3.793,12.77-8.724,29.081-11,36.415
		c-2.276,7.333-5.31,17.196-6.575,21.874l-2.529,8.598l10.368-0.379l10.368-0.379l2.908-11.127l3.035-11h13.15h13.15l3.414,11.38
		l3.54,11.38h10.368c5.816,0,10.494-0.379,10.494-1.012c0-0.506-6.195-20.483-13.655-44.507l-13.655-43.622l-13.15-0.379
		l-13.276-0.253L681.623,386.404z M707.669,401.829c1.644,5.563,3.035,10.747,3.035,11.759c0,1.264-2.402,1.644-9.483,1.644
		c-5.184,0-9.483-0.253-9.483-0.759c0-0.379,1.644-6.954,3.667-14.793c2.023-7.839,4.046-15.931,4.552-17.954
		c0.885-3.667,1.011-3.54,2.782,3.161C703.75,388.68,706.026,396.392,707.669,401.829z"/>
	<path style="fill-rule:evenodd;clip-rule:evenodd;fill:#FFFFFF;" d="M221.763,470.486l-5.437,0.506v42.231v42.104l8.471,1.011
		c12.391,1.264,28.828-0.126,38.943-3.414c7.207-2.402,10.115-4.172,15.805-9.989c9.104-9.104,12.012-16.69,12.012-32.242
		c0-9.862-0.506-12.265-3.54-18.587C278.787,473.267,259.821,467.072,221.763,470.486z M259.316,487.808
		c8.598,4.299,12.012,11.127,11.885,24.15c0,7.713-0.632,11.253-2.655,15.173c-5.31,9.989-13.15,14.541-25.667,14.541h-7.586
		v-28.322V484.9l2.908-0.506C243.258,483.256,253.499,485.026,259.316,487.808z"/>
	<path style="fill-rule:evenodd;clip-rule:evenodd;fill:#FFFFFF;" d="M401.56,471.497c-10.621,4.046-18.081,15.678-16.69,26.046
		c1.138,8.345,6.322,13.529,20.736,20.736c15.552,7.839,16.816,8.724,16.816,13.908c0,8.724-11.38,11.885-26.552,7.081
		c-4.425-1.391-8.345-2.402-8.471-2.149c-0.253,0.253-1.138,3.667-1.897,7.586c-1.77,8.471-1.644,8.724,9.104,11
		c10.874,2.276,25.92,0.885,33.506-3.035c13.15-6.828,17.828-22.506,10.494-34.771c-3.035-5.058-8.977-8.851-19.851-13.023
		c-8.598-3.287-15.299-8.471-15.299-11.759c0-1.264,1.391-3.54,3.161-5.184c2.529-2.655,4.299-3.161,10.494-3.161
		c4.173,0,9.862,0.759,12.644,1.77l5.058,1.77l1.897-7.46c1.897-7.333,1.77-7.586-0.885-8.977
		C431.652,469.474,407.629,469.221,401.56,471.497z"/>
	<path style="fill-rule:evenodd;clip-rule:evenodd;fill:#FFFFFF;" d="M676.944,470.486l-5.437,0.506v42.231v42.104l8.471,1.011
		c12.138,1.264,29.207-0.253,39.196-3.54c6.954-2.276,9.862-4.172,15.552-9.862c8.977-8.977,11.885-16.816,12.012-31.61
		c0-10.747-2.276-20.862-4.552-19.598c-0.632,0.506-0.759,0-0.506-0.885c1.012-2.655-7.207-11.38-14.035-15.173
		c-3.414-1.77-9.609-3.92-13.655-4.678C706.911,469.727,688.703,469.474,676.944,470.486z M714.497,487.681
		c9.862,5.058,14.288,17.069,11.632,31.483c-2.782,14.667-12.518,22.506-27.943,22.506h-7.713v-28.322V484.9l2.908-0.506
		C698.566,483.256,708.807,484.9,714.497,487.681z"/>
	<polygon style="fill-rule:evenodd;clip-rule:evenodd;fill:#FFFFFF;" points="301.041,513.222 301.041,555.579 328.225,555.579 
		355.409,555.579 355.409,547.993 355.409,540.407 337.708,540.407 319.88,540.407 320.259,529.912 320.639,519.544 
		336.191,519.165 351.616,518.786 351.616,511.326 351.616,503.739 335.811,503.739 320.006,503.739 320.006,494.888 
		320.006,486.038 337.076,486.038 354.145,486.038 354.145,478.451 354.145,470.865 327.593,470.865 301.041,470.865 	"/>
	<path style="fill-rule:evenodd;clip-rule:evenodd;fill:#FFFFFF;" d="M470.722,474.279c-0.759,2.023-2.529,7.207-3.92,11.759
		s-6.448,21.368-11.38,37.426c-4.931,16.058-8.977,29.966-8.977,30.725c0,0.885,3.287,1.391,9.357,1.391h9.483l1.897-6.954
		c1.138-3.793,2.402-8.598,2.782-10.747l0.885-3.793h12.897h12.897l3.035,10.368l3.035,10.494l10.368,0.379l10.368,0.379
		l-1.138-3.54c-0.506-1.897-2.529-8.092-4.172-13.655c-1.77-5.563-6.954-22.127-11.38-36.667
		c-4.552-14.667-8.598-27.564-9.104-28.828c-0.759-1.897-2.655-2.149-13.276-2.149C472.113,470.865,471.986,470.865,470.722,474.279
		z M489.561,505.509c2.023,6.954,3.667,13.023,3.667,13.655c0,1.264-17.322,1.391-18.207,0c-0.253-0.506,1.012-6.954,3.035-14.161
		c2.023-7.333,4.046-15.046,4.552-17.069l0.885-3.793l1.264,4.425C485.389,490.969,487.538,498.682,489.561,505.509z"/>
	<polygon style="fill-rule:evenodd;clip-rule:evenodd;fill:#FFFFFF;" points="531.16,513.222 531.16,555.579 557.712,555.579 
		584.264,555.579 584.264,547.993 584.264,540.533 567.575,540.154 550.758,539.774 550.379,505.257 550.126,470.865 
		540.643,470.865 531.16,470.865 	"/>
	<path style="fill-rule:evenodd;clip-rule:evenodd;fill:#FFFFFF;" d="M588.058,495.647c0,40.081,3.161,50.323,17.701,57.783
		c6.448,3.287,7.839,3.54,18.334,3.161c17.575-0.759,26.552-6.828,31.989-21.495c1.391-4.172,2.023-12.518,2.529-34.897
		l0.506-29.334h-9.609h-9.609v25.288c0,28.575-1.138,36.162-6.322,41.725c-3.035,3.287-4.425,3.793-10.115,3.793
		c-5.437,0-7.081-0.632-10.115-3.54c-5.058-5.184-6.322-13.276-6.322-41.978v-25.288h-9.483h-9.483V495.647z"/>
	<path style="fill-rule:evenodd;clip-rule:evenodd;fill:#FFFFFF;" d="M265.385,592.373c-10.874,4.046-13.15,35.15-3.287,45.392
		c3.287,3.54,4.425,3.92,8.471,3.287c8.851-1.391,12.265-8.977,12.012-26.679c-0.126-12.391-2.655-18.587-8.724-21.368
		c-2.276-1.138-4.425-2.023-4.678-1.897C269.051,591.109,267.281,591.741,265.385,592.373z M275.247,600.086
		c1.517,2.782,2.149,7.46,2.276,14.288c0.126,13.403-1.138,19.092-4.931,21.621c-2.908,1.897-3.414,1.897-6.196,0
		c-5.943-3.793-7.586-24.023-2.908-35.277c1.77-3.92,2.655-4.678,5.816-4.678C272.339,596.04,273.603,596.925,275.247,600.086z"/>
	<path style="fill-rule:evenodd;clip-rule:evenodd;fill:#FFFFFF;" d="M461.492,593.89c-5.563,3.667-7.713,9.989-7.713,23.138
		c0,20.736,9.989,30.978,20.23,20.736c4.931-4.931,7.081-14.035,6.196-26.046c-0.759-10.494-3.793-16.816-9.104-19.219
		C466.802,590.477,466.423,590.477,461.492,593.89z M472.872,600.465c2.402,5.058,3.287,21.495,1.517,28.196
		c-0.885,3.287-2.782,6.069-4.678,7.46c-3.035,1.897-3.287,1.897-6.322-1.012c-6.069-6.069-6.701-30.345-0.885-36.794
		C465.664,594.776,470.722,595.787,472.872,600.465z"/>
	<path style="fill-rule:evenodd;clip-rule:evenodd;fill:#FFFFFF;" d="M597.035,592.5c-5.563,2.908-8.219,9.23-8.724,21.115
		c-0.632,13.403,1.138,20.357,6.195,24.656c4.805,4.046,8.724,4.172,13.403,0.253c4.678-3.92,6.701-10.621,6.701-21.874
		c0-12.012-0.885-15.931-4.931-20.483C605.759,591.615,601.207,590.35,597.035,592.5z M607.276,601.097
		c1.517,3.035,2.276,7.46,2.276,13.908c0,11.38-1.77,18.207-5.184,20.736c-7.207,4.931-11.885-4.299-11-21.748
		c0.632-13.403,2.908-18.334,8.345-17.701C604.115,596.546,605.759,597.936,607.276,601.097z"/>
	<path style="fill-rule:evenodd;clip-rule:evenodd;fill:#FFFFFF;" d="M225.177,616.144c0,27.184-0.253,26.552,10.874,24.782
		c7.46-1.012,11.885-6.322,11.885-13.908c0-4.425-0.759-6.195-3.414-8.851c-1.897-1.77-3.92-3.161-4.425-3.161
		c-0.379,0,0.885-1.644,2.908-3.667c3.667-3.667,4.678-8.598,2.908-13.403c-1.264-3.161-7.46-5.69-14.414-5.69h-6.322V616.144z
		 M239.591,598.063c2.655,2.655,2.529,9.736-0.126,12.265c-1.264,1.012-3.793,2.402-5.69,2.782l-3.54,0.885v-8.977v-8.977h3.667
		C235.924,596.04,238.58,596.925,239.591,598.063z M240.729,620.19c3.414,4.172,2.908,11.759-1.138,14.92
		c-1.897,1.517-4.678,2.655-6.322,2.655c-2.908,0-3.035-0.253-3.035-10.874v-11l4.173,0.885
		C236.557,617.155,239.465,618.799,240.729,620.19z"/>
	<path style="fill-rule:evenodd;clip-rule:evenodd;fill:#FFFFFF;" d="M292.19,616.144c0,14.541,0.506,24.15,1.264,24.403
		c0.632,0.126,4.931,0.126,9.483,0c6.069-0.379,8.219-0.885,8.219-2.276c0-1.264-1.77-1.77-6.954-1.77h-6.954v-22.127
		c0-21.242-0.126-22.127-2.529-22.127S292.19,593.132,292.19,616.144z"/>
	<path style="fill-rule:evenodd;clip-rule:evenodd;fill:#FFFFFF;" d="M320.006,616.27c0,23.138,0.126,24.023,2.529,24.023
		s2.529-0.885,2.529-24.023c0-23.138-0.126-24.023-2.529-24.023S320.006,593.132,320.006,616.27z"/>
	<path style="fill-rule:evenodd;clip-rule:evenodd;fill:#FFFFFF;" d="M333.283,593.764c0.253,0.885,2.529,10.747,5.058,21.874
		c6.069,26.552,5.437,24.909,8.598,24.403c1.77-0.253,3.035-1.644,3.667-4.172c1.391-5.563,9.862-42.357,9.862-42.989
		c0-0.379-1.138-0.632-2.402-0.632c-2.908,0-2.782-0.506-7.207,23.012c-2.023,10.242-3.667,18.46-3.793,18.334
		c-0.253-0.126-2.149-9.483-4.425-20.862c-3.92-19.219-4.299-20.483-7.081-20.483C333.915,592.247,332.903,592.879,333.283,593.764z
		"/>
	<path style="fill-rule:evenodd;clip-rule:evenodd;fill:#FFFFFF;" d="M369.318,616.27c0,20.483,0.253,24.023,1.897,24.023
		s1.897-3.54,1.897-24.023s-0.253-24.023-1.897-24.023S369.318,595.787,369.318,616.27z"/>
	<path style="fill-rule:evenodd;clip-rule:evenodd;fill:#FFFFFF;" d="M388.537,615.259c-2.908,12.77-5.31,23.518-5.31,24.023
		c0,0.632,1.012,1.012,2.402,1.012c1.77,0,2.655-1.264,3.161-4.805c1.644-8.977,1.77-9.104,7.713-9.104
		c5.563,0,5.563,0.126,6.954,5.31c0.759,3.034,1.644,6.195,1.897,6.954c0.632,1.77,4.425,2.276,4.425,0.506
		c0-0.506-2.276-11.127-5.058-23.518c-2.782-12.391-5.058-22.633-5.058-22.885s-1.264-0.506-2.908-0.506
		C393.973,592.247,393.468,593.638,388.537,615.259z M399.031,608.557c2.782,13.403,2.655,14.035-2.529,14.035
		c-5.184,0-5.058,0.253-2.529-13.023c1.012-5.437,1.897-10.242,1.897-10.747C395.87,596.166,397.387,600.718,399.031,608.557z"/>
	<path style="fill-rule:evenodd;clip-rule:evenodd;fill:#FFFFFF;" d="M419.893,616.27c0,20.483,0.253,24.023,1.897,24.023
		c1.644,0,1.897-3.035,2.023-19.977v-19.851l3.035,8.219c9.862,27.184,11.632,30.978,14.288,31.357
		c2.782,0.379,2.782,0.253,2.782-23.644c0-20.483-0.253-24.15-1.897-24.15c-1.517,0-1.897,3.414-2.149,19.851l-0.379,19.977
		l-4.805-13.023c-7.46-19.851-10.747-26.805-12.897-26.805C420.146,592.247,419.893,595.661,419.893,616.27z"/>
	<path style="fill-rule:evenodd;clip-rule:evenodd;fill:#FFFFFF;" d="M508.148,613.362l-0.379,21.242l-4.046,1.897
		c-5.943,2.782-5.563,5.563,0.506,4.678c8.471-1.391,9.23-3.667,9.23-27.817c0-20.23-0.126-21.115-2.529-21.115
		C508.527,592.247,508.401,593.258,508.148,613.362z"/>
	<path style="fill-rule:evenodd;clip-rule:evenodd;fill:#FFFFFF;" d="M532.424,593.258c0,0.632-2.023,9.862-4.425,20.61
		c-2.529,10.747-4.805,20.989-5.31,22.885c-0.506,2.782-0.253,3.54,1.391,3.54c2.276,0,2.402-0.379,4.552-8.598
		c1.391-5.184,1.391-5.31,6.954-5.31c5.31,0,5.563,0.126,6.828,4.678c0.759,2.655,1.391,5.816,1.391,6.954
		c0,1.391,1.011,2.276,2.529,2.276c1.391,0,2.529-0.506,2.529-1.012c0-0.759-7.46-35.529-9.483-44.254
		c-0.506-1.897-1.644-2.782-3.793-2.782C533.815,592.247,532.424,592.753,532.424,593.258z M538.114,608.178
		c2.655,14.288,2.655,14.414-2.529,14.414c-3.161,0-4.425-0.506-4.425-2.023c0-2.908,4.173-23.391,4.552-22.885
		C535.965,597.936,536.976,602.615,538.114,608.178z"/>
	<path style="fill-rule:evenodd;clip-rule:evenodd;fill:#FFFFFF;" d="M558.977,616.27c0,20.483,0.253,24.023,1.897,24.023
		c1.012,0,1.897-1.012,2.023-2.276c0-1.138,0.126-5.563,0.253-9.736l0.253-7.586l4.931-0.759c3.414-0.506,6.196-2.149,8.724-4.931
		c3.287-3.667,3.667-4.805,3.035-10.494c-0.759-8.851-4.805-12.265-14.288-12.265h-6.828V616.27z M573.391,598.822
		c1.138,1.517,2.023,4.931,2.023,7.586c0,5.943-3.54,9.862-8.851,9.862h-3.793v-10.115V596.04h4.299
		C570.23,596.04,572,596.925,573.391,598.822z"/>
	<path style="fill-rule:evenodd;clip-rule:evenodd;fill:#FFFFFF;" d="M624.725,616.27c0,20.483,0.253,24.023,1.897,24.023
		c1.644,0,1.897-3.035,1.897-19.977l0.126-19.851l4.172,11.38c9.736,26.299,10.495,27.817,13.276,28.196
		c2.655,0.379,2.655,0.126,2.655-23.644c0-20.61-0.253-24.15-1.897-24.15c-1.897,0-2.529,9.862-1.897,31.863
		c0.126,4.046,0,7.333-0.379,7.333c-0.253,0-3.793-8.851-7.966-19.598c-5.69-14.92-7.966-19.598-9.609-19.598
		C624.852,592.247,624.725,594.27,624.725,616.27z"/>
	<path style="fill-rule:evenodd;clip-rule:evenodd;fill:#FFFFFF;" d="M660.128,616.27v24.023h9.483c7.586,0,9.483-0.379,9.483-1.897
		s-1.644-1.897-6.954-1.897h-6.954v-9.483v-9.483h6.322c4.805,0,6.322-0.506,6.322-1.897c0-1.391-1.517-1.897-6.322-1.897h-6.322
		v-8.851v-8.851h6.322c4.805,0,6.322-0.506,6.322-1.897c0-1.517-1.77-1.897-8.851-1.897h-8.851V616.27z"/>
	<path style="fill-rule:evenodd;clip-rule:evenodd;fill:#FFFFFF;" d="M690.347,595.913c-6.322,6.322-4.805,12.391,5.437,21.621
		c5.31,4.805,6.322,6.448,6.448,10.368c0.126,6.828-2.149,8.851-9.483,8.345c-5.058-0.253-6.069,0-6.069,1.77
		c0,2.529,6.954,4.299,11.253,2.908c5.31-1.644,8.977-6.701,8.977-12.265c0-4.931-4.046-13.655-6.322-13.655
		c-0.506,0-2.782-1.77-4.931-4.046c-6.954-7.207-4.425-14.92,5.058-14.92c3.54,0,4.931-0.506,4.931-1.897s-1.517-1.897-5.816-1.897
		C695.152,592.247,693.382,592.879,690.347,595.913z"/>
	<path style="fill-rule:evenodd;clip-rule:evenodd;fill:#FFFFFF;" d="M724.612,592.753c0,0.253-2.276,10.368-5.058,22.633
		c-5.69,25.035-5.69,24.909-3.161,24.909c1.77,0,4.425-7.081,4.425-11.759c0-1.77,1.138-2.149,6.196-2.149h6.322l1.517,6.954
		c1.264,5.563,2.023,6.954,4.046,6.954c1.897,0,2.276-0.632,1.77-2.908c-0.379-1.517-2.782-12.265-5.437-24.023
		c-4.425-19.851-4.931-21.115-7.713-21.115C725.876,592.247,724.612,592.5,724.612,592.753z M730.302,609.948
		c2.655,12.897,2.655,12.644-3.287,12.644c-4.299,0-5.058-0.379-4.552-2.276c0.379-1.138,1.264-5.31,2.149-9.104
		C727.773,595.534,727.394,595.661,730.302,609.948z"/>
	<path style="fill-rule:evenodd;clip-rule:evenodd;fill:#FFFFFF;" d="M285.615,660.145c-2.023,0.506-2.276,2.782-2.276,24.529
		v23.897h5.816c12.265,0,18.207-7.966,18.207-24.403c0-10.747-1.77-16.437-6.448-20.61
		C297.88,660.777,289.661,659.007,285.615,660.145z M295.351,665.076c5.31,2.529,6.954,6.954,6.954,19.092
		c0,14.288-3.667,20.61-11.885,20.61h-3.287V684.8c0-11,0.379-20.483,0.885-20.862C289.282,662.673,290.799,662.8,295.351,665.076z"
		/>
	<path style="fill-rule:evenodd;clip-rule:evenodd;fill:#FFFFFF;" d="M368.686,660.524c-6.954,2.782-12.012,12.77-12.012,23.644
		c0,9.862,2.023,16.564,6.322,20.862c3.035,2.908,4.678,3.54,9.989,3.54c4.931,0,6.448-0.506,6.448-1.897
		c0-1.391-1.391-1.897-4.805-1.897c-8.092,0-12.897-7.46-12.897-20.23c0-12.644,4.552-20.23,12.138-20.23
		c4.552,0,6.828-2.149,4.173-3.92C375.893,659.007,372.099,659.133,368.686,660.524z"/>
	<path style="fill-rule:evenodd;clip-rule:evenodd;fill:#FFFFFF;" d="M393.215,661.156c-5.31,2.908-8.092,11-8.092,23.391
		c0,13.023,2.655,20.104,8.724,23.391c3.92,2.149,4.299,2.149,8.598,0.126c14.414-6.954,11.759-49.058-3.035-48.806
		C397.767,659.386,394.985,660.145,393.215,661.156z M400.801,664.317c3.92,2.023,5.816,8.724,5.69,20.23
		c0,14.035-2.529,20.23-7.966,20.23c-2.908,0-4.299-0.885-5.69-3.667c-4.805-9.23-3.414-32.242,2.149-36.162
		C398.146,662.673,398.019,662.673,400.801,664.317z"/>
	<path style="fill-rule:evenodd;clip-rule:evenodd;fill:#FFFFFF;" d="M426.342,662.421c-2.023,1.77-4.425,5.31-5.31,7.839
		c-2.149,6.701-1.77,24.15,0.759,30.345c4.299,10.874,16.437,11.38,21.621,0.885c3.287-6.701,3.414-28.196,0.126-34.265
		C439.112,659.007,432.664,657.11,426.342,662.421z M439.112,668.49c1.012,1.644,1.644,7.713,1.644,15.426
		c0,15.299-1.77,19.977-7.713,20.61c-3.414,0.379-4.173-0.253-6.196-4.425c-2.782-5.69-3.161-22.633-0.759-29.84
		C428.618,662.547,435.319,661.662,439.112,668.49z"/>
	<path style="fill-rule:evenodd;clip-rule:evenodd;fill:#FFFFFF;" d="M460.101,660.145l-3.54,0.506v22.759
		c0,12.391,0,23.012-0.126,23.518c0,0.632,0.885,1.138,1.897,1.391c1.517,0.379,2.023-1.391,2.276-9.483l0.379-9.862l4.678-0.759
		c5.437-0.885,8.092-2.782,10.621-7.586c3.793-7.46,0.759-17.954-5.69-19.472C464.653,659.765,463.515,659.639,460.101,660.145z
		 M470.975,667.225c1.77,2.149,2.149,4.046,1.644,8.219c-0.632,6.069-3.414,8.977-8.724,9.104h-3.54v-9.989
		c0-6.828,0.506-10.242,1.644-10.621C464.527,662.926,468.446,664.317,470.975,667.225z"/>
	<path style="fill-rule:evenodd;clip-rule:evenodd;fill:#FFFFFF;" d="M488.424,660.271c-1.138,0.379-1.517,6.448-1.517,24.403
		v23.897h9.483c7.586,0,9.483-0.379,9.483-1.897s-1.644-1.897-6.954-1.897h-7.081l0.379-9.862l0.379-9.736l6.069-0.379
		c4.173-0.253,5.943-0.885,5.943-2.276c0-1.264-1.644-1.77-6.322-1.77h-6.322v-8.219v-8.219h6.196c5.943,0,9.862-1.897,6.196-3.035
		C501.7,660.397,490.194,659.639,488.424,660.271z"/>
	<path style="fill-rule:evenodd;clip-rule:evenodd;fill:#FFFFFF;" d="M518.895,660.271l-4.172,0.379v24.023
		c0,23.012,0.126,23.897,2.529,23.897c2.276,0,2.529-0.885,2.529-10.747c0-10.494,0-10.747,3.035-10.747
		c4.552,0,6.701,2.908,8.345,11.127c0.759,3.92,1.644,7.966,1.897,8.724c0.759,2.149,4.425,2.023,4.425-0.126
		c0-5.058-2.908-15.805-5.058-18.713c-2.529-3.414-2.529-3.414-0.126-4.805c3.161-1.644,5.563-9.104,4.552-13.782
		C535.333,662.547,528.631,659.133,518.895,660.271z M529.896,666.34c2.655,2.655,2.402,11.127-0.506,14.288
		c-1.391,1.517-3.92,2.655-6.069,2.655h-3.54v-9.23c0-5.184,0.379-9.736,0.885-10.242C521.93,662.547,527.62,664.064,529.896,666.34
		z"/>
	<path style="fill-rule:evenodd;clip-rule:evenodd;fill:#FFFFFF;" d="M589.575,660.524c-4.046,1.644-8.851,7.46-10.368,12.644
		c-1.77,6.322-1.517,20.862,0.506,25.794c2.655,6.448,7.586,9.609,14.92,9.609c4.425,0,6.069-0.506,5.816-1.644
		c-0.379-0.759-1.897-1.644-3.667-1.897c-7.207-0.759-8.598-1.644-11.127-6.954c-4.805-9.862-2.529-29.207,3.793-32.495
		c1.264-0.759,3.92-1.264,6.069-1.264c4.172,0,5.437-2.908,1.897-4.299C594.885,659.007,593.115,659.133,589.575,660.524z"/>
	<path style="fill-rule:evenodd;clip-rule:evenodd;fill:#FFFFFF;" d="M633.576,660.145c-6.828,2.529-10.874,14.414-9.736,28.955
		c1.391,19.092,12.897,26.679,22.127,14.667c3.035-4.046,3.414-5.69,3.92-16.564c0.253-6.701-0.253-14.035-1.012-16.816
		C646.22,661.915,640.151,657.742,633.576,660.145z M643.312,669.248c2.529,6.069,2.529,24.656-0.126,30.851
		c-1.644,3.92-2.529,4.678-5.69,4.678c-3.035,0-4.299-0.885-5.943-3.92c-4.552-8.851-3.793-29.587,1.391-34.771
		C636.863,662.168,640.909,663.306,643.312,669.248z"/>
	<path style="fill-rule:evenodd;clip-rule:evenodd;fill:#FFFFFF;" d="M317.478,684.547v24.023h9.483
		c7.586,0,9.483-0.379,9.483-1.897s-1.644-1.897-6.954-1.897h-6.954v-10.115v-10.115h5.69c4.172,0,5.69-0.506,5.69-1.897
		c0-1.391-1.517-1.897-5.69-1.897h-5.69v-8.219v-8.219h6.322c4.805,0,6.322-0.506,6.322-1.897c0-1.517-1.77-1.897-8.851-1.897
		h-8.851V684.547z"/>
	<path style="fill-rule:evenodd;clip-rule:evenodd;fill:#FFFFFF;" d="M550.379,683.536c-2.908,12.77-5.31,23.518-5.31,24.023
		c0,0.632,1.012,1.012,2.276,1.012c1.77,0,2.655-1.644,3.793-7.586l1.644-7.586h5.563c5.943,0,6.069,0.126,7.713,9.23
		c0.759,4.552,3.414,7.333,5.184,5.563c0.379-0.506-1.138-9.23-3.414-19.472c-6.448-29.46-6.069-28.196-9.357-28.196
		C555.816,660.524,555.31,661.915,550.379,683.536z M561.379,678.858c1.138,5.943,1.897,11.127,1.517,11.38
		c-0.253,0.379-2.402,0.632-4.805,0.632c-2.908,0-4.172-0.632-4.172-2.023c0-3.793,4.299-23.644,4.805-22.253
		C558.977,667.478,560.241,673.041,561.379,678.858z"/>
	<path style="fill-rule:evenodd;clip-rule:evenodd;fill:#FFFFFF;" d="M609.299,662.547c-0.253,1.138-0.253,12.012,0,24.15
		c0.379,19.977,0.632,22,2.529,21.621c1.138-0.253,2.023-0.885,1.897-1.391c-0.253-0.506-0.379-11.127-0.379-23.644
		c0-18.839-0.253-22.759-1.77-22.759C610.564,660.524,609.552,661.409,609.299,662.547z"/>
	<path style="fill-rule:evenodd;clip-rule:evenodd;fill:#FFFFFF;" d="M660.128,684.421c0,20.61,0.253,24.15,1.897,24.15
		c1.644,0,1.897-3.161,1.897-20.61l0.126-20.483l7.586,19.598c4.172,10.747,8.092,20.104,8.724,20.736s1.897,0.759,2.782,0.506
		c1.264-0.506,1.517-5.69,1.264-24.276c-0.253-20.23-0.632-23.518-2.276-23.518c-1.77,0-1.897,2.529-1.517,19.472
		c0.126,10.747,0.126,19.219-0.126,18.966c-0.253-0.253-3.793-8.851-7.839-19.219c-5.816-14.92-7.839-18.713-9.862-18.966
		C660.128,660.397,660.128,660.777,660.128,684.421z"/>
	<path style="fill-rule:evenodd;clip-rule:evenodd;fill:#FFFFFF;" d="M401.56,725.261c-0.632,1.77-10.747,46.403-10.747,47.288
		c0,0.253,1.012,0.506,2.276,0.506c1.77,0,2.655-1.77,3.92-7.586l1.644-7.586h6.069h6.069l0.885,5.816
		c1.138,8.092,1.77,9.357,4.678,9.357c1.77,0,2.276-0.632,1.77-2.276c-0.379-1.138-2.782-11.253-5.184-22.38
		c-2.529-11.127-4.805-21.242-5.184-22.506C406.997,723.364,402.445,722.985,401.56,725.261z M407.25,741.445
		c0.885,5.184,1.897,10.242,2.149,11c0.506,1.138-0.885,1.644-4.678,1.644c-5.31,0-5.31,0-4.552-3.793
		c0.379-2.149,1.391-7.586,2.276-12.012c0.759-4.552,1.897-7.839,2.276-7.333C405.227,731.583,406.364,736.261,407.25,741.445z"/>
	<path style="fill-rule:evenodd;clip-rule:evenodd;fill:#FFFFFF;" d="M427.48,748.399c0,21.115,0.253,24.656,1.897,24.656
		s1.897-3.161,1.897-20.61l0.126-20.483l6.954,18.334c3.92,10.115,7.333,19.345,7.713,20.483c0.379,1.264,1.77,2.276,3.035,2.276
		c2.276,0,2.402-1.391,2.402-24.656c0-20.862-0.253-24.656-1.897-24.656c-1.517,0-1.897,3.287-2.149,19.725l-0.379,19.724
		l-7.46-19.724c-5.943-15.426-8.092-19.725-9.862-19.725C427.606,723.744,427.48,725.514,427.48,748.399z"/>
	<path style="fill-rule:evenodd;clip-rule:evenodd;fill:#FFFFFF;" d="M463.389,725.387c-0.253,0.885-0.379,11.885-0.253,24.276
		l0.379,22.759h6.322c13.023-0.126,19.092-9.23,18.081-26.805c-0.759-11.885-3.287-17.575-9.23-20.104
		C473.251,723.238,464.274,723.238,463.389,725.387z M479.193,731.583c2.908,4.172,3.667,7.081,3.793,15.552
		c0.253,13.782-4.299,22.127-12.012,22.127h-3.035v-20.989v-21.115l4.552,0.759C475.274,728.422,477.929,729.813,479.193,731.583z"
		/>
	<path style="fill-rule:evenodd;clip-rule:evenodd;fill:#FFFFFF;" d="M498.286,748.399c0,23.771,0.126,24.656,2.529,24.656
		s2.529-0.885,2.529-24.656c0-23.771-0.126-24.656-2.529-24.656S498.286,724.629,498.286,748.399z"/>
	<path style="fill-rule:evenodd;clip-rule:evenodd;fill:#FFFFFF;" d="M514.723,748.399c0,21.115,0.253,24.656,1.897,24.656
		c1.644,0,1.897-3.161,1.897-20.61l0.126-20.483l6.701,17.828c8.092,21.115,9.104,23.265,11.506,23.265
		c1.644,0,1.897-3.793,1.897-24.656c0-20.862-0.253-24.656-1.897-24.656c-1.517,0-1.897,3.414-2.149,19.851l-0.379,19.977
		l-2.276-6.322c-7.713-21.748-12.897-33.506-15.046-33.506C514.849,723.744,514.723,725.64,514.723,748.399z"/>
	<path style="fill-rule:evenodd;clip-rule:evenodd;fill:#FFFFFF;" d="M558.471,725.893c-0.379,1.264-2.655,11.38-5.184,22.506
		c-2.529,11.127-4.805,21.242-5.184,22.38c-0.506,1.644,0,2.276,1.897,2.276c2.023,0,2.782-1.264,4.046-7.586l1.517-7.586h5.943
		h5.943l1.517,7.586c1.264,6.322,1.897,7.586,4.172,7.586c2.023,0,2.402-0.506,1.77-2.908c-0.379-1.517-2.908-12.644-5.437-24.656
		c-4.425-20.104-4.931-21.748-7.586-21.748C560.367,723.744,558.85,724.755,558.471,725.893z M563.781,738.537
		c0.759,4.805,1.77,10.368,2.149,12.391c0.885,3.92,0.885,3.92-4.299,3.414c-2.908-0.253-5.184-0.885-5.184-1.391
		c0-0.379,0.885-4.172,1.897-8.345c1.012-4.172,1.77-9.104,1.897-11.127C560.241,727.157,562.264,729.939,563.781,738.537z"/>
	<path style="fill-rule:evenodd;clip-rule:evenodd;fill:#FFFFFF;" d="M248.948,123.916c-3.035,1.517-3.54,2.655-3.54,7.081
		c0,10.115,9.862,19.598,16.69,16.058c3.793-2.023,4.805-3.54,4.805-7.839c0-4.299-2.529-9.483-6.575-13.023
		C256.281,122.398,252.867,121.766,248.948,123.916z"/>
	<path style="fill-rule:evenodd;clip-rule:evenodd;fill:#FFFFFF;" d="M747.371,147.433c-1.011,1.644-1.644,3.287-1.517,3.793
		c0.126,0.632-0.253,0.885-0.885,0.632c-1.517-0.379-11.759,12.897-10.874,14.288c0.506,0.759,2.529,2.149,4.552,3.287
		c5.184,2.655,10.242,1.264,15.046-4.046c4.931-5.69,5.058-11.38,0.506-16.816C750.279,143.893,749.773,143.767,747.371,147.433z"/>
	<path style="fill-rule:evenodd;clip-rule:evenodd;fill:#FFFFFF;" d="M188.636,170.825l-2.782,2.276l4.425,4.299l4.299,4.173
		l2.149-3.161c1.138-1.77,1.897-4.552,1.644-6.196C197.866,168.422,192.556,167.664,188.636,170.825z"/>
	<path style="fill-rule:evenodd;clip-rule:evenodd;fill:#FFFFFF;" d="M811.349,213.688c-3.414,3.035-3.54,3.287-1.391,5.563
		c2.276,2.529,5.184,3.161,8.724,1.77c3.793-1.517,1.77-10.747-2.276-10.621C815.648,210.4,813.372,211.917,811.349,213.688z"/>
	<path style="fill-rule:evenodd;clip-rule:evenodd;fill:#FFFFFF;" d="M831.706,252.125c-3.54,2.276-6.196,4.931-6.701,6.954
		c-3.161,12.517,11.253,15.931,20.862,5.058c4.552-5.184,4.931-9.736,1.391-13.276S838.66,247.7,831.706,252.125z"/>
	<path style="fill-rule:evenodd;clip-rule:evenodd;fill:#FFFFFF;" d="M866.224,293.597c-2.402,1.138-4.552,2.149-4.805,2.276
		c-1.012,0.506,2.908,6.828,4.552,7.46c5.31,2.023,9.23-3.287,6.322-8.598C870.649,291.701,870.523,291.701,866.224,293.597z"/>
	<path style="fill-rule:evenodd;clip-rule:evenodd;fill:#FFFFFF;" d="M629.783,850.562c-7.713,3.92-11.253,16.437-6.954,24.909
		c6.575,12.897,28.322,11.632,33.506-1.897c2.149-5.563,1.517-12.517-1.644-17.196c-3.667-5.563-7.586-7.46-15.426-7.46
		C635.852,848.918,631.553,849.677,629.783,850.562z"/>
</g>
</svg>
