<?xml version="1.0" encoding="iso-8859-1"?>
<!-- Generator: Adobe Illustrator 18.0.0, SVG Export Plug-In . SVG Version: 6.00 Build 0)  -->
<!DOCTYPE svg PUBLIC "-//W3C//DTD SVG 1.1//EN" "http://www.w3.org/Graphics/SVG/1.1/DTD/svg11.dtd">
<svg version="1.1" id="Layer_1" xmlns="http://www.w3.org/2000/svg" xmlns:xlink="http://www.w3.org/1999/xlink" x="0px" y="0px"
	 viewBox="0 0 960 960" style="enable-background:new 0 0 960 960;" xml:space="preserve">
<g>
	<path style="fill-rule:evenodd;clip-rule:evenodd;fill:#0F73B3;" d="M190.021,59.833c-17.37,8.261-26.479,21.818-26.479,39.824
		c0,18.217,12.922,31.986,40.883,43.001c19.276,7.838,24.784,12.498,24.784,20.759c0,3.813-0.847,7.838-1.695,9.109
		c-5.296,8.049-26.267,9.956-46.179,4.025c-6.567-1.906-12.286-2.966-12.922-2.542c-1.695,1.695-6.779,23.301-5.931,24.784
		c2.33,3.601,27.961,8.685,43.637,8.685c13.769,0,19.276-1.059,29.021-5.508c6.567-2.966,13.769-7.202,16.099-9.109
		c10.591-9.532,15.464-36.223,8.685-48.932c-4.872-9.532-19.276-20.547-34.74-26.69c-21.183-8.473-27.114-12.71-28.173-20.336
		c-1.906-12.286,13.769-19.065,34.528-14.616c19.488,4.025,19.065,4.237,22.242-6.355c1.695-5.296,2.966-11.015,2.966-12.922
		c0-5.084-15.04-8.261-37.494-8.261C204.002,54.749,198.706,55.808,190.021,59.833z"/>
	<path style="fill-rule:evenodd;clip-rule:evenodd;fill:#0F73B3;" d="M331.099,58.986c-33.681,12.074-49.568,35.799-49.568,74.14
		c0,17.158,0.635,21.818,5.296,31.986c7.626,16.734,18.429,27.75,33.893,34.952c12.286,5.719,15.252,6.143,38.765,6.143
		c27.75,0,37.07-1.695,37.07-6.355c0-1.695-1.059-7.626-2.33-13.557l-2.118-10.38l-7.838,2.118
		c-4.237,1.271-15.04,1.695-23.725,1.271c-12.71-0.847-17.794-2.118-24.996-6.779c-12.286-7.626-19.488-22.666-19.488-40.671
		c0-32.833,17.794-50.839,49.78-50.203c8.261,0,17.37,1.059,20.547,2.33c5.508,2.33,5.931,2.118,7.838-5.508
		c5.296-19.912,5.508-18.429-3.601-21.183C377.278,53.266,344.444,54.114,331.099,58.986z"/>
	<polygon style="fill-rule:evenodd;clip-rule:evenodd;fill:#0F73B3;" points="49.155,131.008 49.155,205.148 95.757,205.148 
		142.36,205.148 142.36,192.438 142.36,179.94 112.28,179.305 81.988,178.669 81.353,160.028 80.717,141.599 108.467,141.599 
		136.005,141.599 136.005,128.254 136.005,115.12 109.102,115.12 81.988,115.12 81.988,99.233 81.988,83.346 111.221,82.711 
		140.241,82.075 140.241,69.577 140.241,56.868 94.698,56.868 49.155,56.868 	"/>
	<path style="fill-rule:evenodd;clip-rule:evenodd;fill:#0F73B3;" d="M420.279,110.248c0.635,46.602,1.271,54.864,4.872,63.125
		c5.931,14.404,13.557,22.878,25.843,28.809c10.38,5.084,12.922,5.508,31.774,4.66c23.937-1.059,34.316-5.084,44.908-18.005
		c12.286-14.828,13.557-21.818,14.616-79.648l0.847-52.322h-16.946h-17.158l-0.635,52.322c-0.635,57.617-1.483,61.43-14.404,69.268
		c-12.074,6.99-25.419,3.601-33.893-8.685c-5.296-7.626-5.296-8.261-5.931-60.371l-0.635-52.534h-17.158h-16.946L420.279,110.248z"
		/>
	<polygon style="fill-rule:evenodd;clip-rule:evenodd;fill:#0F73B3;" points="572.372,131.008 572.372,205.148 620.033,205.148 
		667.695,205.148 667.695,192.438 667.695,179.728 636.98,179.728 606.264,179.728 606.264,160.664 606.264,141.599 
		633.802,141.599 661.34,141.599 661.34,128.889 661.34,116.391 634.438,115.756 607.324,115.12 606.688,98.598 606.053,82.287 
		634.861,82.287 663.458,82.287 663.458,69.577 663.458,56.868 617.915,56.868 572.372,56.868 	"/>
	<polygon style="fill-rule:evenodd;clip-rule:evenodd;fill:#0F73B3;" points="690.996,131.008 690.996,205.148 737.598,205.148 
		784.201,205.148 784.201,191.379 784.201,177.61 754.545,177.61 724.889,177.61 724.889,117.239 724.889,56.868 707.942,56.868 
		690.996,56.868 	"/>
	<path style="fill-rule:evenodd;clip-rule:evenodd;fill:#0F73B3;" d="M834.828,78.474c-3.601,12.074-10.168,33.681-14.616,48.297
		c-12.922,41.73-23.301,76.047-23.301,77.317c0,0.635,7.626,1.059,16.734,1.059h16.946l3.177-11.227
		c1.695-5.931,4.025-14.404,4.872-18.429l1.906-7.414l22.242-0.635l22.03-0.635l5.296,18.429c2.966,9.956,6.355,18.641,7.626,19.276
		c1.271,0.424,9.532,0.635,18.217,0.212l15.887-0.635l-22.878-73.081l-22.666-73.081l-22.454-0.635l-22.242-0.635L834.828,78.474z
		 M870.839,110.037c3.601,13.557,6.99,26.055,7.838,27.961c1.059,3.177-0.847,3.601-15.675,3.601h-17.158l4.237-14.404
		c2.33-7.838,5.719-21.183,7.626-29.656c1.906-8.473,4.237-14.616,5.084-13.769C863.636,84.617,867.237,96.479,870.839,110.037z"/>
	<path style="fill-rule:evenodd;clip-rule:evenodd;fill:#0F73B3;" d="M357.366,234.804c-24.996,5.296-45.331,21.183-55.287,43.001
		c-5.296,11.651-6.143,15.464-6.143,34.316c0,19.912,0.424,22.242,6.99,35.375c13.133,26.69,37.07,39.824,72.445,39.824
		c13.557,0,33.257-3.601,34.952-6.355c0.635-0.847,0-6.99-1.271-13.345c-2.542-11.862-2.542-11.862-9.109-10.38
		c-3.601,0.847-13.769,1.483-22.454,1.483c-13.557,0-17.37-0.847-25.843-5.719c-13.769-8.261-20.759-22.454-20.759-42.789
		c0.212-38.977,27.75-57.194,70.327-46.814c5.296,1.483,5.719,0.847,8.049-7.626c1.271-5.084,2.754-10.803,3.389-12.71
		c0.635-2.542-1.059-4.237-5.931-5.931C397.401,233.745,367.957,232.474,357.366,234.804z"/>
	<path style="fill-rule:evenodd;clip-rule:evenodd;fill:#0F73B3;" d="M717.263,234.804c-22.03,4.66-44.272,21.818-54.016,41.307
		c-4.448,9.532-5.084,13.345-5.084,36.011c0,22.03,0.635,26.69,4.66,34.952c10.38,20.547,27.538,33.257,51.051,38.341
		c13.769,2.754,46.391,1.483,53.381-2.33c4.025-2.118,4.448-3.601,3.177-13.345c-0.847-6.143-2.118-11.651-2.966-12.498
		c-0.847-0.847-4.66-0.635-8.685,0.424c-18.853,5.508-42.366,0.635-54.44-11.015c-16.099-15.675-17.794-49.992-3.389-69.056
		c8.897-11.862,20.336-16.311,39.824-15.887c9.32,0.212,19.276,0.635,22.03,1.059c4.237,0.635,5.296-0.635,7.838-8.897
		c3.813-12.922,3.813-13.769-2.33-16.523C761.323,234.168,728.066,232.474,717.263,234.804z"/>
	<polygon style="fill-rule:evenodd;clip-rule:evenodd;fill:#0F73B3;" points="42.8,248.573 42.8,262.13 62.5,262.765 
		81.988,263.401 82.624,324.195 83.047,385.202 98.935,385.202 114.822,385.202 115.245,324.195 115.881,263.401 136.64,262.765 
		157.188,262.13 157.188,248.573 157.188,234.804 99.994,234.804 42.8,234.804 	"/>
	<polygon style="fill-rule:evenodd;clip-rule:evenodd;fill:#0F73B3;" points="180.489,310.003 180.489,385.202 227.091,385.202 
		273.693,385.202 273.693,371.433 273.693,357.664 242.978,357.664 212.263,357.664 212.263,339.659 212.263,321.653 
		239.801,321.653 267.338,321.653 267.338,307.885 267.338,294.116 239.801,294.116 212.263,294.116 212.263,278.229 
		212.263,262.341 241.919,262.341 271.575,262.341 271.575,248.573 271.575,234.804 226.032,234.804 180.489,234.804 	"/>
	<path style="fill-rule:evenodd;clip-rule:evenodd;fill:#0F73B3;" d="M438.92,310.003v75.199h14.828h15.04l-0.635-55.075
		c-0.424-30.292,0-55.075,1.059-55.075c0.847,0,1.483,1.271,1.695,2.542c0,4.237,13.769,31.563,35.799,71.174l20.124,36.435h17.582
		h17.37v-75.199v-75.199h-15.04h-15.04l0.847,52.957c0.212,29.021,0,52.11-0.635,51.263c-0.635-0.847-3.389-6.779-5.931-13.133
		s-14.404-29.232-26.479-50.839l-21.818-39.188l-19.276-0.635l-19.488-0.635V310.003z"/>
	<polygon style="fill-rule:evenodd;clip-rule:evenodd;fill:#0F73B3;" points="595.673,310.003 595.673,385.202 612.619,385.202 
		629.566,385.202 629.566,310.003 629.566,234.804 612.619,234.804 595.673,234.804 	"/>
	<path style="fill-rule:evenodd;clip-rule:evenodd;fill:#0F73B3;" d="M824.448,273.357c-6.355,21.395-14.616,48.721-18.429,61.007
		s-8.897,28.809-11.015,36.646l-4.237,14.404l17.37-0.635l17.37-0.635l4.872-18.641l5.084-18.429h22.03h22.03l5.719,19.065
		l5.931,19.065h17.37c9.744,0,17.582-0.635,17.582-1.695c0-0.847-10.38-34.316-22.878-74.564l-22.878-73.081l-22.03-0.635
		l-22.242-0.424L824.448,273.357z M868.085,299.2c2.754,9.32,5.084,18.005,5.084,19.7c0,2.118-4.025,2.754-15.887,2.754
		c-8.685,0-15.887-0.424-15.887-1.271c0-0.635,2.754-11.651,6.143-24.784c3.389-13.133,6.779-26.69,7.626-30.08
		c1.483-6.143,1.695-5.931,4.66,5.296C861.518,277.169,865.331,290.091,868.085,299.2z"/>
	<path style="fill-rule:evenodd;clip-rule:evenodd;fill:#0F73B3;" d="M54.027,414.223l-9.109,0.847v70.751v70.539l14.193,1.695
		c20.759,2.118,48.297-0.212,65.243-5.719c12.074-4.025,16.946-6.99,26.479-16.734c15.252-15.252,20.124-27.961,20.124-54.016
		c0-16.523-0.847-20.547-5.931-31.139C149.562,418.883,117.787,408.503,54.027,414.223z M116.94,443.243
		c14.404,7.202,20.124,18.641,19.912,40.459c0,12.922-1.059,18.853-4.448,25.419c-8.897,16.734-22.03,24.36-43.001,24.36h-12.71
		v-47.45v-47.661l4.872-0.847C90.038,435.617,107.196,438.583,116.94,443.243z"/>
	<path style="fill-rule:evenodd;clip-rule:evenodd;fill:#0F73B3;" d="M355.247,415.917c-17.794,6.779-30.292,26.267-27.961,43.637
		c1.906,13.981,10.591,22.666,34.74,34.74c26.055,13.133,28.173,14.616,28.173,23.301c0,14.616-19.065,19.912-44.484,11.862
		c-7.414-2.33-13.981-4.025-14.193-3.601c-0.424,0.424-1.906,6.143-3.177,12.71c-2.966,14.193-2.754,14.616,15.252,18.429
		c18.217,3.813,43.425,1.483,56.135-5.084c22.03-11.439,29.868-37.706,17.582-58.253c-5.084-8.473-15.04-14.828-33.257-21.818
		c-14.404-5.508-25.631-14.193-25.631-19.7c0-2.118,2.33-5.931,5.296-8.685c4.237-4.448,7.202-5.296,17.582-5.296
		c6.99,0,16.523,1.271,21.183,2.966l8.473,2.966l3.177-12.498c3.177-12.286,2.966-12.71-1.483-15.04
		C405.663,412.528,365.415,412.104,355.247,415.917z"/>
	<path style="fill-rule:evenodd;clip-rule:evenodd;fill:#0F73B3;" d="M816.61,414.223l-9.109,0.847v70.751v70.539l14.193,1.695
		c20.336,2.118,48.932-0.424,65.667-5.931c11.651-3.813,16.523-6.99,26.055-16.523c15.04-15.04,19.912-28.173,20.124-52.957
		c0-18.005-3.813-34.952-7.626-32.833c-1.059,0.847-1.271,0-0.847-1.483c1.695-4.448-12.074-19.065-23.513-25.419
		c-5.719-2.966-16.099-6.567-22.878-7.838C866.814,412.952,836.31,412.528,816.61,414.223z M879.524,443.031
		c16.523,8.473,23.937,28.597,19.488,52.745c-4.66,24.572-20.971,37.706-46.814,37.706h-12.922v-47.45v-47.661l4.872-0.847
		C852.833,435.617,869.991,438.371,879.524,443.031z"/>
	<polygon style="fill-rule:evenodd;clip-rule:evenodd;fill:#0F73B3;" points="186.844,485.821 186.844,556.783 232.387,556.783 
		277.93,556.783 277.93,544.074 277.93,531.364 248.274,531.364 218.406,531.364 219.042,513.782 219.677,496.412 245.732,495.777 
		271.575,495.141 271.575,482.643 271.575,469.934 245.096,469.934 218.618,469.934 218.618,455.106 218.618,440.278 
		247.215,440.278 275.812,440.278 275.812,427.568 275.812,414.858 231.328,414.858 186.844,414.858 	"/>
	<path style="fill-rule:evenodd;clip-rule:evenodd;fill:#0F73B3;" d="M471.118,420.577c-1.271,3.389-4.237,12.074-6.567,19.7
		c-2.33,7.626-10.803,35.799-19.065,62.701c-8.261,26.902-15.04,50.203-15.04,51.474c0,1.483,5.508,2.33,15.675,2.33h15.887
		l3.177-11.651c1.906-6.355,4.025-14.404,4.66-18.005l1.483-6.355h21.607h21.607l5.084,17.37l5.084,17.582l17.37,0.635l17.37,0.635
		l-1.906-5.931c-0.847-3.177-4.237-13.557-6.99-22.878c-2.966-9.32-11.651-37.07-19.065-61.43
		c-7.626-24.572-14.404-46.179-15.252-48.297c-1.271-3.177-4.448-3.601-22.242-3.601
		C473.448,414.858,473.236,414.858,471.118,420.577z M502.68,472.899c3.389,11.651,6.143,21.818,6.143,22.878
		c0,2.118-29.021,2.33-30.503,0c-0.424-0.847,1.695-11.651,5.084-23.725c3.389-12.286,6.779-25.208,7.626-28.597l1.483-6.355
		l2.118,7.414C495.69,448.539,499.291,461.46,502.68,472.899z"/>
	<polygon style="fill-rule:evenodd;clip-rule:evenodd;fill:#0F73B3;" points="572.372,485.821 572.372,556.783 616.856,556.783 
		661.34,556.783 661.34,544.074 661.34,531.576 633.379,530.94 605.205,530.305 604.57,472.476 604.146,414.858 588.259,414.858 
		572.372,414.858 	"/>
	<path style="fill-rule:evenodd;clip-rule:evenodd;fill:#0F73B3;" d="M667.695,456.377c0,67.15,5.296,84.308,29.656,96.806
		c10.803,5.508,13.133,5.931,30.715,5.296c29.444-1.271,44.484-11.439,53.593-36.011c2.33-6.99,3.389-20.971,4.237-58.465
		l0.847-49.144h-16.099h-16.099v42.366c0,47.873-1.906,60.583-10.591,69.904c-5.084,5.508-7.414,6.355-16.946,6.355
		c-9.109,0-11.862-1.059-16.946-5.931c-8.473-8.685-10.591-22.242-10.591-70.327v-42.366h-15.887h-15.887V456.377z"/>
	<path style="fill-rule:evenodd;clip-rule:evenodd;fill:#0E7ABF;" d="M127.108,618.426c-18.217,6.779-22.03,58.888-5.508,76.047
		c5.508,5.931,7.414,6.567,14.193,5.508c14.828-2.33,20.547-15.04,20.124-44.696c-0.212-20.759-4.448-31.139-14.616-35.799
		c-3.813-1.906-7.414-3.389-7.838-3.177C133.251,616.307,130.285,617.366,127.108,618.426z M143.63,631.347
		c2.542,4.66,3.601,12.498,3.813,23.937c0.212,22.454-1.906,31.986-8.261,36.223c-4.872,3.177-5.719,3.177-10.38,0
		c-9.956-6.355-12.71-40.247-4.872-59.1c2.966-6.567,4.448-7.838,9.744-7.838C138.758,624.569,140.877,626.051,143.63,631.347z"/>
	<path style="fill-rule:evenodd;clip-rule:evenodd;fill:#0E7ABF;" d="M455.654,620.967c-9.32,6.143-12.922,16.734-12.922,38.765
		c0,34.74,16.734,51.898,33.893,34.74c8.261-8.261,11.862-23.513,10.38-43.637c-1.271-17.582-6.355-28.173-15.252-32.198
		C464.551,615.248,463.916,615.248,455.654,620.967z M474.719,631.983c4.025,8.473,5.508,36.011,2.542,47.238
		c-1.483,5.508-4.66,10.168-7.838,12.498c-5.084,3.177-5.508,3.177-10.591-1.695c-10.168-10.168-11.227-50.839-1.483-61.642
		C462.645,622.45,471.118,624.145,474.719,631.983z"/>
	<path style="fill-rule:evenodd;clip-rule:evenodd;fill:#0E7ABF;" d="M682.735,618.637c-9.32,4.872-13.769,15.464-14.616,35.375
		c-1.059,22.454,1.906,34.104,10.38,41.307c8.049,6.779,14.616,6.99,22.454,0.424c7.838-6.567,11.227-17.794,11.227-36.646
		c0-20.124-1.483-26.69-8.261-34.316C697.351,617.155,689.725,615.036,682.735,618.637z M699.893,633.042
		c2.542,5.084,3.813,12.498,3.813,23.301c0,19.065-2.966,30.503-8.685,34.74c-12.074,8.261-19.912-7.202-18.429-36.435
		c1.059-22.454,4.872-30.715,13.981-29.656C694.597,625.416,697.351,627.746,699.893,633.042z"/>
	<path style="fill-rule:evenodd;clip-rule:evenodd;fill:#0E7ABF;" d="M59.746,658.249c0,45.543-0.424,44.484,18.217,41.518
		c12.498-1.695,19.912-10.591,19.912-23.301c0-7.414-1.271-10.38-5.719-14.828c-3.177-2.966-6.567-5.296-7.414-5.296
		c-0.635,0,1.483-2.754,4.872-6.143c6.143-6.143,7.838-14.404,4.872-22.454c-2.118-5.296-12.498-9.532-24.148-9.532H59.746V658.249z
		 M83.895,627.958c4.448,4.448,4.237,16.311-0.212,20.547c-2.118,1.695-6.355,4.025-9.532,4.66l-5.931,1.483v-15.04v-15.04h6.143
		C77.752,624.569,82.2,626.051,83.895,627.958z M85.801,665.028c5.719,6.99,4.872,19.7-1.906,24.996
		c-3.177,2.542-7.838,4.448-10.591,4.448c-4.872,0-5.084-0.424-5.084-18.217v-18.429l6.99,1.483
		C78.811,659.944,83.683,662.698,85.801,665.028z"/>
	<path style="fill-rule:evenodd;clip-rule:evenodd;fill:#0E7ABF;" d="M172.016,658.249c0,24.36,0.847,40.459,2.118,40.883
		c1.059,0.212,8.261,0.212,15.887,0c10.168-0.635,13.769-1.483,13.769-3.813c0-2.118-2.966-2.966-11.651-2.966h-11.651v-37.07
		c0-35.587-0.212-37.07-4.237-37.07S172.016,619.697,172.016,658.249z"/>
	<path style="fill-rule:evenodd;clip-rule:evenodd;fill:#0E7ABF;" d="M218.618,658.461c0,38.765,0.212,40.247,4.237,40.247
		s4.237-1.483,4.237-40.247s-0.212-40.247-4.237-40.247S218.618,619.697,218.618,658.461z"/>
	<path style="fill-rule:evenodd;clip-rule:evenodd;fill:#0E7ABF;" d="M240.86,620.756c0.424,1.483,4.237,18.005,8.473,36.646
		c10.168,44.484,9.109,41.73,14.404,40.883c2.966-0.424,5.084-2.754,6.143-6.99c2.33-9.32,16.523-70.963,16.523-72.022
		c0-0.635-1.906-1.059-4.025-1.059c-4.872,0-4.66-0.847-12.074,38.553c-3.389,17.158-6.143,30.927-6.355,30.715
		c-0.424-0.212-3.601-15.887-7.414-34.952c-6.567-32.198-7.202-34.316-11.862-34.316
		C241.919,618.214,240.224,619.273,240.86,620.756z"/>
	<path style="fill-rule:evenodd;clip-rule:evenodd;fill:#0E7ABF;" d="M301.231,658.461c0,34.316,0.424,40.247,3.177,40.247
		c2.754,0,3.177-5.931,3.177-40.247s-0.424-40.247-3.177-40.247C301.655,618.214,301.231,624.145,301.231,658.461z"/>
	<path style="fill-rule:evenodd;clip-rule:evenodd;fill:#0E7ABF;" d="M333.429,656.767c-4.872,21.395-8.897,39.4-8.897,40.247
		c0,1.059,1.695,1.695,4.025,1.695c2.966,0,4.448-2.118,5.296-8.049c2.754-15.04,2.966-15.252,12.922-15.252
		c9.32,0,9.32,0.212,11.651,8.897c1.271,5.084,2.754,10.38,3.177,11.651c1.059,2.966,7.414,3.813,7.414,0.847
		c0-0.847-3.813-18.641-8.473-39.4c-4.66-20.759-8.473-37.917-8.473-38.341s-2.118-0.847-4.872-0.847
		C342.538,618.214,341.69,620.544,333.429,656.767z M351.011,645.54c4.66,22.454,4.448,23.513-4.237,23.513
		c-8.685,0-8.473,0.424-4.237-21.818c1.695-9.109,3.177-17.158,3.177-18.005C345.715,624.78,348.257,632.406,351.011,645.54z"/>
	<path style="fill-rule:evenodd;clip-rule:evenodd;fill:#0E7ABF;" d="M385.963,658.461c0,34.316,0.424,40.247,3.177,40.247
		s3.177-5.084,3.389-33.469v-33.257l5.084,13.769c16.523,45.543,19.488,51.898,23.937,52.534c4.66,0.635,4.66,0.424,4.66-39.612
		c0-34.316-0.424-40.459-3.177-40.459c-2.542,0-3.177,5.719-3.601,33.257l-0.635,33.469l-8.049-21.818
		c-12.498-33.257-18.005-44.908-21.607-44.908C386.386,618.214,385.963,623.933,385.963,658.461z"/>
	<path style="fill-rule:evenodd;clip-rule:evenodd;fill:#0E7ABF;" d="M533.819,653.589l-0.635,35.587l-6.779,3.177
		c-9.956,4.66-9.32,9.32,0.847,7.838c14.193-2.33,15.464-6.143,15.464-46.602c0-33.893-0.212-35.375-4.237-35.375
		C534.455,618.214,534.243,619.908,533.819,653.589z"/>
	<path style="fill-rule:evenodd;clip-rule:evenodd;fill:#0E7ABF;" d="M574.49,619.908c0,1.059-3.389,16.523-7.414,34.528
		c-4.237,18.005-8.049,35.164-8.897,38.341c-0.847,4.66-0.424,5.931,2.33,5.931c3.813,0,4.025-0.635,7.626-14.404
		c2.33-8.685,2.33-8.897,11.651-8.897c8.897,0,9.32,0.212,11.439,7.838c1.271,4.448,2.33,9.744,2.33,11.651
		c0,2.33,1.695,3.813,4.237,3.813c2.33,0,4.237-0.847,4.237-1.695c0-1.271-12.498-59.524-15.887-74.14
		c-0.847-3.177-2.754-4.66-6.355-4.66C576.82,618.214,574.49,619.061,574.49,619.908z M584.022,644.904
		c4.448,23.937,4.448,24.148-4.237,24.148c-5.296,0-7.414-0.847-7.414-3.389c0-4.872,6.99-39.188,7.626-38.341
		C580.421,627.746,582.116,635.584,584.022,644.904z"/>
	<path style="fill-rule:evenodd;clip-rule:evenodd;fill:#0E7ABF;" d="M618.974,658.461c0,34.316,0.424,40.247,3.177,40.247
		c1.695,0,3.177-1.695,3.389-3.813c0-1.906,0.212-9.32,0.424-16.311l0.424-12.71l8.261-1.271c5.719-0.847,10.38-3.601,14.616-8.261
		c5.508-6.143,6.143-8.049,5.084-17.582c-1.271-14.828-8.049-20.547-23.937-20.547h-11.439V658.461z M643.123,629.229
		c1.906,2.542,3.389,8.261,3.389,12.71c0,9.956-5.931,16.523-14.828,16.523h-6.355v-16.946v-16.946h7.202
		C637.827,624.569,640.793,626.051,643.123,629.229z"/>
	<path style="fill-rule:evenodd;clip-rule:evenodd;fill:#0E7ABF;" d="M729.125,658.461c0,34.316,0.424,40.247,3.177,40.247
		s3.177-5.084,3.177-33.469l0.212-33.257l6.99,19.065c16.311,44.06,17.582,46.602,22.242,47.238
		c4.448,0.635,4.448,0.212,4.448-39.612c0-34.528-0.424-40.459-3.177-40.459c-3.177,0-4.237,16.523-3.177,53.381
		c0.212,6.779,0,12.286-0.635,12.286c-0.424,0-6.355-14.828-13.345-32.833c-9.532-24.996-13.345-32.833-16.099-32.833
		C729.337,618.214,729.125,621.603,729.125,658.461z"/>
	<path style="fill-rule:evenodd;clip-rule:evenodd;fill:#0E7ABF;" d="M788.437,658.461v40.247h15.887
		c12.71,0,15.887-0.635,15.887-3.177c0-2.542-2.754-3.177-11.651-3.177H796.91v-15.887v-15.887h10.591
		c8.049,0,10.591-0.847,10.591-3.177s-2.542-3.177-10.591-3.177H796.91v-14.828v-14.828h10.591c8.049,0,10.591-0.847,10.591-3.177
		c0-2.542-2.966-3.177-14.828-3.177h-14.828V658.461z"/>
	<path style="fill-rule:evenodd;clip-rule:evenodd;fill:#0E7ABF;" d="M839.064,624.357c-10.591,10.591-8.049,20.759,9.109,36.223
		c8.897,8.049,10.591,10.803,10.803,17.37c0.212,11.439-3.601,14.828-15.887,13.981c-8.473-0.424-10.168,0-10.168,2.966
		c0,4.237,11.651,7.202,18.853,4.872c8.897-2.754,15.04-11.227,15.04-20.547c0-8.261-6.779-22.878-10.591-22.878
		c-0.847,0-4.66-2.966-8.261-6.779c-11.651-12.074-7.414-24.996,8.473-24.996c5.931,0,8.261-0.847,8.261-3.177
		c0-2.33-2.542-3.177-9.744-3.177C847.114,618.214,844.148,619.273,839.064,624.357z"/>
	<path style="fill-rule:evenodd;clip-rule:evenodd;fill:#0E7ABF;" d="M896.47,619.061c0,0.424-3.813,17.37-8.473,37.917
		c-9.532,41.942-9.532,41.73-5.296,41.73c2.966,0,7.414-11.862,7.414-19.7c0-2.966,1.906-3.601,10.38-3.601h10.591l2.542,11.651
		c2.118,9.32,3.389,11.651,6.779,11.651c3.177,0,3.813-1.059,2.966-4.872c-0.635-2.542-4.66-20.547-9.109-40.247
		c-7.414-33.257-8.261-35.375-12.922-35.375C898.588,618.214,896.47,618.637,896.47,619.061z M906.002,647.87
		c4.448,21.607,4.448,21.183-5.508,21.183c-7.202,0-8.473-0.635-7.626-3.813c0.635-1.906,2.118-8.897,3.601-15.252
		C901.766,623.721,901.13,623.933,906.002,647.87z"/>
	<path style="fill-rule:evenodd;clip-rule:evenodd;fill:#0E7ABF;" d="M161,731.966c-3.389,0.847-3.813,4.66-3.813,41.095v40.036
		h9.744c20.547,0,30.503-13.345,30.503-40.883c0-18.005-2.966-27.538-10.803-34.528C181.548,733.025,167.779,730.059,161,731.966z
		 M177.311,740.227c8.897,4.237,11.651,11.651,11.651,31.986c0,23.937-6.143,34.528-19.912,34.528h-5.508v-33.469
		c0-18.429,0.635-34.316,1.483-34.952C167.143,736.202,169.685,736.414,177.311,740.227z"/>
	<path style="fill-rule:evenodd;clip-rule:evenodd;fill:#0E7ABF;" d="M300.172,732.601c-11.651,4.66-20.124,21.395-20.124,39.612
		c0,16.523,3.389,27.75,10.591,34.952c5.084,4.872,7.838,5.931,16.734,5.931c8.261,0,10.803-0.847,10.803-3.177
		c0-2.33-2.33-3.177-8.049-3.177c-13.557,0-21.607-12.498-21.607-33.893c0-21.183,7.626-33.893,20.336-33.893
		c7.626,0,11.439-3.601,6.99-6.567C312.246,730.059,305.891,730.271,300.172,732.601z"/>
	<path style="fill-rule:evenodd;clip-rule:evenodd;fill:#0E7ABF;" d="M341.267,733.66c-8.897,4.872-13.557,18.429-13.557,39.188
		c0,21.818,4.448,33.681,14.616,39.188c6.567,3.601,7.202,3.601,14.404,0.212c24.148-11.651,19.7-82.19-5.084-81.766
		C348.893,730.695,344.232,731.966,341.267,733.66z M353.976,738.956c6.567,3.389,9.744,14.616,9.532,33.893
		c0,23.513-4.237,33.893-13.345,33.893c-4.872,0-7.202-1.483-9.532-6.143c-8.049-15.464-5.719-54.016,3.601-60.583
		C349.528,736.202,349.316,736.202,353.976,738.956z"/>
	<path style="fill-rule:evenodd;clip-rule:evenodd;fill:#0E7ABF;" d="M396.766,735.779c-3.389,2.966-7.414,8.897-8.897,13.133
		c-3.601,11.227-2.966,40.459,1.271,50.839c7.202,18.217,27.538,19.065,36.223,1.483c5.508-11.227,5.719-47.238,0.212-57.406
		C418.161,730.059,407.357,726.882,396.766,735.779z M418.161,745.946c1.695,2.754,2.754,12.922,2.754,25.843
		c0,25.631-2.966,33.469-12.922,34.528c-5.719,0.635-6.99-0.424-10.38-7.414c-4.66-9.532-5.296-37.917-1.271-49.992
		C400.579,735.99,411.806,734.508,418.161,745.946z"/>
	<path style="fill-rule:evenodd;clip-rule:evenodd;fill:#0E7ABF;" d="M453.324,731.966l-5.931,0.847v38.129
		c0,20.759,0,38.553-0.212,39.4c0,1.059,1.483,1.906,3.177,2.33c2.542,0.635,3.389-2.33,3.813-15.887l0.635-16.523l7.838-1.271
		c9.109-1.483,13.557-4.66,17.794-12.71c6.355-12.498,1.271-30.08-9.532-32.622C460.95,731.33,459.044,731.118,453.324,731.966z
		 M471.541,743.828c2.966,3.601,3.601,6.779,2.754,13.769c-1.059,10.168-5.719,15.04-14.616,15.252h-5.931v-16.734
		c0-11.439,0.847-17.158,2.754-17.794C460.738,736.626,467.305,738.956,471.541,743.828z"/>
	<path style="fill-rule:evenodd;clip-rule:evenodd;fill:#0E7ABF;" d="M500.774,732.178c-1.906,0.635-2.542,10.803-2.542,40.883
		v40.036h15.887c12.71,0,15.887-0.635,15.887-3.177c0-2.542-2.754-3.177-11.651-3.177h-11.862l0.635-16.523l0.635-16.311
		l10.168-0.635c6.99-0.424,9.956-1.483,9.956-3.813c0-2.118-2.754-2.966-10.591-2.966h-10.591v-13.769v-13.769h10.38
		c9.956,0,16.523-3.177,10.38-5.084C523.016,732.389,503.739,731.118,500.774,732.178z"/>
	<path style="fill-rule:evenodd;clip-rule:evenodd;fill:#0E7ABF;" d="M551.825,732.178l-6.99,0.635v40.247
		c0,38.553,0.212,40.036,4.237,40.036c3.813,0,4.237-1.483,4.237-18.005c0-17.582,0-18.005,5.084-18.005
		c7.626,0,11.227,4.872,13.981,18.641c1.271,6.567,2.754,13.345,3.177,14.616c1.271,3.601,7.414,3.389,7.414-0.212
		c0-8.473-4.872-26.479-8.473-31.351c-4.237-5.719-4.237-5.719-0.212-8.049c5.296-2.754,9.32-15.252,7.626-23.089
		C579.362,735.99,568.135,730.271,551.825,732.178z M570.254,742.345c4.448,4.448,4.025,18.641-0.847,23.937
		c-2.33,2.542-6.567,4.448-10.168,4.448h-5.931v-15.464c0-8.685,0.635-16.311,1.483-17.158
		C556.908,735.99,566.441,738.532,570.254,742.345z"/>
	<path style="fill-rule:evenodd;clip-rule:evenodd;fill:#0E7ABF;" d="M670.237,732.601c-6.779,2.754-14.828,12.498-17.37,21.183
		c-2.966,10.591-2.542,34.952,0.847,43.213c4.448,10.803,12.71,16.099,24.996,16.099c7.414,0,10.168-0.847,9.744-2.754
		c-0.635-1.271-3.177-2.754-6.143-3.177c-12.074-1.271-14.404-2.754-18.641-11.651c-8.049-16.523-4.237-48.932,6.355-54.44
		c2.118-1.271,6.567-2.118,10.168-2.118c6.99,0,9.109-4.872,3.177-7.202C679.134,730.059,676.168,730.271,670.237,732.601z"/>
	<path style="fill-rule:evenodd;clip-rule:evenodd;fill:#0E7ABF;" d="M743.953,731.966c-11.439,4.237-18.217,24.148-16.311,48.509
		c2.33,31.986,21.607,44.696,37.07,24.572c5.084-6.779,5.719-9.532,6.567-27.75c0.424-11.227-0.424-23.513-1.695-28.173
		C765.136,734.931,754.968,727.941,743.953,731.966z M760.264,747.217c4.237,10.168,4.237,41.307-0.212,51.686
		c-2.754,6.567-4.237,7.838-9.532,7.838c-5.084,0-7.202-1.483-9.956-6.567c-7.626-14.828-6.355-49.568,2.33-58.253
		C749.461,735.355,756.239,737.261,760.264,747.217z"/>
	<path style="fill-rule:evenodd;clip-rule:evenodd;fill:#0E7ABF;" d="M214.381,772.849v40.247h15.887
		c12.71,0,15.887-0.635,15.887-3.177c0-2.542-2.754-3.177-11.651-3.177h-11.651v-16.946v-16.946h9.532
		c6.99,0,9.532-0.847,9.532-3.177c0-2.33-2.542-3.177-9.532-3.177h-9.532v-13.769v-13.769h10.591c8.049,0,10.591-0.847,10.591-3.177
		c0-2.542-2.966-3.177-14.828-3.177h-14.828V772.849z"/>
	<path style="fill-rule:evenodd;clip-rule:evenodd;fill:#0E7ABF;" d="M604.57,771.154c-4.872,21.395-8.897,39.4-8.897,40.247
		c0,1.059,1.695,1.695,3.813,1.695c2.966,0,4.448-2.754,6.355-12.71l2.754-12.71h9.32c9.956,0,10.168,0.212,12.922,15.464
		c1.271,7.626,5.719,12.286,8.685,9.32c0.635-0.847-1.906-15.464-5.719-32.622c-10.803-49.356-10.168-47.238-15.675-47.238
		C613.678,732.601,612.831,734.931,604.57,771.154z M622.999,763.316c1.906,9.956,3.177,18.641,2.542,19.065
		c-0.424,0.635-4.025,1.059-8.049,1.059c-4.872,0-6.99-1.059-6.99-3.389c0-6.355,7.202-39.612,8.049-37.282
		C618.974,744.252,621.093,753.572,622.999,763.316z"/>
	<path style="fill-rule:evenodd;clip-rule:evenodd;fill:#0E7ABF;" d="M703.282,735.99c-0.424,1.906-0.424,20.124,0,40.459
		c0.635,33.469,1.059,36.858,4.237,36.223c1.906-0.424,3.389-1.483,3.177-2.33c-0.424-0.847-0.635-18.641-0.635-39.612
		c0-31.563-0.424-38.129-2.966-38.129C705.4,732.601,703.706,734.084,703.282,735.99z"/>
	<path style="fill-rule:evenodd;clip-rule:evenodd;fill:#0E7ABF;" d="M788.437,772.637c0,34.528,0.424,40.459,3.177,40.459
		c2.754,0,3.177-5.296,3.177-34.528l0.212-34.316l12.71,32.833c6.99,18.005,13.557,33.681,14.616,34.74s3.177,1.271,4.66,0.847
		c2.118-0.847,2.542-9.532,2.118-40.671c-0.424-33.893-1.059-39.4-3.813-39.4c-2.966,0-3.177,4.237-2.542,32.622
		c0.212,18.005,0.212,32.198-0.212,31.774c-0.424-0.424-6.355-14.828-13.133-32.198c-9.744-24.996-13.133-31.351-16.523-31.774
		C788.437,732.389,788.437,733.025,788.437,772.637z"/>
	<path style="fill-rule:evenodd;clip-rule:evenodd;fill:#0E7ABF;" d="M355.247,841.058c-1.059,2.966-18.005,77.741-18.005,79.224
		c0,0.424,1.695,0.847,3.813,0.847c2.966,0,4.448-2.966,6.567-12.71l2.754-12.71h10.168h10.168l1.483,9.744
		c1.906,13.557,2.966,15.675,7.838,15.675c2.966,0,3.813-1.059,2.966-3.813c-0.635-1.906-4.66-18.853-8.685-37.494
		c-4.237-18.641-8.049-35.587-8.685-37.706C364.356,837.88,356.73,837.245,355.247,841.058z M364.78,868.172
		c1.483,8.685,3.177,17.158,3.601,18.429c0.847,1.906-1.483,2.754-7.838,2.754c-8.897,0-8.897,0-7.626-6.355
		c0.635-3.601,2.33-12.71,3.813-20.124c1.271-7.626,3.177-13.133,3.813-12.286C361.39,851.649,363.297,859.487,364.78,868.172z"/>
	<path style="fill-rule:evenodd;clip-rule:evenodd;fill:#0E7ABF;" d="M398.672,879.822c0,35.375,0.424,41.307,3.177,41.307
		c2.754,0,3.177-5.296,3.177-34.528l0.212-34.316L416.89,883c6.567,16.946,12.286,32.41,12.922,34.316
		c0.635,2.118,2.966,3.813,5.084,3.813c3.813,0,4.025-2.33,4.025-41.307c0-34.952-0.424-41.307-3.177-41.307
		c-2.542,0-3.177,5.508-3.601,33.045l-0.635,33.045l-12.498-33.045c-9.956-25.843-13.557-33.045-16.523-33.045
		C398.884,838.516,398.672,841.481,398.672,879.822z"/>
	<path style="fill-rule:evenodd;clip-rule:evenodd;fill:#0E7ABF;" d="M458.832,841.269c-0.424,1.483-0.635,19.912-0.424,40.671
		l0.635,38.129h10.591c21.818-0.212,31.986-15.464,30.292-44.908c-1.271-19.912-5.508-29.444-15.464-33.681
		C475.354,837.668,460.314,837.668,458.832,841.269z M485.31,851.649c4.872,6.99,6.143,11.862,6.355,26.055
		c0.424,23.089-7.202,37.07-20.124,37.07h-5.084V879.61v-35.375l7.626,1.271C478.744,846.353,483.192,848.683,485.31,851.649z"/>
	<path style="fill-rule:evenodd;clip-rule:evenodd;fill:#0E7ABF;" d="M517.296,879.822c0,39.824,0.212,41.307,4.237,41.307
		c4.025,0,4.237-1.483,4.237-41.307c0-39.824-0.212-41.307-4.237-41.307C517.508,838.516,517.296,839.998,517.296,879.822z"/>
	<path style="fill-rule:evenodd;clip-rule:evenodd;fill:#0E7ABF;" d="M544.834,879.822c0,35.375,0.424,41.307,3.177,41.307
		s3.177-5.296,3.177-34.528l0.212-34.316l11.227,29.868c13.557,35.375,15.252,38.977,19.276,38.977
		c2.754,0,3.177-6.355,3.177-41.307c0-34.952-0.424-41.307-3.177-41.307c-2.542,0-3.177,5.719-3.601,33.257l-0.635,33.469
		l-3.813-10.591c-12.922-36.435-21.607-56.135-25.208-56.135C545.046,838.516,544.834,841.693,544.834,879.822z"/>
	<path style="fill-rule:evenodd;clip-rule:evenodd;fill:#0E7ABF;" d="M618.127,842.117c-0.635,2.118-4.448,19.065-8.685,37.706
		s-8.049,35.587-8.685,37.494c-0.847,2.754,0,3.813,3.177,3.813c3.389,0,4.66-2.118,6.779-12.71l2.542-12.71h9.956h9.956
		l2.542,12.71c2.118,10.591,3.177,12.71,6.99,12.71c3.389,0,4.025-0.847,2.966-4.872c-0.635-2.542-4.872-21.183-9.109-41.307
		c-7.414-33.681-8.261-36.435-12.71-36.435C621.304,838.516,618.762,840.21,618.127,842.117z M627.024,863.3
		c1.271,8.049,2.966,17.37,3.601,20.759c1.483,6.567,1.483,6.567-7.202,5.719c-4.872-0.424-8.685-1.483-8.685-2.33
		c0-0.635,1.483-6.99,3.177-13.981c1.695-6.99,2.966-15.252,3.177-18.641C621.093,844.235,624.482,848.895,627.024,863.3z"/>
</g>
</svg>
