<?xml version="1.0" encoding="iso-8859-1"?>
<!-- Generator: Adobe Illustrator 18.0.0, SVG Export Plug-In . SVG Version: 6.00 Build 0)  -->
<!DOCTYPE svg PUBLIC "-//W3C//DTD SVG 1.1//EN" "http://www.w3.org/Graphics/SVG/1.1/DTD/svg11.dtd">
<svg version="1.1" id="Layer_1" xmlns="http://www.w3.org/2000/svg" xmlns:xlink="http://www.w3.org/1999/xlink" x="0px" y="0px"
	 viewBox="0 0 960 960" style="enable-background:new 0 0 960 960;" xml:space="preserve">
<g>
	<path style="fill-rule:evenodd;clip-rule:evenodd;fill:#0E7ABF;" d="M758.992,758.274c-0.893-0.51-4.594,2.169-8.932,6.507
		c-12.377,12.249-38.024,32.026-55.249,42.489c-4.594,2.807-11.994,7.401-16.587,10.335
		c-25.774,16.205-65.839,32.409-105.266,42.362c-17.353,4.338-61.756,10.973-74.388,10.973c-3.317,0-8.166,0.383-10.718,0.766
		l-4.849,0.893v10.208v1.966v8.241v14.929v10.846v1.233v6.734c124.861-0.004,237.802-51.024,319.13-133.345
		C795.485,787.416,762.022,760.023,758.992,758.274z"/>
	<path style="fill-rule:evenodd;clip-rule:evenodd;fill:#FFFFFF;" d="M757.855,757.179c-0.893-0.51-4.594,2.169-8.932,6.507
		c-12.377,12.249-38.024,32.026-55.249,42.489c-4.594,2.807-11.994,7.401-16.587,10.335c-25.774,16.204-65.84,32.409-105.266,42.362
		c-17.353,4.338-61.756,10.973-74.388,10.973c-3.317,0-8.166,0.383-10.718,0.766l-4.849,0.893v10.208v1.966v8.241v14.929v10.846
		v1.233v6.734c124.861-0.004,237.802-51.024,319.13-133.346C794.349,786.321,760.885,758.927,757.855,757.179z"/>
	<path style="fill-rule:evenodd;clip-rule:evenodd;fill:#2074A0;" d="M436.34,6.653c-46.828,5.104-85.234,14.291-126.958,30.623
		c-79.492,31.006-149.415,83.703-202.367,152.477C-0.292,329.215-20.197,519.077,55.595,679.082
		c16.077,33.94,37.003,66.35,65.457,101.439c17.736,21.819,59.332,60.608,81.916,76.557c70.943,49.89,138.952,76.94,220.485,87.531
		c20.926,2.68,73.368,3.828,95.824,1.914c108.584-9.059,206.96-52.825,286.58-127.723c16.97-15.822,38.917-40.32,38.661-42.872
		c-0.128-1.021,0.255-1.531,0.766-1.148c1.404,0.893,8.676-8.039,21.946-26.795c38.406-54.356,64.563-115.602,77.451-181.824
		c6.38-32.792,7.145-41.724,7.145-89.317c0-49.507-0.893-60.225-8.421-96.718c-30.878-149.67-134.103-276.245-274.841-336.853
		c-41.469-17.863-83.83-29.347-130.786-35.472C515.449,4.994,458.159,4.356,436.34,6.653z M518.256,15.074
		c130.658,10.718,246.132,72.857,328.431,176.592c51.421,64.691,84.341,146.097,95.059,234.138c3.062,25.264,3.062,75.409,0,100.545
		c-9.314,77.706-33.685,144.566-75.154,206.96c-7.528,11.356-23.988,33.558-26.412,35.727c-0.383,0.383-3.19,3.828-6.252,7.656
		c-10.08,12.504-46.317,47.593-62.012,59.97c-20.67,16.332-27.05,20.926-42.745,30.878c-75.154,47.21-158.091,71.071-247.025,71.198
		c-114.453,0.128-221.634-40.193-306.485-115.219C62.229,723.358,5.449,576.24,21.654,425.805
		c9.952-91.741,46.317-176.337,106.542-248.174c54.228-64.819,129.255-115.346,210.023-141.376
		C395.637,17.626,459.307,10.098,518.256,15.074z"/>
	<path style="fill-rule:evenodd;clip-rule:evenodd;fill:#0E7ABF;" d="M448.462,25.92c-59.715,5.359-108.712,18.374-160.643,42.872
		c-43.51,20.415-84.979,49.38-120.578,83.958C52.532,264.269,5.832,424.912,42.707,581.344
		c17.608,75.154,56.27,146.863,109.222,203.005c4.976,5.231,11.228,12.122,14.036,15.184c15.439,17.481,60.608,51.549,91.741,69.284
		c58.949,33.558,130.913,54.866,194.583,57.801c8.804,0.383,19.012,1.021,22.712,1.276l6.635,0.638v-10.846V906.84H469.26
		c-6.89,0-20.543-0.893-30.368-1.914c-79.492-8.421-152.222-36.365-214.999-82.682c-14.036-10.208-32.537-25.647-40.703-33.685
		l-5.487-5.487l5.487-4.466c3.062-2.424,6.125-4.466,6.635-4.466c0.638,0,6.125,4.593,12.122,10.08
		c70.05,63.925,164.343,102.332,262.209,106.925l17.481,0.766v-10.208v-10.208l4.849-0.893c2.552-0.383,7.401-0.766,10.718-0.766
		c12.632,0,57.035-6.635,74.388-10.973c39.427-9.952,79.492-26.157,105.266-42.362c4.593-2.935,11.994-7.528,16.587-10.335
		c17.225-10.463,42.872-30.24,55.249-42.489c4.338-4.338,8.039-7.018,8.932-6.507c3.318,1.914,43.127,34.578,44.276,36.237
		c0.383,0.51,6.252-5.359,13.142-12.887c54.739-60.353,91.358-131.806,108.073-210.533c13.142-61.501,13.015-125.937-0.128-188.076
		c-15.567-73.75-50.528-143.928-100.928-201.984c-7.401-8.549-38.406-39.172-47.593-47.083
		C707.736,75.81,628.372,40.721,537.779,28.344C523.743,26.43,461.987,24.772,448.462,25.92z M467.091,38.935
		c0.893,0.51,1.021,2.297,0.383,4.721c-1.021,3.7-1.404,3.828-7.783,3.828c-5.359,0-6.763,0.383-7.145,2.297
		c-0.383,1.659,1.659,3.062,7.783,5.869c9.187,4.083,11.101,6.507,11.101,13.525c0,9.187-10.335,14.929-23.095,12.76
		c-4.849-0.893-5.104-1.148-4.721-4.849l0.383-4.083l7.145,0.383c5.359,0.383,7.401,0,8.804-1.659
		c2.552-3.062,0.383-5.614-7.145-8.421c-7.783-2.935-10.59-5.614-10.846-10.718c-0.51-7.273,2.807-11.994,9.697-13.78
		C455.735,37.786,465.559,37.914,467.091,38.935z M512.132,53.481c2.297,8.677,4.976,18.374,5.869,21.691l1.786,6.125h-5.487
		c-5.487,0-5.614,0-7.145-5.742l-1.659-5.869l-5.869,0.383c-5.487,0.383-5.869,0.638-6.89,5.104
		c-1.148,4.721-1.276,4.849-6.763,4.849h-5.487l7.145-21.053l7.273-21.053h6.635h6.507L512.132,53.481z M545.052,42.252
		c0.383,0.383-0.255,7.145-1.404,15.056c-2.807,20.033-3.318,18.501,5.614,19.522l7.656,0.893v4.466v4.593l-5.231-0.893
		c-2.807-0.51-8.549-1.148-12.76-1.659c-4.211-0.383-7.911-1.276-8.294-1.914c-0.383-0.638,0.51-10.335,2.169-21.691l2.807-20.415
		l4.466,0.766C542.5,41.359,544.796,41.869,545.052,42.252z M580.523,48.122c1.659,0,3.318,0.51,3.7,1.021
		c0.383,0.638-0.766,6.507-2.424,13.142c-3.7,14.163-3.955,18.119-1.148,20.798c5.231,5.359,10.718,0.766,13.78-11.484
		c5.104-20.415,4.211-18.757,9.442-17.736c2.552,0.51,4.849,1.021,4.976,1.148c0.766,0.766-7.528,29.73-9.314,32.409
		c-5.231,7.911-19.395,8.421-26.923,0.893c-5.104-5.104-5.487-9.697-1.659-26.03c2.935-12.377,5.104-18.119,5.997-15.822
		C577.333,47.356,578.864,48.122,580.523,48.122z M386.833,50.163c-0.383,0.383-0.255,2.169,0.383,3.828
		c1.276,3.19,1.276,3.19-11.866,6.38c-2.807,0.638-3.317,1.276-2.68,3.573c1.404,4.593,2.552,4.976,9.57,2.935
		c3.7-1.148,6.89-1.914,7.018-1.786c0.128,0.128,0.638,2.042,1.021,4.338c0.893,3.955,0.893,3.955-6.252,5.614l-7.273,1.659
		l0.766,4.338c0.383,2.424,0.766,4.593,1.021,4.721c0.255,0.255,3.955-0.51,8.294-1.659c4.338-1.148,8.166-1.786,8.421-1.531
		c0.255,0.383,0.893,2.169,1.276,3.955c0.893,3.317,0.638,3.445-11.866,6.89c-7.145,1.914-13.142,3.19-13.525,2.935
		c-0.638-0.766-10.59-37.896-10.718-39.937c0-0.766,4.721-2.552,10.59-3.955C381.474,49.653,388.364,48.76,386.833,50.163z
		 M638.452,65.092c12.504,4.593,19.395,14.291,17.098,23.86c-4.338,18.374-17.863,23.222-39.299,14.036l-5.614-2.424l7.018-18.246
		c3.828-10.08,7.273-19.012,7.528-19.905C625.82,60.626,626.968,60.754,638.452,65.092z M344.854,68.537
		c5.231,3.19,9.059,11.356,9.187,19.522c0,9.825-4.466,15.567-15.949,20.671c-13.398,5.997-12.122,7.018-20.415-14.801
		c-4.721-12.504-6.89-19.65-6.125-20.415c0.766-0.766,4.721-2.68,8.804-4.338C329.798,65.219,339.112,65.092,344.854,68.537z
		 M698.039,95.332c-0.383,1.786-1.021,5.997-1.404,9.314l-0.766,6.252l6.89-5.231c3.7-2.935,7.528-5.231,8.421-5.231
		c1.914,0,9.059,4.083,9.059,5.104c0,0.383-5.359,3.7-11.994,7.528c-10.846,6.252-12.377,7.656-16.205,14.418
		c-2.297,4.083-4.593,7.401-5.104,7.401s-2.68-1.021-4.721-2.169l-3.7-2.169l4.211-7.783c3.573-6.38,4.338-9.314,4.338-15.439
		c0-4.083,0.383-10.463,0.766-14.163l0.893-6.635l4.849,2.807C697.656,91.632,698.422,92.653,698.039,95.332z M521.574,92.142
		c86.765,9.187,166.512,46.062,227.375,105.266c19.267,18.757,26.412,26.923,42.872,48.486
		c39.555,52.059,65.329,117.388,74.005,187.566c2.169,17.608,2.169,66.988,0,84.851c-9.314,77.068-35.982,141.248-83.703,200.963
		c-9.825,12.377-38.151,41.341-50.655,51.931c-5.487,4.593-9.57,8.932-9.059,9.697c0.383,0.766,0.128,0.893-0.638,0.383
		c-0.766-0.383-7.018,3.317-13.908,8.294c-49.507,35.854-107.18,59.46-168.809,68.902c-21.691,3.317-71.454,4.721-93.4,2.552
		c-38.917-3.828-81.661-14.418-113.56-28.326c-6.252-2.552-11.228-4.338-11.228-3.955c0,0.51-0.51,0.255-1.021-0.51
		c-0.51-0.766-7.145-4.466-14.929-8.294c-83.065-41.596-153.242-120.578-185.524-208.747
		c-16.843-46.062-23.605-85.234-23.605-135.634c0.128-33.558,1.659-49.89,7.656-78.344
		c22.84-107.946,89.189-199.815,184.886-255.574c45.552-26.54,101.183-44.403,155.667-50.018
		C461.094,89.845,502.817,90.101,521.574,92.142z M261.662,108.092c10.718,5.231,16.587,20.671,11.484,30.368
		c-5.231,10.08-17.608,14.291-27.305,9.314c-10.463-5.359-16.205-20.926-11.228-30.495
		C239.843,107.071,251.326,103.115,261.662,108.092z M763.878,137.183c8.421,9.314,8.677,18.757,0.766,27.816
		c-10.08,11.484-22.584,10.846-37.003-1.914l-5.359-4.849l3.7-4.976c2.042-2.807,7.911-10.335,13.142-16.715l9.442-11.866l5.359,3.7
		C756.86,130.421,761.326,134.376,763.878,137.183z M239.205,164.361c0,0.383-1.659,1.914-3.7,3.445l-3.828,2.807l-3.828-4.849
		c-11.228-13.78-20.033-24.881-21.181-26.54c-0.893-1.276-0.255-2.68,2.552-5.231l3.828-3.573l13.015,16.587
		C233.335,156.068,239.205,163.978,239.205,164.361z M201.181,155.302c3.19,3.19,3.7,4.721,3.317,8.294
		c-0.51,4.083-0.255,4.466,2.68,4.466s15.439,7.018,15.439,8.676c0,1.148-5.487,6.635-6.635,6.635c-0.638,0-3.19-1.276-5.869-2.935
		c-2.552-1.659-5.614-3.317-6.763-3.7c-2.424-0.893-8.421,2.68-6.763,3.955c0.638,0.51,3.317,3.19,5.997,5.997l4.721,5.104
		l-3.573,3.445l-3.7,3.573l-7.528-8.039c-4.083-4.338-10.59-11.101-14.163-14.929c-3.7-3.955-6.763-7.401-6.763-7.911
		c0-1.404,10.59-11.611,14.674-14.036C191.867,150.326,196.588,150.836,201.181,155.302z M799.095,168.444l9.314,9.314l-3.19,2.935
		l-3.19,2.935l-4.976-5.231c-5.614-5.869-6.635-6.252-9.57-2.935c-2.042,2.169-1.786,2.68,3.062,7.783l5.231,5.359l-2.935,3.19
		l-2.935,3.062l-5.487-5.359l-5.487-5.359l-3.19,3.062l-3.19,3.062l5.997,6.125l5.997,6.125l-3.062,3.19l-3.062,3.317l-9.314-9.314
		c-5.104-5.104-9.315-9.697-9.315-10.335c0-1.148,28.199-30.24,29.347-30.24C789.525,159.13,793.991,163.341,799.095,168.444z
		 M162.902,181.714c3.19,2.807,2.935,3.828-2.169,9.442c-5.104,5.742-5.359,6.38-2.042,9.314c2.297,2.042,2.552,1.914,7.656-3.828
		c5.104-5.869,5.359-5.997,7.783-3.7c3.445,3.062,3.317,3.955-1.914,10.335l-4.466,5.359l3.445,2.807l3.445,2.68l5.869-6.507
		l5.742-6.635l2.424,2.68c1.276,1.404,2.935,2.297,3.445,1.914c2.552-1.531,0.766,1.148-4.849,7.401
		c-3.445,3.7-7.401,8.421-9.059,10.59c-3.7,4.593-3.445,4.721-22.202-11.866c-15.311-13.398-14.801-11.611-5.614-21.564
		c2.68-2.935,5.742-6.635,6.763-8.039C159.33,179.035,159.84,178.907,162.902,181.714z M831.887,205.957
		c3.7,7.528,1.659,13.78-5.742,17.608c-6.252,3.19-10.59,2.424-16.715-3.062l-5.614-4.976l-5.104,4.338
		c-5.614,4.976-6.507,4.976-10.08,0.128c-2.552-3.445-2.552-3.445,0-5.231c1.404-1.021,8.804-7.018,16.46-13.525l14.036-11.611
		l5.359,6.125C827.548,199.067,830.738,203.661,831.887,205.957z M138.532,213.741c2.169,1.786,2.042,2.169-0.893,5.997
		c-1.659,2.297-3.062,4.338-3.062,4.849c0,0.766,19.012,14.418,23.86,17.225c3.7,2.042,3.7,2.552-0.128,7.273l-2.935,3.7
		l-13.78-9.952c-10.846-7.911-14.036-9.57-14.801-8.166c-0.638,1.021-2.169,3.317-3.573,4.976c-2.424,2.935-2.424,3.062-5.104,0.638
		c-1.531-1.404-2.68-2.935-2.68-3.573c0-2.68,18.119-26.54,19.522-25.647C135.725,211.572,137.383,212.72,138.532,213.741z
		 M853.961,236.453c7.401,5.742,10.08,16.843,6.125,24.626c-2.807,5.359-10.335,11.356-16.332,13.015
		c-7.018,1.786-14.163-0.255-19.65-5.742c-10.59-10.59-6.89-26.54,7.656-33.558C839.798,230.966,847.453,231.604,853.961,236.453z
		 M111.099,258.527c-7.145,7.783-4.593,13.78,3.573,8.294c7.656-5.231,12.249-6.763,16.587-5.487
		c10.973,3.062,11.356,18.374,0.766,28.581c-3.7,3.573-3.828,3.573-6.38,1.276c-3.317-3.062-3.19-3.955,1.276-9.187
		c4.083-4.593,4.976-8.932,1.914-10.08c-1.021-0.383-5.104,1.276-9.187,3.828c-8.294,5.104-10.335,5.487-15.694,2.68
		c-4.211-2.169-6.89-8.932-5.614-14.163c1.148-4.593,6.252-12.76,8.421-13.653c0.893-0.255,2.935,0.638,4.593,2.042l2.807,2.68
		L111.099,258.527z M881.904,283.536c3.573,7.656,4.338,10.463,3.7,14.036c-1.404,7.401-9.697,11.739-16.077,8.294
		c-1.914-1.021-2.552-0.766-3.19,1.276c-0.383,1.404-3.7,5.104-7.401,8.294l-6.635,5.742l-2.297-4.721l-2.424-4.593l5.869-5.487
		c5.997-5.487,6.763-7.273,4.593-10.718c-1.021-1.659-2.169-1.404-7.656,1.531c-3.445,2.042-6.89,3.573-7.528,3.573
		c-1.659,0-4.593-9.314-3.19-9.825c0.638-0.255,8.677-4.083,17.736-8.677c9.187-4.466,17.353-8.166,18.246-8.166
		C876.545,273.966,879.352,278.304,881.904,283.536z M101.019,293.233c7.528,3.573,16.205,7.656,19.267,8.932l5.359,2.297
		l-2.169,4.593c-1.148,2.424-2.552,4.466-3.062,4.466c-0.51,0-9.314-3.955-19.522-8.932l-18.629-8.804l2.169-4.593
		c1.148-2.424,2.297-4.466,2.424-4.466C86.983,286.726,93.363,289.66,101.019,293.233z M95.787,318.114l19.395,7.145l-1.276,4.083
		c-0.766,2.169-1.786,4.466-2.424,5.104c-1.148,1.276-20.033,4.466-26.285,4.593c-6.507,0-4.976,1.659,4.466,4.976
		c17.098,5.869,16.843,5.742,15.184,10.208c-0.766,2.169-2.042,3.955-2.68,3.955s-8.932-2.935-18.246-6.38
		c-9.314-3.573-17.991-6.38-19.012-6.38c-1.531,0-1.914-0.766-1.276-3.19c2.297-9.314,1.914-9.059,18.119-11.484l14.929-2.297
		l-10.08-3.573c-5.487-2.042-10.59-3.7-11.484-3.7c-0.893,0-1.914-0.51-2.297-1.148c-0.766-1.276,1.659-9.059,2.807-9.059
		C76.01,310.969,85.069,314.159,95.787,318.114z M901.171,328.96c4.593,13.27,4.976,15.056,3.062,15.567
		c-1.148,0.383-3.062,1.021-4.211,1.404c-1.531,0.638-2.297-0.383-3.573-4.338c-0.766-2.807-1.914-5.104-2.424-5.104
		c-0.638,0-5.869,1.786-11.739,3.955c-21.564,7.783-21.564,7.783-22.074,0.51c-0.255-3.445,0.255-3.7,14.418-8.932
		c15.567-5.742,15.567-5.742,13.525-13.525c-0.893-2.935-0.51-3.573,2.68-4.721c1.914-0.638,3.955-0.893,4.338-0.383
		C895.557,313.776,898.364,320.794,901.171,328.96z M913.675,369.025c1.659,6.252,2.807,12.249,2.424,13.015
		c-0.255,0.893-2.169,1.659-4.211,1.659c-3.573,0-3.828-0.383-5.359-7.656c-1.531-6.89-1.914-7.656-4.338-6.89
		c-4.466,1.404-4.976,2.552-3.318,9.442c0.893,3.573,1.404,6.763,1.148,7.018s-2.042,0.766-3.956,1.276
		c-3.19,0.766-3.445,0.51-4.849-4.721c-2.297-9.187-2.297-9.059-6.635-8.166c-2.169,0.383-4.211,1.021-4.466,1.276
		c-0.255,0.255,0.51,3.955,1.659,8.294c1.276,4.211,1.914,8.039,1.659,8.294c-0.255,0.383-2.169,0.766-4.211,1.021
		c-3.7,0.383-3.828,0.383-6.89-12.122c-1.659-6.89-2.807-12.76-2.424-13.142c1.021-1.021,37.13-10.59,39.044-10.335
		C909.975,357.414,911.889,362.007,913.675,369.025z M78.945,365.835c10.463,2.68,19.267,5.231,19.522,5.614
		c0.893,0.893-0.766,9.697-1.914,9.697c-2.042,0-39.299-10.463-39.937-11.228c-1.021-1.148,1.148-9.187,2.424-9.187
		C59.55,360.731,68.482,363.028,78.945,365.835z M80.603,391.354l12.887,1.531l-0.638,4.721c-0.383,2.552-0.766,4.721-0.893,4.849
		c-0.128,0.128-5.997-0.51-12.887-1.531c-7.018-1.021-13.653-1.786-14.674-1.786s4.083,2.935,11.484,6.635
		c12.887,6.507,13.398,6.89,13.015,10.59c-0.255,2.042-0.638,3.828-0.893,4.083c-0.128,0.128-7.018,1.021-15.184,1.786
		l-14.801,1.531l14.291,2.935c7.783,1.659,14.418,3.19,14.801,3.445c1.404,1.404-1.404,8.421-3.317,8.421
		c-2.424,0-38.406-8.421-39.172-9.059c-0.255-0.255-0.128-3.19,0.255-6.507c0.766-6.89,0.383-6.763,18.884-8.421l10.208-1.021
		l-12.632-6.125l-12.504-6.125l0.766-5.742c0.383-3.062,1.021-6.125,1.276-6.635c0.383-0.51,4.211-0.51,8.677,0
		S73.458,390.588,80.603,391.354z M914.696,400.286c5.742,2.169,10.718,13.908,8.932,21.181c-0.638,2.68-1.404,3.19-4.849,2.807
		c-3.7-0.383-3.955-0.638-3.573-5.104c0.51-5.359-1.531-9.952-4.338-9.952c-2.042,0-3.573,2.935-5.614,11.101
		c-2.552,10.335-13.525,13.78-21.053,6.763c-5.997-5.614-7.528-24.243-1.914-24.243c5.104,0,5.997,1.148,5.487,7.401
		c-0.383,4.083,0,6.763,1.404,8.549c2.807,3.7,5.997,1.148,8.421-6.507c2.297-7.656,3.7-9.825,7.018-11.739
		C907.806,398.755,910.486,398.627,914.696,400.286z"/>
	<path style="fill-rule:evenodd;clip-rule:evenodd;fill:#0E7ABF;" d="M498.352,55.012c-1.914,7.528-2.042,7.145,2.552,7.145
		c3.317,0,3.828-0.383,3.062-2.297c-0.51-1.148-1.148-4.083-1.531-6.38C501.414,47.866,500.01,48.377,498.352,55.012z"/>
	<path style="fill-rule:evenodd;clip-rule:evenodd;fill:#0E7ABF;" d="M627.861,84.614c-2.68,6.635-4.593,12.377-4.211,12.76
		c1.531,1.659,10.973,1.914,13.525,0.51c3.956-2.042,7.783-8.804,7.783-13.78c0-3.19-1.021-5.359-3.955-8.039
		C634.496,70.068,633.22,70.961,627.861,84.614z"/>
	<path style="fill-rule:evenodd;clip-rule:evenodd;fill:#0E7ABF;" d="M324.311,75.81c-1.659,0.383-2.042,1.276-1.531,2.68
		c0.51,1.276,2.68,6.89,4.849,12.632c4.466,11.866,5.742,12.632,12.122,6.89c4.338-4.083,5.231-8.421,2.807-14.929
		C339.878,76.065,333.37,73.513,324.311,75.81z"/>
	<path style="fill-rule:evenodd;clip-rule:evenodd;fill:#0F73B3;" d="M301.089,252.785c-10.463,4.976-15.949,13.142-15.949,23.988
		c0,10.973,7.783,19.267,24.626,25.902c11.611,4.721,14.929,7.528,14.929,12.504c0,2.297-0.51,4.721-1.021,5.487
		c-3.19,4.849-15.822,5.997-27.816,2.424c-3.955-1.148-7.401-1.786-7.783-1.531c-1.021,1.021-4.083,14.036-3.573,14.929
		c1.404,2.169,16.843,5.231,26.285,5.231c8.294,0,11.611-0.638,17.481-3.318c3.955-1.786,8.294-4.338,9.697-5.487
		c6.38-5.742,9.314-21.819,5.231-29.475c-2.935-5.742-11.611-12.377-20.926-16.077c-12.76-5.104-16.332-7.656-16.97-12.249
		c-1.148-7.401,8.294-11.484,20.798-8.804c11.739,2.424,11.484,2.552,13.398-3.828c1.021-3.19,1.786-6.635,1.786-7.783
		c0-3.062-9.059-4.976-22.584-4.976C309.51,249.723,306.32,250.361,301.089,252.785z"/>
	<path style="fill-rule:evenodd;clip-rule:evenodd;fill:#0F73B3;" d="M386.067,252.275c-20.288,7.273-29.857,21.564-29.857,44.658
		c0,10.335,0.383,13.142,3.19,19.267c4.593,10.08,11.101,16.715,20.415,21.053c7.401,3.445,9.187,3.7,23.35,3.7
		c16.715,0,22.329-1.021,22.329-3.828c0-1.021-0.638-4.593-1.404-8.166l-1.276-6.252l-4.721,1.276
		c-2.552,0.766-9.059,1.021-14.291,0.766c-7.656-0.51-10.718-1.276-15.056-4.083c-7.401-4.593-11.739-13.653-11.739-24.498
		c0-19.777,10.718-30.623,29.985-30.24c4.976,0,10.463,0.638,12.377,1.404c3.318,1.404,3.573,1.276,4.721-3.318
		c3.19-11.994,3.317-11.101-2.169-12.76C413.883,248.83,394.106,249.34,386.067,252.275z"/>
	<polygon style="fill-rule:evenodd;clip-rule:evenodd;fill:#0F73B3;" points="216.237,295.657 216.237,340.316 244.309,340.316 
		272.38,340.316 272.38,332.66 272.38,325.132 254.261,324.749 236.015,324.366 235.632,313.138 235.249,302.037 251.964,302.037 
		268.552,302.037 268.552,293.998 268.552,286.088 252.347,286.088 236.015,286.088 236.015,276.518 236.015,266.948 
		253.623,266.565 271.104,266.183 271.104,258.654 271.104,250.999 243.671,250.999 216.237,250.999 	"/>
	<path style="fill-rule:evenodd;clip-rule:evenodd;fill:#0F73B3;" d="M439.785,283.153c0.383,28.071,0.766,33.047,2.935,38.024
		c3.573,8.677,8.166,13.78,15.567,17.353c6.252,3.062,7.783,3.318,19.139,2.807c14.418-0.638,20.67-3.062,27.05-10.846
		c7.401-8.932,8.166-13.142,8.804-47.976l0.51-31.516h-10.208h-10.335l-0.383,31.516c-0.383,34.706-0.893,37.003-8.677,41.724
		c-7.273,4.211-15.311,2.169-20.415-5.231c-3.19-4.593-3.19-4.976-3.573-36.365l-0.383-31.644h-10.335h-10.208L439.785,283.153z"/>
	<polygon style="fill-rule:evenodd;clip-rule:evenodd;fill:#0F73B3;" points="531.399,295.657 531.399,340.316 560.108,340.316 
		588.817,340.316 588.817,332.66 588.817,325.004 570.315,325.004 551.814,325.004 551.814,313.521 551.814,302.037 
		568.402,302.037 584.989,302.037 584.989,294.381 584.989,286.853 568.784,286.47 552.452,286.088 552.069,276.135 551.687,266.31 
		569.039,266.31 586.265,266.31 586.265,258.654 586.265,250.999 558.832,250.999 531.399,250.999 	"/>
	<polygon style="fill-rule:evenodd;clip-rule:evenodd;fill:#0F73B3;" points="602.852,295.657 602.852,340.316 630.923,340.316 
		658.994,340.316 658.994,332.022 658.994,323.728 641.131,323.728 623.268,323.728 623.268,287.363 623.268,250.999 
		613.06,250.999 602.852,250.999 	"/>
	<path style="fill-rule:evenodd;clip-rule:evenodd;fill:#0F73B3;" d="M689.49,264.013c-2.169,7.273-6.125,20.288-8.804,29.092
		c-7.783,25.136-14.036,45.807-14.036,46.572c0,0.383,4.593,0.638,10.08,0.638h10.208l1.914-6.763
		c1.021-3.573,2.424-8.677,2.935-11.101l1.148-4.466l13.398-0.383l13.27-0.383l3.19,11.101c1.786,5.997,3.828,11.228,4.593,11.611
		c0.766,0.255,5.742,0.383,10.973,0.128l9.57-0.383l-13.78-44.021l-13.653-44.021l-13.525-0.383l-13.398-0.383L689.49,264.013z
		 M711.181,283.025c2.169,8.166,4.211,15.694,4.721,16.843c0.638,1.914-0.51,2.169-9.442,2.169h-10.335l2.552-8.677
		c1.404-4.721,3.445-12.76,4.593-17.863c1.148-5.104,2.552-8.804,3.062-8.294C706.843,267.714,709.012,274.859,711.181,283.025z"/>
	<path style="fill-rule:evenodd;clip-rule:evenodd;fill:#0F73B3;" d="M401.889,358.179c-15.056,3.19-27.305,12.76-33.302,25.902
		c-3.19,7.018-3.7,9.314-3.7,20.671c0,11.994,0.255,13.398,4.211,21.308c7.911,16.077,22.329,23.988,43.638,23.988
		c8.166,0,20.033-2.169,21.053-3.828c0.383-0.51,0-4.211-0.766-8.039c-1.531-7.145-1.531-7.145-5.487-6.252
		c-2.169,0.51-8.294,0.893-13.525,0.893c-8.166,0-10.463-0.51-15.567-3.445c-8.294-4.976-12.504-13.525-12.504-25.774
		c0.128-23.478,16.715-34.451,42.362-28.199c3.19,0.893,3.445,0.51,4.849-4.593c0.766-3.062,1.659-6.507,2.042-7.656
		c0.383-1.531-0.638-2.552-3.573-3.573C426.005,357.541,408.269,356.776,401.889,358.179z"/>
	<path style="fill-rule:evenodd;clip-rule:evenodd;fill:#0F73B3;" d="M618.674,358.179c-13.27,2.807-26.668,13.142-32.537,24.881
		c-2.68,5.742-3.062,8.039-3.062,21.691c0,13.27,0.383,16.077,2.807,21.053c6.252,12.377,16.587,20.033,30.751,23.095
		c8.294,1.659,27.943,0.893,32.154-1.404c2.424-1.276,2.68-2.169,1.914-8.039c-0.51-3.7-1.276-7.018-1.786-7.528
		c-0.51-0.51-2.807-0.383-5.231,0.255c-11.356,3.317-25.519,0.383-32.792-6.635c-9.697-9.442-10.718-30.113-2.042-41.596
		c5.359-7.145,12.249-9.825,23.988-9.57c5.614,0.128,11.611,0.383,13.27,0.638c2.552,0.383,3.19-0.383,4.721-5.359
		c2.297-7.783,2.297-8.294-1.404-9.952C645.214,357.796,625.182,356.776,618.674,358.179z"/>
	<polygon style="fill-rule:evenodd;clip-rule:evenodd;fill:#0F73B3;" points="212.41,366.473 212.41,374.639 224.276,375.022 
		236.015,375.405 236.398,412.024 236.653,448.772 246.222,448.772 255.792,448.772 256.047,412.024 256.43,375.405 
		268.935,375.022 281.311,374.639 281.311,366.473 281.311,358.179 246.86,358.179 212.41,358.179 	"/>
	<polygon style="fill-rule:evenodd;clip-rule:evenodd;fill:#0F73B3;" points="295.347,403.476 295.347,448.772 323.418,448.772 
		351.489,448.772 351.489,440.478 351.489,432.185 332.988,432.185 314.486,432.185 314.486,421.339 314.486,410.493 
		331.074,410.493 347.661,410.493 347.661,402.2 347.661,393.906 331.074,393.906 314.486,393.906 314.486,384.336 314.486,374.767 
		332.35,374.767 350.213,374.767 350.213,366.473 350.213,358.179 322.78,358.179 295.347,358.179 	"/>
	<path style="fill-rule:evenodd;clip-rule:evenodd;fill:#0F73B3;" d="M451.014,403.476v45.296h8.932h9.059l-0.383-33.175
		c-0.255-18.246,0-33.175,0.638-33.175c0.51,0,0.893,0.766,1.021,1.531c0,2.552,8.294,19.012,21.564,42.872l12.122,21.946h10.59
		h10.463v-45.296v-45.296h-9.059H506.9l0.51,31.899c0.128,17.481,0,31.389-0.383,30.878s-2.042-4.083-3.573-7.911
		c-1.531-3.828-8.677-17.608-15.949-30.623l-13.142-23.605l-11.611-0.383l-11.739-0.383V403.476z"/>
	<polygon style="fill-rule:evenodd;clip-rule:evenodd;fill:#0F73B3;" points="545.434,403.476 545.434,448.772 555.642,448.772 
		565.85,448.772 565.85,403.476 565.85,358.179 555.642,358.179 545.434,358.179 	"/>
	<path style="fill-rule:evenodd;clip-rule:evenodd;fill:#0F73B3;" d="M683.238,381.402c-3.828,12.887-8.804,29.347-11.101,36.748
		c-2.297,7.401-5.359,17.353-6.635,22.074l-2.552,8.677l10.463-0.383l10.463-0.383l2.935-11.228l3.062-11.101h13.27h13.27
		l3.445,11.484l3.573,11.484h10.463c5.869,0,10.59-0.383,10.59-1.021c0-0.51-6.252-20.67-13.78-44.914l-13.78-44.021l-13.27-0.383
		l-13.398-0.255L683.238,381.402z M709.522,396.968c1.659,5.614,3.062,10.846,3.062,11.866c0,1.276-2.424,1.659-9.57,1.659
		c-5.231,0-9.57-0.255-9.57-0.766c0-0.383,1.659-7.018,3.7-14.929c2.042-7.911,4.083-16.077,4.593-18.119
		c0.893-3.7,1.021-3.573,2.807,3.19C705.567,383.698,707.864,391.482,709.522,396.968z"/>
	<path style="fill-rule:evenodd;clip-rule:evenodd;fill:#0F73B3;" d="M219.172,466.253l-5.487,0.51v42.617v42.489l8.549,1.021
		c12.504,1.276,29.092-0.128,39.299-3.445c7.273-2.424,10.208-4.211,15.949-10.08c9.187-9.187,12.122-16.843,12.122-32.537
		c0-9.952-0.51-12.377-3.573-18.757C276.718,469.06,257.578,462.808,219.172,466.253z M257.068,483.733
		c8.676,4.338,12.122,11.228,11.994,24.371c0,7.783-0.638,11.356-2.68,15.312c-5.359,10.08-13.27,14.673-25.902,14.673h-7.656
		v-28.581v-28.709l2.935-0.51C240.863,479.14,251.199,480.926,257.068,483.733z"/>
	<path style="fill-rule:evenodd;clip-rule:evenodd;fill:#0F73B3;" d="M400.613,467.273c-10.718,4.083-18.246,15.822-16.843,26.285
		c1.148,8.421,6.38,13.653,20.926,20.926c15.694,7.911,16.97,8.804,16.97,14.036c0,8.804-11.484,11.994-26.795,7.145
		c-4.466-1.404-8.421-2.424-8.549-2.169c-0.255,0.255-1.148,3.7-1.914,7.656c-1.786,8.549-1.659,8.804,9.187,11.101
		c10.973,2.297,26.157,0.893,33.813-3.062c13.27-6.89,17.991-22.712,10.59-35.089c-3.062-5.104-9.059-8.932-20.033-13.142
		c-8.677-3.317-15.439-8.549-15.439-11.866c0-1.276,1.404-3.573,3.19-5.231c2.552-2.68,4.338-3.19,10.59-3.19
		c4.211,0,9.952,0.766,12.76,1.786l5.104,1.786l1.914-7.528c1.914-7.401,1.786-7.656-0.893-9.059
		C430.981,465.232,406.738,464.977,400.613,467.273z"/>
	<path style="fill-rule:evenodd;clip-rule:evenodd;fill:#0F73B3;" d="M678.517,466.253l-5.487,0.51v42.617v42.489l8.549,1.021
		c12.249,1.276,29.475-0.255,39.555-3.573c7.018-2.297,9.952-4.211,15.694-9.953c9.059-9.059,11.994-16.97,12.122-31.899
		c0-10.846-2.297-21.053-4.593-19.777c-0.638,0.51-0.766,0-0.51-0.893c1.021-2.68-7.273-11.484-14.163-15.311
		c-3.445-1.786-9.697-3.955-13.78-4.721C708.757,465.487,690.383,465.232,678.517,466.253z M716.413,483.606
		c9.952,5.104,14.418,17.225,11.739,31.771c-2.807,14.801-12.632,22.712-28.199,22.712h-7.783v-28.581v-28.709l2.935-0.51
		C700.335,479.14,710.671,480.799,716.413,483.606z"/>
	<polygon style="fill-rule:evenodd;clip-rule:evenodd;fill:#0F73B3;" points="299.175,509.38 299.175,552.125 326.608,552.125 
		354.041,552.125 354.041,544.469 354.041,536.813 336.177,536.813 318.186,536.813 318.569,526.223 318.952,515.76 
		334.646,515.377 350.213,514.994 350.213,507.466 350.213,499.81 334.263,499.81 318.314,499.81 318.314,490.879 318.314,481.947 
		335.539,481.947 352.765,481.947 352.765,474.291 352.765,466.635 325.97,466.635 299.175,466.635 	"/>
	<path style="fill-rule:evenodd;clip-rule:evenodd;fill:#0F73B3;" d="M470.408,470.081c-0.766,2.042-2.552,7.273-3.955,11.866
		c-1.404,4.593-6.507,21.564-11.484,37.768s-9.059,30.24-9.059,31.006c0,0.893,3.317,1.404,9.442,1.404h9.57l1.914-7.018
		c1.148-3.828,2.424-8.677,2.807-10.846l0.893-3.828h13.015h13.015l3.062,10.463l3.062,10.59l10.463,0.383l10.463,0.383
		l-1.148-3.573c-0.51-1.914-2.552-8.166-4.211-13.78c-1.786-5.614-7.018-22.329-11.484-37.003
		c-4.593-14.801-8.677-27.816-9.187-29.092c-0.766-1.914-2.68-2.169-13.398-2.169C471.812,466.635,471.684,466.635,470.408,470.081z
		 M489.42,501.597c2.042,7.018,3.7,13.142,3.7,13.78c0,1.276-17.481,1.404-18.374,0c-0.255-0.51,1.021-7.018,3.062-14.291
		c2.042-7.401,4.083-15.184,4.593-17.225l0.893-3.828l1.276,4.466C485.209,486.923,487.378,494.706,489.42,501.597z"/>
	<polygon style="fill-rule:evenodd;clip-rule:evenodd;fill:#0F73B3;" points="531.399,509.38 531.399,552.125 558.194,552.125 
		584.989,552.125 584.989,544.469 584.989,536.941 568.146,536.558 551.176,536.175 550.793,501.341 550.538,466.635 
		540.968,466.635 531.399,466.635 	"/>
	<path style="fill-rule:evenodd;clip-rule:evenodd;fill:#0F73B3;" d="M588.817,491.644c0,40.448,3.19,50.783,17.863,58.311
		c6.507,3.318,7.911,3.573,18.501,3.19c17.736-0.766,26.795-6.89,32.282-21.691c1.404-4.211,2.042-12.632,2.552-35.216l0.51-29.602
		h-9.697h-9.697v25.519c0,28.837-1.148,36.492-6.38,42.107c-3.062,3.318-4.466,3.828-10.208,3.828
		c-5.487,0-7.145-0.638-10.208-3.573c-5.104-5.231-6.38-13.398-6.38-42.362v-25.519h-9.57h-9.57V491.644z"/>
	<path style="fill-rule:evenodd;clip-rule:evenodd;fill:#0E7ABF;" d="M263.193,589.255c-10.973,4.083-13.27,35.472-3.317,45.807
		c3.317,3.573,4.466,3.955,8.549,3.318c8.932-1.404,12.377-9.059,12.122-26.923c-0.128-12.504-2.68-18.757-8.804-21.564
		c-2.297-1.148-4.466-2.042-4.721-1.914C266.893,587.979,265.107,588.617,263.193,589.255z M273.145,597.038
		c1.531,2.807,2.169,7.528,2.297,14.418c0.128,13.525-1.148,19.267-4.976,21.819c-2.935,1.914-3.445,1.914-6.252,0
		c-5.997-3.828-7.656-24.243-2.935-35.599c1.786-3.956,2.68-4.721,5.869-4.721C270.21,592.955,271.486,593.848,273.145,597.038z"/>
	<path style="fill-rule:evenodd;clip-rule:evenodd;fill:#0E7ABF;" d="M461.094,590.786c-5.614,3.7-7.783,10.08-7.783,23.35
		c0,20.926,10.08,31.261,20.415,20.926c4.976-4.976,7.145-14.163,6.252-26.285c-0.766-10.59-3.828-16.97-9.187-19.395
		C466.453,587.341,466.07,587.341,461.094,590.786z M472.577,597.421c2.424,5.104,3.318,21.691,1.531,28.454
		c-0.893,3.318-2.807,6.125-4.721,7.528c-3.062,1.914-3.317,1.914-6.38-1.021c-6.125-6.125-6.763-30.623-0.893-37.13
		C465.304,591.679,470.408,592.7,472.577,597.421z"/>
	<path style="fill-rule:evenodd;clip-rule:evenodd;fill:#0E7ABF;" d="M597.876,589.382c-5.614,2.935-8.294,9.315-8.804,21.308
		c-0.638,13.525,1.148,20.543,6.252,24.881c4.849,4.083,8.804,4.211,13.525,0.255c4.721-3.955,6.763-10.718,6.763-22.074
		c0-12.122-0.893-16.077-4.976-20.67C606.68,588.489,602.087,587.213,597.876,589.382z M608.211,598.059
		c1.531,3.062,2.297,7.528,2.297,14.036c0,11.484-1.786,18.374-5.231,20.926c-7.273,4.976-11.994-4.338-11.101-21.946
		c0.638-13.525,2.935-18.501,8.421-17.863C605.021,593.466,606.68,594.869,608.211,598.059z"/>
	<path style="fill-rule:evenodd;clip-rule:evenodd;fill:#0E7ABF;" d="M222.617,613.243c0,27.433-0.255,26.795,10.973,25.009
		c7.528-1.021,11.994-6.38,11.994-14.036c0-4.466-0.766-6.252-3.445-8.932c-1.914-1.786-3.955-3.19-4.466-3.19
		c-0.383,0,0.893-1.659,2.935-3.7c3.7-3.7,4.721-8.677,2.935-13.525c-1.276-3.19-7.528-5.742-14.546-5.742h-6.38V613.243z
		 M237.163,594.997c2.68,2.68,2.552,9.825-0.128,12.377c-1.276,1.021-3.828,2.424-5.742,2.807l-3.573,0.893v-9.059v-9.059h3.7
		C233.463,592.955,236.142,593.848,237.163,594.997z M238.312,617.326c3.445,4.211,2.935,11.866-1.148,15.056
		c-1.914,1.531-4.721,2.68-6.38,2.68c-2.935,0-3.062-0.255-3.062-10.973v-11.101l4.211,0.893
		C234.101,614.264,237.036,615.922,238.312,617.326z"/>
	<path style="fill-rule:evenodd;clip-rule:evenodd;fill:#0E7ABF;" d="M290.243,613.243c0,14.674,0.51,24.371,1.276,24.626
		c0.638,0.128,4.976,0.128,9.57,0c6.125-0.383,8.294-0.893,8.294-2.297c0-1.276-1.786-1.786-7.018-1.786h-7.018v-22.329
		c0-21.436-0.128-22.329-2.552-22.329S290.243,590.02,290.243,613.243z"/>
	<path style="fill-rule:evenodd;clip-rule:evenodd;fill:#0E7ABF;" d="M318.314,613.37c0,23.35,0.128,24.243,2.552,24.243
		s2.552-0.893,2.552-24.243c0-23.35-0.128-24.243-2.552-24.243S318.314,590.02,318.314,613.37z"/>
	<path style="fill-rule:evenodd;clip-rule:evenodd;fill:#0E7ABF;" d="M331.712,590.658c0.255,0.893,2.552,10.846,5.104,22.074
		c6.125,26.795,5.487,25.136,8.677,24.626c1.786-0.255,3.062-1.659,3.7-4.211c1.404-5.614,9.952-42.745,9.952-43.383
		c0-0.383-1.148-0.638-2.424-0.638c-2.935,0-2.807-0.51-7.273,23.222c-2.042,10.335-3.7,18.629-3.828,18.501
		c-0.255-0.128-2.169-9.57-4.466-21.053c-3.955-19.395-4.338-20.671-7.145-20.671C332.35,589.127,331.329,589.765,331.712,590.658z"
		/>
	<path style="fill-rule:evenodd;clip-rule:evenodd;fill:#0E7ABF;" d="M368.076,613.37c0,20.671,0.255,24.243,1.914,24.243
		s1.914-3.573,1.914-24.243c0-20.67-0.255-24.243-1.914-24.243S368.076,592.7,368.076,613.37z"/>
	<path style="fill-rule:evenodd;clip-rule:evenodd;fill:#0E7ABF;" d="M387.471,612.35c-2.935,12.887-5.359,23.733-5.359,24.243
		c0,0.638,1.021,1.021,2.424,1.021c1.786,0,2.68-1.276,3.19-4.849c1.659-9.059,1.786-9.187,7.783-9.187
		c5.614,0,5.614,0.128,7.018,5.359c0.766,3.062,1.659,6.252,1.914,7.018c0.638,1.786,4.466,2.297,4.466,0.51
		c0-0.51-2.297-11.228-5.104-23.733c-2.807-12.504-5.104-22.84-5.104-23.095s-1.276-0.51-2.935-0.51
		C392.957,589.127,392.447,590.531,387.471,612.35z M398.061,605.587c2.807,13.525,2.68,14.163-2.552,14.163
		s-5.104,0.255-2.552-13.142c1.021-5.487,1.914-10.335,1.914-10.846C394.871,593.083,396.403,597.676,398.061,605.587z"/>
	<path style="fill-rule:evenodd;clip-rule:evenodd;fill:#0E7ABF;" d="M419.115,613.37c0,20.671,0.255,24.243,1.914,24.243
		s1.914-3.062,2.042-20.16v-20.033l3.062,8.294c9.952,27.433,11.739,31.261,14.418,31.644c2.807,0.383,2.807,0.255,2.807-23.86
		c0-20.671-0.255-24.371-1.914-24.371c-1.531,0-1.914,3.445-2.169,20.033l-0.383,20.16l-4.849-13.142
		c-7.528-20.033-10.846-27.05-13.015-27.05C419.37,589.127,419.115,592.572,419.115,613.37z"/>
	<path style="fill-rule:evenodd;clip-rule:evenodd;fill:#0E7ABF;" d="M508.176,610.436l-0.383,21.436l-4.083,1.914
		c-5.997,2.807-5.614,5.614,0.51,4.721c8.549-1.404,9.314-3.7,9.314-28.071c0-20.415-0.128-21.308-2.552-21.308
		C508.559,589.127,508.432,590.148,508.176,610.436z"/>
	<path style="fill-rule:evenodd;clip-rule:evenodd;fill:#0E7ABF;" d="M532.675,590.148c0,0.638-2.042,9.953-4.466,20.798
		c-2.552,10.846-4.849,21.181-5.359,23.095c-0.51,2.807-0.255,3.573,1.404,3.573c2.297,0,2.424-0.383,4.593-8.677
		c1.404-5.231,1.404-5.359,7.018-5.359c5.359,0,5.614,0.128,6.89,4.721c0.766,2.68,1.404,5.869,1.404,7.018
		c0,1.404,1.021,2.297,2.552,2.297c1.404,0,2.552-0.51,2.552-1.021c0-0.766-7.528-35.854-9.57-44.658
		c-0.51-1.914-1.659-2.807-3.828-2.807C534.078,589.127,532.675,589.638,532.675,590.148z M538.417,605.204
		c2.68,14.418,2.68,14.546-2.552,14.546c-3.19,0-4.466-0.51-4.466-2.042c0-2.935,4.211-23.605,4.593-23.095
		C536.247,594.869,537.268,599.59,538.417,605.204z"/>
	<path style="fill-rule:evenodd;clip-rule:evenodd;fill:#0E7ABF;" d="M559.47,613.37c0,20.671,0.255,24.243,1.914,24.243
		c1.021,0,1.914-1.021,2.042-2.297c0-1.148,0.128-5.614,0.255-9.825l0.255-7.656l4.976-0.766c3.445-0.51,6.252-2.169,8.804-4.976
		c3.318-3.7,3.7-4.849,3.062-10.59c-0.766-8.932-4.849-12.377-14.418-12.377h-6.89V613.37z M574.016,595.762
		c1.148,1.531,2.042,4.976,2.042,7.656c0,5.997-3.573,9.952-8.932,9.952h-3.828v-10.208v-10.208h4.338
		C570.826,592.955,572.612,593.848,574.016,595.762z"/>
	<path style="fill-rule:evenodd;clip-rule:evenodd;fill:#0E7ABF;" d="M625.82,613.37c0,20.671,0.255,24.243,1.914,24.243
		s1.914-3.062,1.914-20.16l0.128-20.033l4.211,11.484c9.825,26.54,10.59,28.071,13.398,28.454c2.68,0.383,2.68,0.128,2.68-23.86
		c0-20.798-0.255-24.371-1.914-24.371c-1.914,0-2.552,9.952-1.914,32.154c0.128,4.083,0,7.401-0.383,7.401
		c-0.255,0-3.828-8.932-8.039-19.777c-5.742-15.056-8.039-19.777-9.697-19.777C625.947,589.127,625.82,591.169,625.82,613.37z"/>
	<path style="fill-rule:evenodd;clip-rule:evenodd;fill:#0E7ABF;" d="M661.546,613.37v24.243h9.57c7.656,0,9.57-0.383,9.57-1.914
		c0-1.531-1.659-1.914-7.018-1.914h-7.018v-9.57v-9.57h6.38c4.849,0,6.38-0.51,6.38-1.914s-1.531-1.914-6.38-1.914h-6.38v-8.932
		v-8.932h6.38c4.849,0,6.38-0.51,6.38-1.914c0-1.531-1.786-1.914-8.932-1.914h-8.932V613.37z"/>
	<path style="fill-rule:evenodd;clip-rule:evenodd;fill:#0E7ABF;" d="M692.042,592.828c-6.38,6.38-4.849,12.504,5.487,21.819
		c5.359,4.849,6.38,6.507,6.507,10.463c0.128,6.89-2.169,8.932-9.57,8.421c-5.104-0.255-6.125,0-6.125,1.786
		c0,2.552,7.018,4.338,11.356,2.935c5.359-1.659,9.059-6.763,9.059-12.377c0-4.976-4.083-13.78-6.38-13.78
		c-0.51,0-2.807-1.786-4.976-4.083c-7.018-7.273-4.466-15.056,5.104-15.056c3.573,0,4.976-0.51,4.976-1.914
		s-1.531-1.914-5.869-1.914C696.89,589.127,695.104,589.765,692.042,592.828z"/>
	<path style="fill-rule:evenodd;clip-rule:evenodd;fill:#0E7ABF;" d="M726.62,589.638c0,0.255-2.297,10.463-5.104,22.84
		c-5.742,25.264-5.742,25.136-3.19,25.136c1.786,0,4.466-7.145,4.466-11.866c0-1.786,1.148-2.169,6.252-2.169h6.38l1.531,7.018
		c1.276,5.614,2.042,7.018,4.083,7.018c1.914,0,2.297-0.638,1.786-2.935c-0.383-1.531-2.807-12.377-5.487-24.243
		c-4.466-20.033-4.976-21.308-7.783-21.308C727.896,589.127,726.62,589.382,726.62,589.638z M732.362,606.991
		c2.68,13.015,2.68,12.76-3.318,12.76c-4.338,0-5.104-0.383-4.593-2.297c0.383-1.148,1.276-5.359,2.169-9.187
		C729.81,592.445,729.427,592.572,732.362,606.991z"/>
	<path style="fill-rule:evenodd;clip-rule:evenodd;fill:#0E7ABF;" d="M283.608,657.646c-2.042,0.51-2.297,2.807-2.297,24.754v24.116
		h5.869c12.377,0,18.374-8.039,18.374-24.626c0-10.846-1.786-16.587-6.507-20.798C295.985,658.284,287.691,656.498,283.608,657.646z
		 M293.433,662.622c5.359,2.552,7.018,7.018,7.018,19.267c0,14.418-3.7,20.798-11.994,20.798h-3.317v-20.16
		c0-11.101,0.383-20.67,0.893-21.053C287.308,660.198,288.839,660.326,293.433,662.622z"/>
	<path style="fill-rule:evenodd;clip-rule:evenodd;fill:#0E7ABF;" d="M367.438,658.029c-7.018,2.807-12.122,12.887-12.122,23.86
		c0,9.952,2.042,16.715,6.38,21.053c3.062,2.935,4.721,3.573,10.08,3.573c4.976,0,6.507-0.51,6.507-1.914
		c0-1.404-1.404-1.914-4.849-1.914c-8.166,0-13.015-7.528-13.015-20.415c0-12.76,4.593-20.415,12.249-20.415
		c4.593,0,6.89-2.169,4.211-3.955C374.711,656.498,370.883,656.625,367.438,658.029z"/>
	<path style="fill-rule:evenodd;clip-rule:evenodd;fill:#0E7ABF;" d="M392.192,658.667c-5.359,2.935-8.166,11.101-8.166,23.605
		c0,13.142,2.68,20.288,8.804,23.605c3.955,2.169,4.338,2.169,8.677,0.128c14.546-7.018,11.866-49.507-3.062-49.252
		C396.785,656.881,393.978,657.646,392.192,658.667z M399.848,661.857c3.955,2.042,5.869,8.804,5.742,20.415
		c0,14.163-2.552,20.415-8.039,20.415c-2.935,0-4.338-0.893-5.742-3.7c-4.849-9.314-3.445-32.537,2.169-36.492
		C397.168,660.198,397.041,660.198,399.848,661.857z"/>
	<path style="fill-rule:evenodd;clip-rule:evenodd;fill:#0E7ABF;" d="M425.622,659.943c-2.042,1.786-4.466,5.359-5.359,7.911
		c-2.169,6.763-1.786,24.371,0.766,30.623c4.338,10.973,16.587,11.484,21.819,0.893c3.317-6.763,3.445-28.454,0.128-34.578
		C438.509,656.498,432.002,654.584,425.622,659.943z M438.509,666.067c1.021,1.659,1.659,7.783,1.659,15.567
		c0,15.439-1.786,20.16-7.783,20.798c-3.445,0.383-4.211-0.255-6.252-4.466c-2.807-5.742-3.19-22.84-0.766-30.113
		C427.919,660.07,434.681,659.177,438.509,666.067z"/>
	<path style="fill-rule:evenodd;clip-rule:evenodd;fill:#0E7ABF;" d="M459.69,657.646l-3.573,0.51v22.967
		c0,12.504,0,23.222-0.128,23.733c0,0.638,0.893,1.148,1.914,1.404c1.531,0.383,2.042-1.404,2.297-9.57l0.383-9.952l4.721-0.766
		c5.487-0.893,8.166-2.807,10.718-7.656c3.828-7.528,0.766-18.119-5.742-19.65C464.283,657.263,463.135,657.136,459.69,657.646z
		 M470.663,664.792c1.786,2.169,2.169,4.083,1.659,8.294c-0.638,6.125-3.445,9.059-8.804,9.187h-3.573v-10.08
		c0-6.89,0.51-10.335,1.659-10.718C464.156,660.453,468.111,661.857,470.663,664.792z"/>
	<path style="fill-rule:evenodd;clip-rule:evenodd;fill:#0E7ABF;" d="M488.271,657.774c-1.148,0.383-1.531,6.507-1.531,24.626
		v24.116h9.57c7.656,0,9.57-0.383,9.57-1.914c0-1.531-1.659-1.914-7.018-1.914h-7.145l0.383-9.952l0.383-9.825l6.125-0.383
		c4.211-0.255,5.997-0.893,5.997-2.297c0-1.276-1.659-1.786-6.38-1.786h-6.38v-8.294v-8.294h6.252c5.997,0,9.952-1.914,6.252-3.062
		C501.669,657.901,490.058,657.136,488.271,657.774z"/>
	<path style="fill-rule:evenodd;clip-rule:evenodd;fill:#0E7ABF;" d="M519.022,657.774l-4.211,0.383V682.4
		c0,23.222,0.128,24.116,2.552,24.116c2.297,0,2.552-0.893,2.552-10.846c0-10.59,0-10.846,3.062-10.846
		c4.593,0,6.763,2.935,8.421,11.228c0.766,3.956,1.659,8.039,1.914,8.804c0.766,2.169,4.466,2.042,4.466-0.128
		c0-5.104-2.935-15.949-5.104-18.884c-2.552-3.445-2.552-3.445-0.128-4.849c3.19-1.659,5.614-9.187,4.593-13.908
		C535.609,660.07,528.847,656.625,519.022,657.774z M530.123,663.898c2.68,2.68,2.424,11.228-0.51,14.418
		c-1.404,1.531-3.956,2.68-6.125,2.68h-3.573v-9.315c0-5.231,0.383-9.825,0.893-10.335
		C522.084,660.07,527.826,661.602,530.123,663.898z"/>
	<path style="fill-rule:evenodd;clip-rule:evenodd;fill:#0E7ABF;" d="M590.348,658.029c-4.083,1.659-8.932,7.528-10.463,12.76
		c-1.786,6.38-1.531,21.053,0.51,26.029c2.68,6.507,7.656,9.697,15.056,9.697c4.466,0,6.125-0.51,5.869-1.659
		c-0.383-0.766-1.914-1.659-3.7-1.914c-7.273-0.766-8.677-1.659-11.228-7.018c-4.849-9.952-2.552-29.475,3.828-32.792
		c1.276-0.766,3.955-1.276,6.125-1.276c4.211,0,5.487-2.935,1.914-4.338C595.707,656.498,593.921,656.625,590.348,658.029z"/>
	<path style="fill-rule:evenodd;clip-rule:evenodd;fill:#0E7ABF;" d="M634.751,657.646c-6.89,2.552-10.973,14.546-9.825,29.219
		c1.404,19.267,13.015,26.923,22.329,14.801c3.062-4.083,3.445-5.742,3.955-16.715c0.255-6.763-0.255-14.163-1.021-16.97
		C647.511,659.432,641.386,655.222,634.751,657.646z M644.576,666.833c2.552,6.125,2.552,24.881-0.128,31.133
		c-1.659,3.955-2.552,4.721-5.742,4.721c-3.062,0-4.338-0.893-5.997-3.956c-4.593-8.932-3.828-29.857,1.404-35.089
		C638.069,659.688,642.152,660.836,644.576,666.833z"/>
	<path style="fill-rule:evenodd;clip-rule:evenodd;fill:#0E7ABF;" d="M315.762,682.272v24.243h9.57c7.656,0,9.57-0.383,9.57-1.914
		c0-1.531-1.659-1.914-7.018-1.914h-7.018V692.48v-10.208h5.742c4.211,0,5.742-0.51,5.742-1.914c0-1.404-1.531-1.914-5.742-1.914
		h-5.742v-8.294v-8.294h6.38c4.849,0,6.38-0.51,6.38-1.914c0-1.531-1.786-1.914-8.932-1.914h-8.932V682.272z"/>
	<path style="fill-rule:evenodd;clip-rule:evenodd;fill:#0E7ABF;" d="M550.793,681.251c-2.935,12.887-5.359,23.733-5.359,24.243
		c0,0.638,1.021,1.021,2.297,1.021c1.786,0,2.68-1.659,3.828-7.656l1.659-7.656h5.614c5.997,0,6.125,0.128,7.783,9.315
		c0.766,4.593,3.445,7.401,5.231,5.614c0.383-0.51-1.148-9.315-3.445-19.65c-6.507-29.73-6.125-28.454-9.442-28.454
		C556.28,658.029,555.77,659.432,550.793,681.251z M561.894,676.53c1.148,5.997,1.914,11.228,1.531,11.484
		c-0.255,0.383-2.424,0.638-4.849,0.638c-2.935,0-4.211-0.638-4.211-2.042c0-3.828,4.338-23.86,4.849-22.457
		C559.47,665.047,560.746,670.661,561.894,676.53z"/>
	<path style="fill-rule:evenodd;clip-rule:evenodd;fill:#0E7ABF;" d="M610.253,660.07c-0.255,1.148-0.255,12.122,0,24.371
		c0.383,20.16,0.638,22.202,2.552,21.819c1.148-0.255,2.042-0.893,1.914-1.404c-0.255-0.51-0.383-11.228-0.383-23.86
		c0-19.012-0.255-22.967-1.786-22.967C611.529,658.029,610.508,658.922,610.253,660.07z"/>
	<path style="fill-rule:evenodd;clip-rule:evenodd;fill:#0E7ABF;" d="M661.546,682.145c0,20.798,0.255,24.371,1.914,24.371
		s1.914-3.19,1.914-20.798l0.128-20.671l7.656,19.777c4.211,10.846,8.166,20.288,8.804,20.926c0.638,0.638,1.914,0.766,2.807,0.51
		c1.276-0.51,1.531-5.742,1.276-24.498c-0.255-20.415-0.638-23.733-2.297-23.733c-1.786,0-1.914,2.552-1.531,19.65
		c0.128,10.846,0.128,19.395-0.128,19.139s-3.828-8.932-7.911-19.395c-5.869-15.056-7.911-18.884-9.952-19.139
		C661.546,657.901,661.546,658.284,661.546,682.145z"/>
	<path style="fill-rule:evenodd;clip-rule:evenodd;fill:#0E7ABF;" d="M400.613,723.358c-0.638,1.786-10.846,46.828-10.846,47.721
		c0,0.255,1.021,0.51,2.297,0.51c1.786,0,2.68-1.786,3.955-7.656l1.659-7.656h6.125h6.125l0.893,5.869
		c1.148,8.166,1.786,9.442,4.721,9.442c1.786,0,2.297-0.638,1.786-2.297c-0.383-1.148-2.807-11.356-5.231-22.584
		c-2.552-11.228-4.849-21.436-5.231-22.712C406.1,721.444,401.506,721.061,400.613,723.358z M406.355,739.69
		c0.893,5.231,1.914,10.335,2.169,11.101c0.51,1.148-0.893,1.659-4.721,1.659c-5.359,0-5.359,0-4.593-3.828
		c0.383-2.169,1.404-7.656,2.297-12.122c0.766-4.593,1.914-7.911,2.297-7.401C404.314,729.738,405.462,734.459,406.355,739.69z"/>
	<path style="fill-rule:evenodd;clip-rule:evenodd;fill:#0E7ABF;" d="M426.77,746.708c0,21.308,0.255,24.881,1.914,24.881
		c1.659,0,1.914-3.19,1.914-20.798l0.128-20.671l7.018,18.501c3.955,10.208,7.401,19.522,7.783,20.67
		c0.383,1.276,1.786,2.297,3.062,2.297c2.297,0,2.424-1.404,2.424-24.881c0-21.053-0.255-24.881-1.914-24.881
		c-1.531,0-1.914,3.318-2.169,19.905l-0.383,19.905l-7.528-19.905c-5.997-15.567-8.166-19.905-9.952-19.905
		C426.898,721.827,426.77,723.613,426.77,746.708z"/>
	<path style="fill-rule:evenodd;clip-rule:evenodd;fill:#0E7ABF;" d="M463.008,723.486c-0.255,0.893-0.383,11.994-0.255,24.498
		l0.383,22.967h6.38c13.142-0.128,19.267-9.315,18.246-27.05c-0.766-11.994-3.317-17.736-9.314-20.288
		C472.96,721.316,463.901,721.316,463.008,723.486z M478.957,729.738c2.935,4.211,3.7,7.145,3.828,15.694
		c0.255,13.908-4.338,22.329-12.122,22.329h-3.062V746.58v-21.308l4.593,0.766C475.001,726.548,477.681,727.951,478.957,729.738z"/>
	<path style="fill-rule:evenodd;clip-rule:evenodd;fill:#0E7ABF;" d="M498.224,746.708c0,23.988,0.128,24.881,2.552,24.881
		s2.552-0.893,2.552-24.881c0-23.988-0.128-24.881-2.552-24.881S498.224,722.72,498.224,746.708z"/>
	<path style="fill-rule:evenodd;clip-rule:evenodd;fill:#0E7ABF;" d="M514.811,746.708c0,21.308,0.255,24.881,1.914,24.881
		s1.914-3.19,1.914-20.798l0.128-20.671l6.763,17.991c8.166,21.309,9.187,23.478,11.611,23.478c1.659,0,1.914-3.828,1.914-24.881
		s-0.255-24.881-1.914-24.881c-1.531,0-1.914,3.445-2.169,20.033l-0.383,20.16l-2.297-6.38
		c-7.783-21.946-13.015-33.813-15.184-33.813S514.811,723.741,514.811,746.708z"/>
	<path style="fill-rule:evenodd;clip-rule:evenodd;fill:#0E7ABF;" d="M558.959,723.996c-0.383,1.276-2.68,11.484-5.231,22.712
		c-2.552,11.228-4.849,21.436-5.231,22.584c-0.51,1.659,0,2.297,1.914,2.297c2.042,0,2.807-1.276,4.083-7.656l1.531-7.656h5.997
		h5.997l1.531,7.656c1.276,6.38,1.914,7.656,4.211,7.656c2.042,0,2.424-0.51,1.786-2.935c-0.383-1.531-2.935-12.76-5.487-24.881
		c-4.466-20.288-4.976-21.946-7.656-21.946C560.873,721.827,559.342,722.848,558.959,723.996z M564.318,736.755
		c0.766,4.849,1.786,10.463,2.169,12.504c0.893,3.956,0.893,3.956-4.338,3.445c-2.935-0.255-5.231-0.893-5.231-1.404
		c0-0.383,0.893-4.211,1.914-8.421c1.021-4.211,1.786-9.187,1.914-11.228C560.746,725.272,562.787,728.079,564.318,736.755z"/>
	<path style="fill-rule:evenodd;clip-rule:evenodd;fill:#0E7ABF;" d="M246.605,116.513c-3.062,1.531-3.573,2.68-3.573,7.145
		c0,10.208,9.952,19.777,16.843,16.205c3.828-2.042,4.849-3.573,4.849-7.911c0-4.338-2.552-9.57-6.635-13.142
		C254.006,114.982,250.561,114.344,246.605,116.513z"/>
	<path style="fill-rule:evenodd;clip-rule:evenodd;fill:#0E7ABF;" d="M749.587,140.246c-1.021,1.659-1.659,3.317-1.531,3.828
		c0.128,0.638-0.255,0.893-0.893,0.638c-1.531-0.383-11.866,13.015-10.973,14.418c0.51,0.766,2.552,2.169,4.593,3.317
		c5.231,2.68,10.335,1.276,15.184-4.083c4.976-5.742,5.104-11.484,0.51-16.97C752.522,136.673,752.012,136.545,749.587,140.246z"/>
	<path style="fill-rule:evenodd;clip-rule:evenodd;fill:#0E7ABF;" d="M185.742,163.851l-2.807,2.297l4.466,4.338l4.338,4.211
		l2.169-3.19c1.148-1.786,1.914-4.593,1.659-6.252C195.057,161.427,189.698,160.661,185.742,163.851z"/>
	<path style="fill-rule:evenodd;clip-rule:evenodd;fill:#0E7ABF;" d="M814.151,207.106c-3.445,3.062-3.573,3.317-1.404,5.614
		c2.297,2.552,5.231,3.19,8.804,1.786c3.828-1.531,1.786-10.846-2.297-10.718C818.489,203.788,816.192,205.319,814.151,207.106z"/>
	<path style="fill-rule:evenodd;clip-rule:evenodd;fill:#0E7ABF;" d="M834.694,245.895c-3.573,2.297-6.252,4.976-6.763,7.018
		c-3.19,12.632,11.356,16.077,21.053,5.104c4.593-5.231,4.976-9.825,1.404-13.398C846.815,241.046,841.711,241.429,834.694,245.895z
		"/>
	<path style="fill-rule:evenodd;clip-rule:evenodd;fill:#0E7ABF;" d="M869.527,287.746c-2.424,1.148-4.593,2.169-4.849,2.297
		c-1.021,0.51,2.935,6.89,4.593,7.528c5.359,2.042,9.314-3.318,6.38-8.677C873.993,285.832,873.866,285.832,869.527,287.746z"/>
	<path style="fill-rule:evenodd;clip-rule:evenodd;fill:#DD2127;" d="M630.923,849.805c-7.783,3.955-11.356,16.587-7.018,25.136
		c6.635,13.015,28.581,11.739,33.813-1.914c2.169-5.614,1.531-12.632-1.659-17.353c-3.7-5.614-7.656-7.528-15.567-7.528
		C637.048,848.146,632.71,848.912,630.923,849.805z"/>
	<g>
		<path style="fill-rule:evenodd;clip-rule:evenodd;fill:#0F5A31;" d="M438.877,904.926
			c-79.492-8.421-152.222-36.365-214.999-82.682c-14.036-10.208-32.537-25.647-40.703-33.685l-5.213-5.213l-15.875,11.962
			c1.559,1.703,2.911,3.186,3.862,4.224c15.439,17.481,60.608,51.549,91.741,69.284c58.949,33.558,130.913,54.866,194.583,57.801
			c8.804,0.383,19.012,1.021,22.712,1.276l6.635,0.638v-10.846V906.84h-12.377C462.354,906.84,448.702,905.947,438.877,904.926z"/>
	</g>
	<path style="fill-rule:evenodd;clip-rule:evenodd;fill:#DD2127;" d="M210.769,775.107c-5.82-5.276-11.143-9.69-11.76-9.688
		c-0.493,0.002-2.895,2.595-5.844,4.951l-5.041,4.273l4.537,4.739c7.928,7.732,25.877,22.57,39.487,32.372
		c60.876,44.482,131.288,71.162,208.149,78.946c9.499,0.943,22.698,1.745,29.357,1.714l11.947-0.055l-0.067-14.428l-16.883-0.661
		C370.051,873.269,278.752,836.574,210.769,775.107z"/>
	<path style="fill-rule:evenodd;clip-rule:evenodd;fill:#DD2127;" d="M210.902,768.727c-5.82-5.276-8.711-7.408-8.711-7.408
		s-2.991,3.15-5.622,5.742l-4.745,4.625l0.971,1.317c7.928,7.732,25.877,22.57,39.487,32.372
		c60.876,44.482,131.288,71.162,208.149,78.946c9.499,0.943,22.698,1.745,29.357,1.714l11.947-0.055l-0.067-14.428l-16.883-0.661
		C370.184,866.89,278.885,830.194,210.902,768.727z"/>
	<path style="fill-rule:evenodd;clip-rule:evenodd;fill:#F0DF0E;" d="M201.926,784.221c-5.997-5.487-11.584-10.986-12.21-10.859
		c-0.361,0.073-3.348,3.019-6.688,5.377l-5.346,4.334l5.487,5.487c8.166,8.039,26.667,23.478,40.703,33.685
		c62.777,46.317,135.507,74.261,214.999,82.682c9.825,1.021,23.478,1.914,30.368,1.914h12.362v-14.929l-17.466-0.765
		C366.269,886.553,271.976,848.146,201.926,784.221z"/>
</g>
</svg>
