<?xml version="1.0" encoding="iso-8859-1"?>
<!-- Generator: Adobe Illustrator 18.0.0, SVG Export Plug-In . SVG Version: 6.00 Build 0)  -->
<!DOCTYPE svg PUBLIC "-//W3C//DTD SVG 1.1//EN" "http://www.w3.org/Graphics/SVG/1.1/DTD/svg11.dtd">
<svg version="1.1" id="Layer_1" xmlns="http://www.w3.org/2000/svg" xmlns:xlink="http://www.w3.org/1999/xlink" x="0px" y="0px"
	 viewBox="0 0 1943.965 596.831" style="enable-background:new 0 0 1943.965 596.831;" xml:space="preserve">
<g>
	<path style="fill-rule:evenodd;clip-rule:evenodd;fill:#FFFFFF;" d="M296.562,97.442c-15.068,7.166-22.969,18.927-22.969,34.546
		c0,15.803,11.209,27.747,35.465,37.302c16.722,6.799,21.499,10.842,21.499,18.008c0,3.308-0.735,6.799-1.47,7.901
		c-4.594,6.983-22.786,8.637-40.059,3.491c-5.696-1.654-10.658-2.573-11.209-2.205c-1.47,1.47-5.88,20.213-5.145,21.499
		c2.021,3.124,24.256,7.534,37.854,7.534c11.944,0,16.722-0.919,25.174-4.778c5.696-2.573,11.944-6.248,13.965-7.901
		c9.188-8.269,13.414-31.422,7.534-42.447c-4.226-8.269-16.722-17.824-30.136-23.153c-18.376-7.35-23.521-11.025-24.439-17.641
		c-1.654-10.658,11.944-16.538,29.952-12.679c16.906,3.491,16.538,3.675,19.294-5.513c1.47-4.594,2.573-9.555,2.573-11.209
		c0-4.41-13.047-7.166-32.525-7.166C308.69,93.031,304.096,93.95,296.562,97.442z"/>
	<path style="fill-rule:evenodd;clip-rule:evenodd;fill:#FFFFFF;" d="M418.943,96.707c-29.217,10.474-42.999,31.055-42.999,64.314
		c0,14.884,0.551,18.927,4.594,27.747c6.615,14.517,15.987,24.072,29.401,30.32c10.658,4.961,13.23,5.329,33.627,5.329
		c24.072,0,32.157-1.47,32.157-5.513c0-1.47-0.919-6.615-2.021-11.76l-1.838-9.004l-6.799,1.838
		c-3.675,1.103-13.047,1.47-20.581,1.103c-11.025-0.735-15.435-1.838-21.683-5.88c-10.658-6.615-16.906-19.662-16.906-35.281
		c0-28.482,15.435-44.101,43.183-43.55c7.166,0,15.068,0.919,17.824,2.021c4.778,2.021,5.145,1.838,6.799-4.778
		c4.594-17.273,4.778-15.987-3.124-18.376C459.002,91.745,430.52,92.48,418.943,96.707z"/>
	<polygon style="fill-rule:evenodd;clip-rule:evenodd;fill:#FFFFFF;" points="174.365,159.183 174.365,223.498 214.791,223.498 
		255.217,223.498 255.217,212.472 255.217,201.631 229.124,201.08 202.847,200.528 202.296,184.358 201.745,168.371 
		225.817,168.371 249.705,168.371 249.705,156.795 249.705,145.402 226.368,145.402 202.847,145.402 202.847,131.62 
		202.847,117.838 228.205,117.287 253.38,116.736 253.38,105.894 253.38,94.869 213.872,94.869 174.365,94.869 	"/>
	<path style="fill-rule:evenodd;clip-rule:evenodd;fill:#FFFFFF;" d="M496.305,141.175c0.551,40.426,1.103,47.593,4.226,54.759
		c5.145,12.495,11.76,19.846,22.418,24.991c9.004,4.41,11.209,4.778,27.563,4.043c20.764-0.919,29.768-4.41,38.956-15.619
		c10.658-12.863,11.76-18.927,12.679-69.092l0.735-45.388h-14.7h-14.884l-0.551,45.388c-0.551,49.981-1.286,53.289-12.495,60.088
		c-10.474,6.064-22.051,3.124-29.401-7.534c-4.594-6.615-4.594-7.166-5.145-52.37l-0.551-45.571H510.27h-14.7L496.305,141.175z"/>
	<polygon style="fill-rule:evenodd;clip-rule:evenodd;fill:#FFFFFF;" points="628.241,159.183 628.241,223.498 669.586,223.498 
		710.931,223.498 710.931,212.472 710.931,201.447 684.286,201.447 657.642,201.447 657.642,184.909 657.642,168.371 
		681.53,168.371 705.418,168.371 705.418,157.346 705.418,146.504 682.081,145.953 658.561,145.402 658.009,131.069 657.458,116.92 
		682.449,116.92 707.256,116.92 707.256,105.894 707.256,94.869 667.748,94.869 628.241,94.869 	"/>
	<polygon style="fill-rule:evenodd;clip-rule:evenodd;fill:#FFFFFF;" points="731.144,159.183 731.144,223.498 771.57,223.498 
		811.996,223.498 811.996,211.554 811.996,199.61 786.271,199.61 760.545,199.61 760.545,147.239 760.545,94.869 745.844,94.869 
		731.144,94.869 	"/>
	<path style="fill-rule:evenodd;clip-rule:evenodd;fill:#FFFFFF;" d="M855.914,113.612c-3.124,10.474-8.82,29.217-12.679,41.896
		c-11.209,36.2-20.213,65.968-20.213,67.071c0,0.551,6.615,0.919,14.517,0.919h14.7l2.756-9.739
		c1.47-5.145,3.491-12.495,4.226-15.987l1.654-6.431l19.294-0.551l19.111-0.551l4.594,15.987c2.573,8.637,5.513,16.17,6.615,16.722
		c1.102,0.368,8.269,0.551,15.803,0.184l13.782-0.551l-19.846-63.396l-19.662-63.396l-19.478-0.551l-19.294-0.551L855.914,113.612z
		 M887.152,140.992c3.124,11.76,6.064,22.602,6.799,24.256c0.919,2.756-0.735,3.124-13.598,3.124h-14.884l3.675-12.495
		c2.021-6.799,4.961-18.376,6.615-25.726c1.654-7.35,3.675-12.679,4.41-11.944C880.905,118.941,884.028,129.231,887.152,140.992z"/>
</g>
<g>
	<path style="fill-rule:evenodd;clip-rule:evenodd;fill:#FFFFFF;" d="M1276.217,93.632c-21.683,4.594-39.324,18.376-47.96,37.302
		c-4.594,10.107-5.329,13.414-5.329,29.768c0,17.273,0.368,19.294,6.064,30.687c11.393,23.153,32.157,34.546,62.844,34.546
		c11.76,0,28.85-3.124,30.32-5.513c0.551-0.735,0-6.064-1.103-11.577c-2.205-10.29-2.205-10.29-7.901-9.004
		c-3.124,0.735-11.944,1.286-19.478,1.286c-11.76,0-15.068-0.735-22.418-4.961c-11.944-7.166-18.008-19.478-18.008-37.119
		c0.184-33.811,24.072-49.614,61.007-40.61c4.594,1.286,4.961,0.735,6.983-6.615c1.102-4.41,2.389-9.372,2.94-11.025
		c0.551-2.205-0.919-3.675-5.145-5.145C1310.947,92.713,1285.405,91.61,1276.217,93.632z"/>
	<path style="fill-rule:evenodd;clip-rule:evenodd;fill:#FFFFFF;" d="M1588.418,93.632c-19.111,4.043-38.405,18.927-46.858,35.832
		c-3.859,8.269-4.41,11.577-4.41,31.238c0,19.111,0.551,23.153,4.043,30.32c9.004,17.824,23.888,28.85,44.285,33.26
		c11.944,2.389,40.242,1.286,46.306-2.021c3.491-1.838,3.859-3.124,2.756-11.577c-0.735-5.329-1.838-10.107-2.573-10.842
		c-0.735-0.735-4.043-0.551-7.534,0.368c-16.354,4.778-36.751,0.551-47.225-9.555c-13.965-13.598-15.435-43.366-2.94-59.904
		c7.718-10.29,17.641-14.149,34.546-13.782c8.085,0.184,16.722,0.551,19.111,0.919c3.675,0.551,4.594-0.551,6.799-7.718
		c3.308-11.209,3.308-11.944-2.021-14.333C1626.639,93.08,1597.789,91.61,1588.418,93.632z"/>
	<polygon style="fill-rule:evenodd;clip-rule:evenodd;fill:#FFFFFF;" points="1003.34,105.576 1003.34,117.336 1020.43,117.887 
		1037.335,118.439 1037.886,171.176 1038.254,224.098 1052.036,224.098 1065.817,224.098 1066.185,171.176 1066.736,118.439 
		1084.744,117.887 1102.568,117.336 1102.568,105.576 1102.568,93.632 1052.954,93.632 1003.34,93.632 	"/>
	<polygon style="fill-rule:evenodd;clip-rule:evenodd;fill:#FFFFFF;" points="1122.781,158.865 1122.781,224.098 1163.208,224.098 
		1203.634,224.098 1203.634,212.154 1203.634,200.21 1176.989,200.21 1150.345,200.21 1150.345,184.591 1150.345,168.971 
		1174.233,168.971 1198.121,168.971 1198.121,157.027 1198.121,145.083 1174.233,145.083 1150.345,145.083 1150.345,131.301 
		1150.345,117.52 1176.07,117.52 1201.796,117.52 1201.796,105.576 1201.796,93.632 1162.289,93.632 1122.781,93.632 	"/>
	<path style="fill-rule:evenodd;clip-rule:evenodd;fill:#FFFFFF;" d="M1346.963,158.865v65.233h12.863h13.047l-0.551-47.776
		c-0.368-26.277,0-47.776,0.919-47.776c0.735,0,1.286,1.103,1.47,2.205c0,3.675,11.944,27.38,31.055,61.742l17.457,31.606h15.252
		h15.068v-65.233V93.632h-13.047h-13.047l0.735,45.939c0.184,25.174,0,45.204-0.551,44.469c-0.551-0.735-2.94-5.88-5.145-11.393
		s-12.495-25.358-22.969-44.101L1380.59,94.55l-16.722-0.551l-16.906-0.551V158.865z"/>
	<polygon style="fill-rule:evenodd;clip-rule:evenodd;fill:#FFFFFF;" points="1482.942,158.865 1482.942,224.098 1497.642,224.098 
		1512.343,224.098 1512.343,158.865 1512.343,93.632 1497.642,93.632 1482.942,93.632 	"/>
	<path style="fill-rule:evenodd;clip-rule:evenodd;fill:#FFFFFF;" d="M1681.398,127.075c-5.513,18.559-12.679,42.264-15.987,52.922
		c-3.308,10.658-7.718,24.991-9.555,31.79l-3.675,12.495l15.068-0.551l15.068-0.551l4.226-16.17l4.41-15.987h19.111h19.111
		l4.961,16.538l5.145,16.538h15.068c8.453,0,15.252-0.551,15.252-1.47c0-0.735-9.004-29.768-19.846-64.682l-19.846-63.396
		l-19.111-0.551l-19.294-0.368L1681.398,127.075z M1719.251,149.493c2.389,8.085,4.41,15.619,4.41,17.089
		c0,1.838-3.491,2.389-13.782,2.389c-7.534,0-13.782-0.368-13.782-1.103c0-0.551,2.389-10.107,5.329-21.499
		c2.94-11.393,5.88-23.153,6.615-26.093c1.286-5.329,1.47-5.145,4.043,4.594C1713.555,130.383,1716.863,141.592,1719.251,149.493z"
		/>
</g>
<g>
	<path style="fill-rule:evenodd;clip-rule:evenodd;fill:#FFFFFF;" d="M536.53,279.572l-7.901,0.735v61.374v61.191l12.312,1.47
		c18.008,1.838,41.896-0.184,56.597-4.961c10.474-3.491,14.7-6.064,22.969-14.517c13.23-13.23,17.457-24.256,17.457-46.858
		c0-14.333-0.735-17.824-5.145-27.012C619.403,283.615,591.84,274.611,536.53,279.572z M591.105,304.746
		c12.495,6.248,17.457,16.17,17.273,35.097c0,11.209-0.919,16.354-3.859,22.051c-7.718,14.517-19.111,21.132-37.302,21.132h-11.025
		v-41.161V300.52l4.226-0.735C567.768,298.131,582.652,300.704,591.105,304.746z"/>
	<polygon style="fill-rule:evenodd;clip-rule:evenodd;fill:#FFFFFF;" points="651.744,341.681 651.744,403.239 691.252,403.239 
		730.759,403.239 730.759,392.214 730.759,381.189 705.033,381.189 679.124,381.189 679.675,365.937 680.227,350.869 
		702.828,350.318 725.247,349.766 725.247,338.925 725.247,327.9 702.277,327.9 679.308,327.9 679.308,315.037 679.308,302.174 
		704.115,302.174 728.922,302.174 728.922,291.148 728.922,280.123 690.333,280.123 651.744,280.123 	"/>
</g>
<g>
	<path style="fill-rule:evenodd;clip-rule:evenodd;fill:#FFFFFF;" d="M808.59,281.042c-15.435,5.88-26.277,22.786-24.256,37.854
		c1.654,12.128,9.188,19.662,30.136,30.136c22.602,11.393,24.439,12.679,24.439,20.213c0,12.679-16.538,17.273-38.589,10.29
		c-6.431-2.021-12.128-3.491-12.312-3.124c-0.368,0.368-1.654,5.329-2.756,11.025c-2.573,12.312-2.389,12.679,13.23,15.987
		c15.803,3.308,37.67,1.286,48.695-4.41c19.111-9.923,25.91-32.708,15.252-50.533c-4.41-7.35-13.047-12.863-28.85-18.927
		c-12.495-4.778-22.234-12.312-22.234-17.089c0-1.838,2.021-5.145,4.594-7.534c3.675-3.859,6.248-4.594,15.252-4.594
		c6.064,0,14.333,1.103,18.376,2.573l7.35,2.573l2.756-10.842c2.756-10.658,2.573-11.025-1.286-13.047
		C852.324,278.102,817.41,277.734,808.59,281.042z"/>
	<path style="fill-rule:evenodd;clip-rule:evenodd;fill:#FFFFFF;" d="M1208.809,279.572l-7.901,0.735v61.374v61.191l12.312,1.47
		c17.641,1.838,42.448-0.367,56.964-5.145c10.107-3.308,14.333-6.064,22.602-14.333c13.047-13.047,17.273-24.439,17.457-45.939
		c0-15.619-3.308-30.32-6.615-28.482c-0.919,0.735-1.103,0-0.735-1.286c1.47-3.859-10.474-16.538-20.397-22.051
		c-4.961-2.573-13.965-5.696-19.846-6.799C1252.359,278.469,1225.899,278.102,1208.809,279.572z M1263.385,304.563
		c14.333,7.35,20.764,24.807,16.906,45.755c-4.043,21.316-18.192,32.708-40.61,32.708h-11.209v-41.161V300.52l4.226-0.735
		C1240.232,298.131,1255.116,300.52,1263.385,304.563z"/>
	<path style="fill-rule:evenodd;clip-rule:evenodd;fill:#FFFFFF;" d="M909.104,285.085c-1.103,2.94-3.675,10.474-5.696,17.089
		s-9.372,31.055-16.538,54.392c-7.167,23.337-13.047,43.55-13.047,44.653c0,1.286,4.778,2.021,13.598,2.021h13.782l2.756-10.107
		c1.654-5.513,3.491-12.495,4.043-15.619l1.286-5.513h18.743h18.743l4.41,15.068l4.41,15.252l15.068,0.551l15.068,0.551
		l-1.654-5.145c-0.735-2.756-3.675-11.76-6.064-19.846c-2.573-8.085-10.107-32.157-16.538-53.289
		c-6.615-21.316-12.495-40.059-13.23-41.896c-1.103-2.756-3.859-3.124-19.294-3.124
		C911.126,280.123,910.942,280.123,909.104,285.085z M936.484,330.472c2.94,10.107,5.329,18.927,5.329,19.846
		c0,1.838-25.174,2.021-26.461,0c-0.367-0.735,1.47-10.107,4.41-20.581c2.94-10.658,5.88-21.867,6.615-24.807l1.286-5.513
		l1.838,6.431C930.42,309.34,933.544,320.549,936.484,330.472z"/>
	<polygon style="fill-rule:evenodd;clip-rule:evenodd;fill:#FFFFFF;" points="996.939,341.681 996.939,403.239 1035.528,403.239 
		1074.117,403.239 1074.117,392.214 1074.117,381.372 1049.861,380.821 1025.421,380.27 1024.87,330.105 1024.503,280.123 
		1010.721,280.123 996.939,280.123 	"/>
	<path style="fill-rule:evenodd;clip-rule:evenodd;fill:#FFFFFF;" d="M1079.629,316.139c0,58.25,4.594,73.135,25.726,83.976
		c9.371,4.778,11.393,5.145,26.645,4.594c25.542-1.103,38.589-9.923,46.49-31.238c2.021-6.064,2.94-18.192,3.675-50.716
		l0.735-42.631h-13.965h-13.965v36.751c0,41.529-1.654,52.554-9.188,60.639c-4.41,4.778-6.431,5.513-14.7,5.513
		c-7.901,0-10.29-0.919-14.7-5.145c-7.35-7.534-9.188-19.294-9.188-61.007v-36.751h-13.782h-13.782V316.139z"/>
</g>
<g>
	<path style="fill-rule:evenodd;clip-rule:evenodd;fill:#FFFFFF;" d="M92.776,447.868c-17.849,6.642-21.585,57.699-5.396,74.511
		c5.396,5.811,7.264,6.434,13.906,5.396c14.529-2.283,20.133-14.736,19.717-43.794c-0.208-20.34-4.359-30.51-14.321-35.076
		c-3.736-1.868-7.264-3.321-7.679-3.113C98.795,445.793,95.89,446.831,92.776,447.868z M108.965,460.529
		c2.491,4.566,3.528,12.246,3.736,23.453c0.208,22.001-1.868,31.34-8.095,35.491c-4.774,3.113-5.604,3.113-10.17,0
		c-9.755-6.227-12.453-39.435-4.774-57.907c2.906-6.434,4.359-7.679,9.547-7.679C104.192,453.887,106.267,455.34,108.965,460.529z"
		/>
	<path style="fill-rule:evenodd;clip-rule:evenodd;fill:#FFFFFF;" d="M414.69,450.359c-9.132,6.019-12.661,16.397-12.661,37.982
		c0,34.039,16.397,50.85,33.208,34.039c8.095-8.095,11.623-23.038,10.17-42.756c-1.245-17.227-6.227-27.604-14.944-31.548
		C423.407,444.755,422.784,444.755,414.69,450.359z M433.369,461.152c3.944,8.302,5.396,35.284,2.491,46.284
		c-1.453,5.396-4.566,9.962-7.679,12.246c-4.981,3.113-5.396,3.113-10.378-1.66c-9.962-9.962-11-49.812-1.453-60.398
		C421.539,451.812,429.841,453.472,433.369,461.152z"/>
	<path style="fill-rule:evenodd;clip-rule:evenodd;fill:#FFFFFF;" d="M26.775,486.888c0,44.624-0.415,43.586,17.849,40.68
		c12.246-1.66,19.51-10.378,19.51-22.831c0-7.264-1.245-10.17-5.604-14.529c-3.113-2.906-6.434-5.189-7.264-5.189
		c-0.623,0,1.453-2.698,4.774-6.019c6.019-6.019,7.679-14.114,4.774-22.001c-2.076-5.189-12.246-9.34-23.661-9.34H26.775V486.888z
		 M50.436,457.208c4.359,4.359,4.151,15.982-0.208,20.133c-2.076,1.66-6.227,3.943-9.34,4.566l-5.811,1.453v-14.736v-14.736h6.019
		C44.417,453.887,48.775,455.34,50.436,457.208z M52.304,493.53c5.604,6.849,4.774,19.302-1.868,24.491
		c-3.113,2.491-7.679,4.359-10.378,4.359c-4.774,0-4.981-0.415-4.981-17.849v-18.057l6.849,1.453
		C45.455,488.549,50.228,491.247,52.304,493.53z"/>
	<path style="fill-rule:evenodd;clip-rule:evenodd;fill:#FFFFFF;" d="M136.777,486.888c0,23.868,0.83,39.642,2.076,40.058
		c1.038,0.208,8.095,0.208,15.566,0c9.962-0.623,13.491-1.453,13.491-3.736c0-2.076-2.906-2.906-11.415-2.906H145.08v-36.322
		c0-34.869-0.208-36.322-4.151-36.322C136.985,447.661,136.777,449.114,136.777,486.888z"/>
	<path style="fill-rule:evenodd;clip-rule:evenodd;fill:#FFFFFF;" d="M182.439,487.096c0,37.982,0.208,39.435,4.151,39.435
		c3.943,0,4.151-1.453,4.151-39.435s-0.208-39.435-4.151-39.435C182.646,447.661,182.439,449.114,182.439,487.096z"/>
	<path style="fill-rule:evenodd;clip-rule:evenodd;fill:#FFFFFF;" d="M204.232,450.151c0.415,1.453,4.151,17.642,8.302,35.907
		c9.962,43.586,8.925,40.888,14.114,40.058c2.906-0.415,4.981-2.698,6.019-6.849c2.283-9.132,16.189-69.53,16.189-70.568
		c0-0.623-1.868-1.038-3.943-1.038c-4.774,0-4.566-0.83-11.83,37.775c-3.321,16.812-6.019,30.303-6.227,30.095
		c-0.415-0.208-3.528-15.566-7.264-34.246c-6.434-31.548-7.057-33.623-11.623-33.623
		C205.27,447.661,203.609,448.699,204.232,450.151z"/>
	<path style="fill-rule:evenodd;clip-rule:evenodd;fill:#FFFFFF;" d="M263.384,487.096c0,33.623,0.415,39.435,3.113,39.435
		s3.113-5.811,3.113-39.435s-0.415-39.435-3.113-39.435S263.384,453.472,263.384,487.096z"/>
	<path style="fill-rule:evenodd;clip-rule:evenodd;fill:#FFFFFF;" d="M294.932,485.435c-4.774,20.963-8.717,38.605-8.717,39.435
		c0,1.038,1.66,1.66,3.944,1.66c2.906,0,4.359-2.076,5.189-7.887c2.698-14.736,2.906-14.944,12.661-14.944
		c9.132,0,9.132,0.208,11.415,8.717c1.245,4.981,2.698,10.17,3.113,11.415c1.038,2.906,7.264,3.736,7.264,0.83
		c0-0.83-3.736-18.265-8.302-38.605c-4.566-20.34-8.302-37.152-8.302-37.567s-2.076-0.83-4.774-0.83
		C303.857,447.661,303.027,449.944,294.932,485.435z M312.159,474.435c4.566,22.001,4.359,23.038-4.151,23.038
		c-8.51,0-8.302,0.415-4.151-21.378c1.66-8.925,3.113-16.812,3.113-17.642C306.97,454.095,309.461,461.567,312.159,474.435z"/>
	<path style="fill-rule:evenodd;clip-rule:evenodd;fill:#FFFFFF;" d="M346.405,487.096c0,33.623,0.415,39.435,3.113,39.435
		s3.113-4.981,3.321-32.793v-32.586l4.981,13.491c16.189,44.624,19.095,50.85,23.453,51.473c4.566,0.623,4.566,0.415,4.566-38.812
		c0-33.623-0.415-39.642-3.113-39.642c-2.491,0-3.113,5.604-3.528,32.586l-0.623,32.793l-7.887-21.378
		c-12.246-32.586-17.642-44.001-21.17-44.001C346.82,447.661,346.405,453.265,346.405,487.096z"/>
</g>
<g>
	<path style="fill-rule:evenodd;clip-rule:evenodd;fill:#FFFFFF;" d="M637.185,447.522c-9.132,4.774-13.491,15.151-14.321,34.661
		c-1.038,22.001,1.868,33.416,10.17,40.473c7.887,6.642,14.321,6.849,22.001,0.415c7.679-6.434,11-17.434,11-35.906
		c0-19.717-1.453-26.152-8.095-33.623C651.507,446.069,644.035,443.994,637.185,447.522z M653.997,461.636
		c2.491,4.981,3.736,12.246,3.736,22.831c0,18.68-2.906,29.888-8.51,34.039c-11.831,8.094-19.51-7.057-18.057-35.699
		c1.038-22.001,4.774-30.095,13.698-29.057C648.808,454.164,651.507,456.447,653.997,461.636z"/>
	<path style="fill-rule:evenodd;clip-rule:evenodd;fill:#FFFFFF;" d="M491.276,481.768l-0.623,34.869l-6.642,3.113
		c-9.755,4.566-9.132,9.132,0.83,7.679c13.906-2.283,15.151-6.019,15.151-45.661c0-33.208-0.208-34.661-4.151-34.661
		C491.899,447.107,491.691,448.768,491.276,481.768z"/>
	<path style="fill-rule:evenodd;clip-rule:evenodd;fill:#FFFFFF;" d="M531.126,448.768c0,1.038-3.321,16.189-7.264,33.831
		c-4.151,17.642-7.887,34.454-8.717,37.567c-0.83,4.566-0.415,5.811,2.283,5.811c3.736,0,3.943-0.623,7.472-14.114
		c2.283-8.51,2.283-8.717,11.415-8.717c8.717,0,9.132,0.208,11.208,7.679c1.245,4.359,2.283,9.547,2.283,11.415
		c0,2.283,1.66,3.736,4.151,3.736c2.283,0,4.151-0.83,4.151-1.66c0-1.245-12.246-58.322-15.566-72.643
		c-0.83-3.113-2.698-4.566-6.227-4.566C533.409,447.107,531.126,447.937,531.126,448.768z M540.466,473.259
		c4.359,23.453,4.359,23.661-4.151,23.661c-5.189,0-7.264-0.83-7.264-3.321c0-4.774,6.849-38.397,7.472-37.567
		C536.938,456.447,538.598,464.126,540.466,473.259z"/>
	<path style="fill-rule:evenodd;clip-rule:evenodd;fill:#FFFFFF;" d="M574.712,486.542c0,33.623,0.415,39.435,3.113,39.435
		c1.66,0,3.113-1.66,3.321-3.736c0-1.868,0.208-9.132,0.415-15.982l0.415-12.453l8.095-1.245c5.604-0.83,10.17-3.528,14.321-8.095
		c5.396-6.019,6.019-7.887,4.981-17.227c-1.245-14.529-7.887-20.133-23.453-20.133h-11.208V486.542z M598.373,457.9
		c1.868,2.491,3.321,8.095,3.321,12.453c0,9.755-5.811,16.189-14.529,16.189h-6.227v-16.604v-16.604h7.057
		C593.184,453.334,596.09,454.787,598.373,457.9z"/>
	<path style="fill-rule:evenodd;clip-rule:evenodd;fill:#FFFFFF;" d="M682.639,486.542c0,33.623,0.415,39.435,3.113,39.435
		c2.698,0,3.113-4.981,3.113-32.793l0.208-32.586l6.849,18.68c15.982,43.171,17.227,45.661,21.793,46.284
		c4.359,0.623,4.359,0.208,4.359-38.812c0-33.831-0.415-39.642-3.113-39.642c-3.113,0-4.151,16.189-3.113,52.303
		c0.208,6.642,0,12.038-0.623,12.038c-0.415,0-6.227-14.529-13.076-32.171c-9.34-24.491-13.076-32.171-15.774-32.171
		C682.847,447.107,682.639,450.428,682.639,486.542z"/>
	<path style="fill-rule:evenodd;clip-rule:evenodd;fill:#FFFFFF;" d="M740.754,486.542v39.435h15.566
		c12.453,0,15.566-0.623,15.566-3.113c0-2.491-2.698-3.113-11.415-3.113h-11.415v-15.566v-15.566h10.378
		c7.887,0,10.378-0.83,10.378-3.113c0-2.283-2.491-3.113-10.378-3.113h-10.378v-14.529v-14.529h10.378
		c7.887,0,10.378-0.83,10.378-3.113c0-2.491-2.906-3.113-14.529-3.113h-14.529V486.542z"/>
	<path style="fill-rule:evenodd;clip-rule:evenodd;fill:#FFFFFF;" d="M790.359,453.126c-10.378,10.378-7.887,20.34,8.925,35.491
		c8.717,7.887,10.378,10.585,10.585,17.019c0.208,11.208-3.528,14.529-15.566,13.698c-8.302-0.415-9.962,0-9.962,2.906
		c0,4.151,11.415,7.057,18.472,4.774c8.717-2.698,14.736-11,14.736-20.133c0-8.095-6.642-22.416-10.378-22.416
		c-0.83,0-4.566-2.906-8.094-6.642c-11.415-11.83-7.264-24.491,8.302-24.491c5.811,0,8.095-0.83,8.095-3.113
		c0-2.283-2.491-3.113-9.547-3.113C798.246,447.107,795.34,448.145,790.359,453.126z"/>
	<path style="fill-rule:evenodd;clip-rule:evenodd;fill:#FFFFFF;" d="M846.606,447.937c0,0.415-3.736,17.019-8.302,37.152
		c-9.34,41.095-9.34,40.888-5.189,40.888c2.906,0,7.264-11.623,7.264-19.302c0-2.906,1.868-3.528,10.17-3.528h10.378l2.491,11.415
		c2.076,9.132,3.321,11.415,6.642,11.415c3.113,0,3.736-1.038,2.906-4.774c-0.623-2.491-4.566-20.133-8.925-39.435
		c-7.264-32.586-8.094-34.661-12.661-34.661C848.681,447.107,846.606,447.522,846.606,447.937z M855.945,476.164
		c4.359,21.17,4.359,20.755-5.396,20.755c-7.057,0-8.302-0.623-7.472-3.736c0.623-1.868,2.076-8.717,3.528-14.944
		C851.794,452.503,851.172,452.711,855.945,476.164z"/>
</g>
<g>
	<path style="fill-rule:evenodd;clip-rule:evenodd;fill:#FFFFFF;" d="M928.183,447.508c-3.321,0.83-3.736,4.566-3.736,40.265V527
		h9.547c20.133,0,29.887-13.076,29.887-40.058c0-17.642-2.906-26.982-10.585-33.831C948.315,448.546,934.824,445.64,928.183,447.508
		z M944.164,455.603c8.717,4.151,11.415,11.415,11.415,31.34c0,23.453-6.019,33.831-19.51,33.831h-5.396v-32.793
		c0-18.057,0.623-33.623,1.453-34.246C934.202,451.659,936.692,451.867,944.164,455.603z"/>
	<path style="fill-rule:evenodd;clip-rule:evenodd;fill:#FFFFFF;" d="M980.486,487.566V527h15.566
		c12.453,0,15.566-0.623,15.566-3.113c0-2.491-2.698-3.113-11.415-3.113h-11.415V504.17v-16.604h9.34c6.849,0,9.34-0.83,9.34-3.113
		s-2.491-3.113-9.34-3.113h-9.34v-13.491v-13.491h10.378c7.887,0,10.378-0.83,10.378-3.113c0-2.491-2.906-3.113-14.529-3.113
		h-14.529V487.566z"/>
</g>
<g>
	<path style="fill-rule:evenodd;clip-rule:evenodd;fill:#FFFFFF;" d="M1064.544,448.022c-11.415,4.566-19.717,20.963-19.717,38.812
		c0,16.189,3.321,27.189,10.378,34.246c4.981,4.774,7.679,5.811,16.397,5.811c8.094,0,10.585-0.83,10.585-3.113
		s-2.283-3.113-7.887-3.113c-13.283,0-21.17-12.246-21.17-33.208c0-20.755,7.472-33.208,19.925-33.208
		c7.472,0,11.208-3.528,6.849-6.434C1076.375,445.531,1070.148,445.739,1064.544,448.022z"/>
	<path style="fill-rule:evenodd;clip-rule:evenodd;fill:#FFFFFF;" d="M1104.809,449.06c-8.717,4.774-13.283,18.057-13.283,38.397
		c0,21.378,4.359,33.001,14.321,38.397c6.434,3.528,7.057,3.528,14.114,0.208c23.661-11.415,19.302-80.53-4.981-80.115
		C1112.281,446.154,1107.715,447.399,1104.809,449.06z M1117.263,454.249c6.434,3.321,9.547,14.321,9.34,33.208
		c0,23.038-4.151,33.208-13.076,33.208c-4.774,0-7.057-1.453-9.34-6.019c-7.887-15.151-5.604-52.926,3.528-59.36
		C1112.904,451.55,1112.696,451.55,1117.263,454.249z"/>
	<path style="fill-rule:evenodd;clip-rule:evenodd;fill:#FFFFFF;" d="M1159.188,451.135c-3.321,2.906-7.264,8.717-8.717,12.868
		c-3.528,11-2.906,39.642,1.245,49.813c7.057,17.849,26.982,18.68,35.491,1.453c5.396-11,5.604-46.284,0.208-56.247
		C1180.151,445.531,1169.566,442.418,1159.188,451.135z M1180.151,461.098c1.66,2.698,2.698,12.661,2.698,25.321
		c0,25.114-2.906,32.793-12.661,33.831c-5.604,0.623-6.849-0.415-10.17-7.264c-4.566-9.34-5.189-37.152-1.245-48.982
		C1162.924,451.343,1173.924,449.89,1180.151,461.098z"/>
	<path style="fill-rule:evenodd;clip-rule:evenodd;fill:#FFFFFF;" d="M1214.604,447.399l-5.811,0.83v37.359
		c0,20.34,0,37.774-0.208,38.605c0,1.038,1.453,1.868,3.113,2.283c2.491,0.623,3.321-2.283,3.736-15.566l0.623-16.189l7.679-1.245
		c8.925-1.453,13.283-4.566,17.434-12.453c6.227-12.246,1.245-29.472-9.34-31.963
		C1222.076,446.777,1220.208,446.569,1214.604,447.399z M1232.454,459.022c2.906,3.528,3.528,6.642,2.698,13.491
		c-1.038,9.962-5.604,14.736-14.321,14.944h-5.811V471.06c0-11.208,0.83-16.812,2.698-17.434
		C1221.869,451.965,1228.303,454.249,1232.454,459.022z"/>
	<path style="fill-rule:evenodd;clip-rule:evenodd;fill:#FFFFFF;" d="M1261.096,447.607c-1.868,0.623-2.491,10.585-2.491,40.058
		v39.227h15.566c12.453,0,15.566-0.623,15.566-3.113c0-2.491-2.698-3.113-11.415-3.113H1266.7l0.623-16.189l0.623-15.982
		l9.963-0.623c6.849-0.415,9.755-1.453,9.755-3.736c0-2.076-2.698-2.906-10.378-2.906h-10.378v-13.491v-13.491h10.17
		c9.755,0,16.189-3.113,10.17-4.981C1282.889,447.814,1264.002,446.569,1261.096,447.607z"/>
	<path style="fill-rule:evenodd;clip-rule:evenodd;fill:#FFFFFF;" d="M1311.116,447.607l-6.849,0.623v39.435
		c0,37.774,0.208,39.227,4.151,39.227c3.736,0,4.151-1.453,4.151-17.642c0-17.227,0-17.642,4.981-17.642
		c7.472,0,11,4.774,13.698,18.265c1.245,6.434,2.698,13.076,3.113,14.321c1.245,3.528,7.264,3.321,7.264-0.208
		c0-8.302-4.774-25.944-8.302-30.718c-4.151-5.604-4.151-5.604-0.208-7.887c5.189-2.698,9.132-14.944,7.472-22.623
		C1338.098,451.343,1327.098,445.739,1311.116,447.607z M1329.173,457.569c4.359,4.359,3.943,18.265-0.83,23.453
		c-2.283,2.491-6.434,4.359-9.963,4.359h-5.811V470.23c0-8.51,0.623-15.982,1.453-16.812
		C1316.098,451.343,1325.437,453.833,1329.173,457.569z"/>
	<path style="fill-rule:evenodd;clip-rule:evenodd;fill:#FFFFFF;" d="M1427.138,448.022c-6.642,2.698-14.529,12.246-17.019,20.755
		c-2.906,10.378-2.491,34.246,0.83,42.341c4.359,10.585,12.453,15.774,24.491,15.774c7.264,0,9.963-0.83,9.547-2.698
		c-0.623-1.245-3.113-2.698-6.019-3.113c-11.83-1.245-14.114-2.698-18.265-11.415c-7.887-16.189-4.151-47.945,6.227-53.341
		c2.076-1.245,6.434-2.076,9.963-2.076c6.849,0,8.925-4.774,3.113-7.057C1435.855,445.531,1432.949,445.739,1427.138,448.022z"/>
	<path style="fill-rule:evenodd;clip-rule:evenodd;fill:#FFFFFF;" d="M1499.366,447.399c-11.208,4.151-17.849,23.661-15.982,47.529
		c2.283,31.34,21.17,43.794,36.322,24.076c4.981-6.642,5.604-9.34,6.434-27.189c0.415-11-0.415-23.038-1.66-27.604
		C1520.121,450.305,1510.159,443.456,1499.366,447.399z M1515.347,462.343c4.151,9.962,4.151,40.473-0.208,50.643
		c-2.698,6.434-4.151,7.679-9.34,7.679c-4.981,0-7.057-1.453-9.755-6.434c-7.472-14.529-6.227-48.567,2.283-57.077
		C1504.762,450.72,1511.404,452.588,1515.347,462.343z"/>
	<path style="fill-rule:evenodd;clip-rule:evenodd;fill:#FFFFFF;" d="M1362.797,485.796c-4.774,20.963-8.717,38.605-8.717,39.435
		c0,1.038,1.66,1.66,3.736,1.66c2.906,0,4.359-2.698,6.227-12.453l2.698-12.453h9.132c9.755,0,9.963,0.208,12.661,15.151
		c1.245,7.472,5.604,12.038,8.51,9.132c0.623-0.83-1.868-15.151-5.604-31.963c-10.585-48.36-9.962-46.284-15.359-46.284
		C1371.721,448.022,1370.891,450.305,1362.797,485.796z M1380.854,478.117c1.868,9.755,3.113,18.265,2.491,18.68
		c-0.415,0.623-3.943,1.038-7.887,1.038c-4.774,0-6.849-1.038-6.849-3.321c0-6.227,7.057-38.812,7.887-36.529
		C1376.91,459.437,1378.986,468.57,1380.854,478.117z"/>
	<path style="fill-rule:evenodd;clip-rule:evenodd;fill:#FFFFFF;" d="M1459.516,451.343c-0.415,1.868-0.415,19.717,0,39.642
		c0.623,32.793,1.038,36.114,4.151,35.491c1.868-0.415,3.321-1.453,3.113-2.283c-0.415-0.83-0.623-18.265-0.623-38.812
		c0-30.925-0.415-37.359-2.906-37.359C1461.591,448.022,1459.931,449.475,1459.516,451.343z"/>
	<path style="fill-rule:evenodd;clip-rule:evenodd;fill:#FFFFFF;" d="M1542.952,487.249c0,33.831,0.415,39.642,3.113,39.642
		c2.698,0,3.113-5.189,3.113-33.831l0.208-33.623l12.453,32.171c6.849,17.642,13.283,33.001,14.321,34.039
		c1.038,1.038,3.113,1.245,4.566,0.83c2.076-0.83,2.491-9.34,2.076-39.85c-0.415-33.208-1.038-38.605-3.736-38.605
		c-2.906,0-3.113,4.151-2.491,31.963c0.208,17.642,0.208,31.548-0.208,31.133c-0.415-0.415-6.227-14.529-12.868-31.548
		c-9.547-24.491-12.868-30.718-16.189-31.133C1542.952,447.814,1542.952,448.437,1542.952,487.249z"/>
</g>
<g>
	<path style="fill-rule:evenodd;clip-rule:evenodd;fill:#FFFFFF;" d="M1647.309,449.119c-1.038,2.906-17.642,76.172-17.642,77.625
		c0,0.415,1.661,0.83,3.736,0.83c2.906,0,4.359-2.906,6.434-12.453l2.698-12.453h9.963h9.963l1.453,9.547
		c1.868,13.283,2.906,15.359,7.679,15.359c2.906,0,3.736-1.038,2.906-3.736c-0.623-1.868-4.566-18.472-8.51-36.737
		c-4.151-18.265-7.887-34.869-8.51-36.944C1656.234,446.006,1648.762,445.384,1647.309,449.119z M1656.649,475.686
		c1.453,8.51,3.113,16.812,3.528,18.057c0.83,1.868-1.453,2.698-7.679,2.698c-8.717,0-8.717,0-7.472-6.227
		c0.623-3.528,2.283-12.453,3.736-19.717c1.245-7.472,3.113-12.868,3.736-12.038
		C1653.328,459.497,1655.196,467.176,1656.649,475.686z"/>
	<path style="fill-rule:evenodd;clip-rule:evenodd;fill:#FFFFFF;" d="M1689.858,487.102c0,34.661,0.415,40.473,3.113,40.473
		c2.698,0,3.113-5.189,3.113-33.831l0.208-33.623l11.415,30.095c6.434,16.604,12.038,31.755,12.661,33.623
		c0.623,2.076,2.906,3.736,4.981,3.736c3.736,0,3.943-2.283,3.943-40.473c0-34.246-0.415-40.473-3.113-40.473
		c-2.491,0-3.113,5.396-3.528,32.378l-0.623,32.378l-12.246-32.378c-9.755-25.321-13.283-32.378-16.189-32.378
		C1690.065,446.629,1689.858,449.535,1689.858,487.102z"/>
	<path style="fill-rule:evenodd;clip-rule:evenodd;fill:#FFFFFF;" d="M1748.802,449.327c-0.415,1.453-0.623,19.51-0.415,39.85
		l0.623,37.359h10.378c21.378-0.208,31.34-15.151,29.68-44.001c-1.245-19.51-5.396-28.85-15.151-33.001
		C1764.991,445.799,1750.255,445.799,1748.802,449.327z M1774.746,459.497c4.774,6.849,6.019,11.623,6.227,25.529
		c0.415,22.623-7.057,36.322-19.718,36.322h-4.981v-34.454v-34.661l7.472,1.245C1768.312,454.308,1772.671,456.591,1774.746,459.497
		z"/>
	<path style="fill-rule:evenodd;clip-rule:evenodd;fill:#FFFFFF;" d="M1806.087,487.102c0,39.02,0.208,40.473,4.151,40.473
		s4.151-1.453,4.151-40.473s-0.208-40.473-4.151-40.473S1806.087,448.082,1806.087,487.102z"/>
	<path style="fill-rule:evenodd;clip-rule:evenodd;fill:#FFFFFF;" d="M1833.068,487.102c0,34.661,0.415,40.473,3.113,40.473
		c2.698,0,3.113-5.189,3.113-33.831l0.208-33.623l11,29.265c13.283,34.661,14.944,38.19,18.887,38.19
		c2.698,0,3.113-6.227,3.113-40.473s-0.415-40.473-3.113-40.473c-2.491,0-3.113,5.604-3.528,32.586l-0.623,32.793l-3.736-10.378
		c-12.661-35.699-21.17-55.001-24.699-55.001C1833.276,446.629,1833.068,449.742,1833.068,487.102z"/>
	<path style="fill-rule:evenodd;clip-rule:evenodd;fill:#FFFFFF;" d="M1904.881,450.157c-0.623,2.076-4.359,18.68-8.51,36.944
		c-4.151,18.265-7.887,34.869-8.51,36.737c-0.83,2.698,0,3.736,3.113,3.736c3.321,0,4.566-2.076,6.642-12.453l2.491-12.453h9.755
		h9.755l2.491,12.453c2.076,10.378,3.113,12.453,6.849,12.453c3.321,0,3.943-0.83,2.906-4.774
		c-0.623-2.491-4.774-20.755-8.925-40.473c-7.264-33.001-8.094-35.699-12.453-35.699
		C1907.995,446.629,1905.504,448.289,1904.881,450.157z M1913.599,470.912c1.245,7.887,2.906,17.019,3.528,20.34
		c1.453,6.434,1.453,6.434-7.057,5.604c-4.774-0.415-8.51-1.453-8.51-2.283c0-0.623,1.453-6.849,3.113-13.698
		c1.66-6.849,2.906-14.944,3.113-18.265C1907.787,452.233,1911.108,456.799,1913.599,470.912z"/>
</g>
</svg>
